<?xml version="1.0" encoding="utf-8" standalone="no"?>
<!DOCTYPE svg PUBLIC "-//W3C//DTD SVG 1.1//EN"
  "http://www.w3.org/Graphics/SVG/1.1/DTD/svg11.dtd">
<svg xmlns:xlink="http://www.w3.org/1999/xlink" width="445.05pt" height="640.8pt" viewBox="0 0 445.05 640.8" xmlns="http://www.w3.org/2000/svg" version="1.1">
 <metadata>
  <rdf:RDF xmlns:dc="http://purl.org/dc/elements/1.1/" xmlns:cc="http://creativecommons.org/ns#" xmlns:rdf="http://www.w3.org/1999/02/22-rdf-syntax-ns#">
   <cc:Work>
    <dc:type rdf:resource="http://purl.org/dc/dcmitype/StillImage"/>
    <dc:date>2026-07-06T18:33:42.197619</dc:date>
    <dc:format>image/svg+xml</dc:format>
    <dc:creator>
     <cc:Agent>
      <dc:title>Matplotlib v3.11.0, https://matplotlib.org/</dc:title>
     </cc:Agent>
    </dc:creator>
   </cc:Work>
  </rdf:RDF>
 </metadata>
 <defs>
  <style type="text/css">*{stroke-linejoin: round; stroke-linecap: butt}</style>
 </defs>
 <g id="figure_1">
  <g id="patch_1">
   <path d="M 0 640.8 
L 445.05 640.8 
L 445.05 0 
L 0 0 
z
" style="fill: #1e2836"/>
  </g>
  <g id="axes_1">
   <g id="patch_2">
    <path d="M 7.2 633.6 
L 437.85 633.6 
L 437.85 7.2 
L 7.2 7.2 
z
" style="fill: #1e2836"/>
   </g>
   <g id="line2d_1">
    <path d="M 418.275 320.4 
L 26.775 320.4 
L 26.775 26.775 
L 418.275 26.775 
L 418.275 614.025 
L 26.775 614.025 
L 26.775 320.4 
" clip-path="url(#p54d1b280b8)" style="fill: none; stroke: #c7d5cc; stroke-width: 2; stroke-linecap: square"/>
   </g>
   <g id="line2d_2">
    <path d="M 330.1875 26.775 
L 330.1875 114.8625 
L 114.8625 114.8625 
L 114.8625 26.775 
" clip-path="url(#p54d1b280b8)" style="fill: none; stroke: #c7d5cc; stroke-width: 2; stroke-linecap: square"/>
   </g>
   <g id="line2d_3">
    <path d="M 330.1875 614.025 
L 330.1875 525.9375 
L 114.8625 525.9375 
L 114.8625 614.025 
" clip-path="url(#p54d1b280b8)" style="fill: none; stroke: #c7d5cc; stroke-width: 2; stroke-linecap: square"/>
   </g>
   <g id="line2d_4">
    <path d="M 271.4625 26.775 
L 271.4625 56.1375 
L 173.5875 56.1375 
L 173.5875 26.775 
" clip-path="url(#p54d1b280b8)" style="fill: none; stroke: #c7d5cc; stroke-width: 2; stroke-linecap: square"/>
   </g>
   <g id="line2d_5">
    <path d="M 271.4625 614.025 
L 271.4625 584.6625 
L 173.5875 584.6625 
L 173.5875 614.025 
" clip-path="url(#p54d1b280b8)" style="fill: none; stroke: #c7d5cc; stroke-width: 2; stroke-linecap: square"/>
   </g>
   <g id="patch_3">
    <path d="M 222.525 369.3375 
C 235.503377 369.3375 247.95194 364.181136 257.129038 355.004038 
C 266.306136 345.82694 271.4625 333.378377 271.4625 320.4 
C 271.4625 307.421623 266.306136 294.97306 257.129038 285.795962 
C 247.95194 276.618864 235.503377 271.4625 222.525 271.4625 
C 209.546623 271.4625 197.09806 276.618864 187.920962 285.795962 
C 178.743864 294.97306 173.5875 307.421623 173.5875 320.4 
C 173.5875 333.378377 178.743864 345.82694 187.920962 355.004038 
C 197.09806 364.181136 209.546623 369.3375 222.525 369.3375 
L 222.525 369.3375 
z
" clip-path="url(#p54d1b280b8)" style="fill: none; stroke: #c7d5cc; stroke-width: 2; stroke-linejoin: miter"/>
   </g>
   <g id="patch_4">
    <path d="M 261.675 525.9375 
C 257.116824 519.859932 251.205443 514.926433 244.410515 511.528969 
C 237.615588 508.131505 230.12196 506.3625 222.525 506.3625 
C 214.92804 506.3625 207.434412 508.131505 200.639485 511.528969 
C 193.844557 514.926433 187.933176 519.859932 183.375 525.9375 
" clip-path="url(#p54d1b280b8)" style="fill: none; stroke: #c7d5cc; stroke-width: 2; stroke-linejoin: miter"/>
   </g>
   <g id="patch_5">
    <path d="M 183.375 114.8625 
C 187.933176 120.940068 193.844557 125.873567 200.639485 129.271031 
C 207.434412 132.668495 214.92804 134.4375 222.525 134.4375 
C 230.12196 134.4375 237.615588 132.668495 244.410515 129.271031 
C 251.205443 125.873567 257.116824 120.940068 261.675 114.8625 
" clip-path="url(#p54d1b280b8)" style="fill: none; stroke: #c7d5cc; stroke-width: 2; stroke-linejoin: miter"/>
   </g>
   <g id="patch_6">
    <path d="M 222.525 321.5745 
C 222.836481 321.5745 223.135247 321.450747 223.355497 321.230497 
C 223.575747 321.010247 223.6995 320.711481 223.6995 320.4 
C 223.6995 320.088519 223.575747 319.789753 223.355497 319.569503 
C 223.135247 319.349253 222.836481 319.2255 222.525 319.2255 
C 222.213519 319.2255 221.914753 319.349253 221.694503 319.569503 
C 221.474253 319.789753 221.3505 320.088519 221.3505 320.4 
C 221.3505 320.711481 221.474253 321.010247 221.694503 321.230497 
C 221.914753 321.450747 222.213519 321.5745 222.525 321.5745 
z
" clip-path="url(#p54d1b280b8)" style="fill: #c7d5cc; stroke: #c7d5cc; stroke-linejoin: miter"/>
   </g>
   <g id="patch_7">
    <path d="M 222.525 556.4745 
C 222.836481 556.4745 223.135247 556.350747 223.355497 556.130497 
C 223.575747 555.910247 223.6995 555.611481 223.6995 555.3 
C 223.6995 554.988519 223.575747 554.689753 223.355497 554.469503 
C 223.135247 554.249253 222.836481 554.1255 222.525 554.1255 
C 222.213519 554.1255 221.914753 554.249253 221.694503 554.469503 
C 221.474253 554.689753 221.3505 554.988519 221.3505 555.3 
C 221.3505 555.611481 221.474253 555.910247 221.694503 556.130497 
C 221.914753 556.350747 222.213519 556.4745 222.525 556.4745 
z
" clip-path="url(#p54d1b280b8)" style="fill: #c7d5cc; stroke: #c7d5cc; stroke-linejoin: miter"/>
   </g>
   <g id="patch_8">
    <path d="M 222.525 86.6745 
C 222.836481 86.6745 223.135247 86.550747 223.355497 86.330497 
C 223.575747 86.110247 223.6995 85.811481 223.6995 85.5 
C 223.6995 85.188519 223.575747 84.889753 223.355497 84.669503 
C 223.135247 84.449253 222.836481 84.3255 222.525 84.3255 
C 222.213519 84.3255 221.914753 84.449253 221.694503 84.669503 
C 221.474253 84.889753 221.3505 85.188519 221.3505 85.5 
C 221.3505 85.811481 221.474253 86.110247 221.694503 86.330497 
C 221.914753 86.550747 222.213519 86.6745 222.525 86.6745 
z
" clip-path="url(#p54d1b280b8)" style="fill: #c7d5cc; stroke: #c7d5cc; stroke-linejoin: miter"/>
   </g>
   <g id="line2d_6">
    <path d="M 202.95 26.775 
L 242.1 26.775 
" clip-path="url(#p54d1b280b8)" style="fill: none; stroke: #c7d5cc; stroke-width: 4; stroke-linecap: square"/>
   </g>
   <g id="line2d_7">
    <path d="M 202.95 614.025 
L 242.1 614.025 
" clip-path="url(#p54d1b280b8)" style="fill: none; stroke: #c7d5cc; stroke-width: 4; stroke-linecap: square"/>
   </g>
   <g id="Quiver_1">
    <path d="M 314.069406 398.184165 
L 188.061895 432.158887 
L 199.279066 435.348728 
L 170.161875 434.91375 
L 195.113818 419.900405 
L 187.020583 428.296806 
L 313.028094 394.322085 
L 314.069406 398.184165 
" clip-path="url(#p54d1b280b8)" style="fill: #ffffff"/>
   </g>
   <g id="Quiver_2">
    <path d="M 225.177981 552.376778 
L 303.105858 411.049949 
L 293.023066 416.909754 
L 313.54875 396.253125 
L 307.034219 424.635529 
L 306.608646 412.981393 
L 228.680769 554.308222 
L 225.177981 552.376778 
" clip-path="url(#p54d1b280b8)" style="fill: #ffffff; fill-opacity: 0.833333"/>
   </g>
   <g id="Quiver_3">
    <path d="M 171.965386 434.049257 
L 220.95245 536.246408 
L 222.040519 524.635374 
L 226.929375 553.3425 
L 207.61243 531.551317 
L 217.345428 537.975394 
L 168.358364 435.778243 
L 171.965386 434.049257 
" clip-path="url(#p54d1b280b8)" style="fill: #ffffff; fill-opacity: 0.833333"/>
   </g>
   <g id="Quiver_4">
    <path d="M 225.125864 554.206993 
L 176.1388 452.009842 
L 175.050731 463.620876 
L 170.161875 434.91375 
L 189.47882 456.704933 
L 179.745822 450.280856 
L 228.732886 552.478007 
L 225.125864 554.206993 
" clip-path="url(#p54d1b280b8)" style="fill: #ffffff; fill-opacity: 0.75"/>
   </g>
   <g id="Quiver_5">
    <path d="M 311.784966 395.310222 
L 344.895711 333.373651 
L 334.889844 339.36386 
L 355.145625 318.4425 
L 349.000114 346.907087 
L 348.423279 335.259458 
L 315.312534 397.196028 
L 311.784966 395.310222 
" clip-path="url(#p54d1b280b8)" style="fill: #ffffff; fill-opacity: 0.666667"/>
   </g>
   <g id="Quiver_6">
    <path d="M 168.690346 436.268225 
L 101.601874 363.381984 
L 103.959664 374.803053 
L 90.883125 348.78375 
L 115.731894 363.967251 
L 104.544931 360.673033 
L 171.633404 433.559275 
L 168.690346 436.268225 
" clip-path="url(#p54d1b280b8)" style="fill: #ffffff; fill-opacity: 0.666667"/>
   </g>
   <g id="Quiver_7">
    <path d="M 211.50103 317.978951 
L 142.731585 309.042808 
L 151.875052 316.281386 
L 125.139375 304.74 
L 153.936814 300.414782 
L 143.247025 305.076157 
L 212.01647 314.012299 
L 211.50103 317.978951 
" clip-path="url(#p54d1b280b8)" style="fill: #ffffff; fill-opacity: 0.666667"/>
   </g>
   <g id="Quiver_8">
    <path d="M 168.168323 435.074222 
L 156.888818 294.948063 
L 151.710521 305.397237 
L 157.438125 276.845625 
L 167.658936 304.113464 
L 160.875922 294.62712 
L 172.155427 434.753278 
L 168.168323 435.074222 
" clip-path="url(#p54d1b280b8)" style="fill: #ffffff; fill-opacity: 0.583333"/>
   </g>
   <g id="Quiver_9">
    <path d="M 169.641219 432.98271 
L 295.64873 399.007988 
L 284.431559 395.818147 
L 313.54875 396.253125 
L 288.596807 411.26647 
L 296.690042 402.870069 
L 170.682531 436.84479 
L 169.641219 432.98271 
" clip-path="url(#p54d1b280b8)" style="fill: #ffffff; fill-opacity: 0.583333"/>
   </g>
   <g id="Quiver_10">
    <path d="M 210.589371 317.618139 
L 170.871372 288.992554 
L 175.475803 299.706993 
L 157.438125 276.845625 
L 184.830839 286.726881 
L 173.21013 285.747526 
L 212.928129 314.373111 
L 210.589371 317.618139 
" clip-path="url(#p54d1b280b8)" style="fill: #ffffff; fill-opacity: 0.583333"/>
   </g>
   <g id="Quiver_11">
    <path d="M 212.997059 314.425087 
L 300.652214 383.537805 
L 296.51445 372.634645 
L 313.54875 396.253125 
L 286.607977 385.198951 
L 298.175596 386.678882 
L 210.520441 317.566163 
L 212.997059 314.425087 
" clip-path="url(#p54d1b280b8)" style="fill: #ffffff; fill-opacity: 0.583333"/>
   </g>
   <g id="Quiver_12">
    <path d="M 158.745365 278.359271 
L 140.069429 294.488488 
L 151.559378 292.493228 
L 125.139375 304.74 
L 141.10146 280.38406 
L 137.454949 291.461196 
L 156.130885 275.331979 
L 158.745365 278.359271 
" clip-path="url(#p54d1b280b8)" style="fill: #ffffff; fill-opacity: 0.5"/>
   </g>
   <g id="Quiver_13">
    <path d="M 353.183966 318.832234 
L 342.010319 262.591543 
L 338.074009 273.569041 
L 340.464375 244.546875 
L 353.767284 270.451172 
L 345.933637 261.812076 
L 357.107284 318.052766 
L 353.183966 318.832234 
" clip-path="url(#p54d1b280b8)" style="fill: #ffffff; fill-opacity: 0.5"/>
   </g>
   <g id="Quiver_14">
    <path d="M 123.361769 305.656578 
L 115.461598 290.335035 
L 114.71167 301.972802 
L 108.99 273.42 
L 128.932521 294.640176 
L 119.016811 288.501879 
L 126.916981 303.823422 
L 123.361769 305.656578 
" clip-path="url(#p54d1b280b8)" style="fill: #ffffff; fill-opacity: 0.5"/>
   </g>
   <g id="Quiver_15">
    <path d="M 89.415051 347.425531 
L 143.746084 288.700076 
L 132.550768 291.965793 
L 157.438125 276.845625 
L 144.295364 302.831541 
L 146.682233 291.416513 
L 92.351199 350.141969 
L 89.415051 347.425531 
" clip-path="url(#p54d1b280b8)" style="fill: #ffffff; fill-opacity: 0.5"/>
   </g>
   <g id="Quiver_16">
    <path d="M 168.274037 434.253395 
L 203.927719 332.32581 
L 194.962432 339.783935 
L 211.75875 315.995625 
L 210.065134 345.066773 
L 207.703395 333.64652 
L 172.049713 435.574105 
L 168.274037 434.253395 
" clip-path="url(#p54d1b280b8)" style="fill: #ffffff; fill-opacity: 0.5"/>
   </g>
   <g id="Quiver_17">
    <path d="M 342.426034 244.157141 
L 353.599681 300.397832 
L 357.535991 289.420334 
L 355.145625 318.4425 
L 341.842716 292.538203 
L 349.676363 301.177299 
L 338.502716 244.936609 
L 342.426034 244.157141 
" clip-path="url(#p54d1b280b8)" style="fill: #ffffff; fill-opacity: 0.5"/>
   </g>
   <g id="Quiver_18">
    <path d="M 355.1115 320.442209 
L 229.722005 318.302456 
L 239.618175 324.472207 
L 211.75875 315.995625 
L 239.891173 308.474536 
L 229.790254 314.303039 
L 355.17975 316.442791 
L 355.1115 320.442209 
" clip-path="url(#p54d1b280b8)" style="fill: #ffffff; fill-opacity: 0.416667"/>
   </g>
   <g id="Quiver_19">
    <path d="M 341.435096 246.295503 
L 228.467124 309.007761 
L 240.122428 309.400039 
L 211.75875 315.995625 
L 232.356658 295.411015 
L 226.525681 305.510505 
L 339.493654 242.798247 
L 341.435096 246.295503 
" clip-path="url(#p54d1b280b8)" style="fill: #ffffff; fill-opacity: 0.416667"/>
   </g>
   <g id="Quiver_20">
    <path d="M 123.832135 303.226354 
L 142.508071 287.097137 
L 131.018122 289.092397 
L 157.438125 276.845625 
L 141.47604 301.201565 
L 145.122551 290.124429 
L 126.446615 306.253646 
L 123.832135 303.226354 
" clip-path="url(#p54d1b280b8)" style="fill: #ffffff; fill-opacity: 0.416667"/>
   </g>
   <g id="Quiver_21">
    <path d="M 356.909409 319.385403 
L 323.798664 381.321974 
L 333.804531 375.331765 
L 313.54875 396.253125 
L 319.694261 367.788538 
L 320.271096 379.436167 
L 353.381841 317.499597 
L 356.909409 319.385403 
" clip-path="url(#p54d1b280b8)" style="fill: #ffffff; fill-opacity: 0.416667"/>
   </g>
   <g id="Quiver_22">
    <path d="M 340.692541 246.533817 
L 256.295648 256.225327 
L 266.914857 261.045326 
L 238.185 256.291875 
L 265.089532 245.149786 
L 255.839317 252.251442 
L 340.236209 242.559933 
L 340.692541 246.533817 
" clip-path="url(#p54d1b280b8)" style="fill: #ffffff; fill-opacity: 0.333333"/>
   </g>
   <g id="Quiver_23">
    <path d="M 125.397095 302.756674 
L 194.16654 311.692817 
L 185.023073 304.454239 
L 211.75875 315.995625 
L 182.961311 320.320843 
L 193.6511 315.659468 
L 124.881655 306.723326 
L 125.397095 302.756674 
" clip-path="url(#p54d1b280b8)" style="fill: #ffffff; fill-opacity: 0.333333"/>
   </g>
   <g id="Quiver_24">
    <path d="M 109.131062 271.424981 
L 139.624014 273.581048 
L 130.072104 266.890681 
L 157.438125 276.845625 
L 128.943609 282.850834 
L 139.34189 277.571087 
L 108.848938 275.415019 
L 109.131062 271.424981 
" clip-path="url(#p54d1b280b8)" style="fill: #ffffff; fill-opacity: 0.333333"/>
   </g>
   <g id="Quiver_25">
    <path d="M 158.607504 275.223111 
L 198.325503 303.848696 
L 193.721072 293.134257 
L 211.75875 315.995625 
L 184.366036 306.114369 
L 195.986745 307.093724 
L 156.268746 278.468139 
L 158.607504 275.223111 
" clip-path="url(#p54d1b280b8)" style="fill: #ffffff; fill-opacity: 0.333333"/>
   </g>
   <g id="Quiver_26">
    <path d="M 90.359536 346.853503 
L 193.862936 318.777682 
L 182.640932 315.604887 
L 211.75875 315.995625 
L 186.829647 331.046864 
L 194.910115 322.638176 
L 91.406714 350.713997 
L 90.359536 346.853503 
" clip-path="url(#p54d1b280b8)" style="fill: #ffffff; fill-opacity: 0.333333"/>
   </g>
   <g id="Quiver_27">
    <path d="M 168.271734 435.567483 
L 129.132831 322.405002 
L 126.731073 333.816907 
L 125.139375 304.74 
L 141.852201 328.587043 
L 132.913113 321.097536 
L 172.052016 434.260017 
L 168.271734 435.567483 
" clip-path="url(#p54d1b280b8)" style="fill: #ffffff; fill-opacity: 0.333333"/>
   </g>
   <g id="Quiver_28">
    <path d="M 210.788029 314.246997 
L 323.756001 251.534739 
L 312.100697 251.142461 
L 340.464375 244.546875 
L 319.866467 265.131485 
L 325.697444 255.031995 
L 212.729471 317.744253 
L 210.788029 314.246997 
" clip-path="url(#p54d1b280b8)" style="fill: #ffffff; fill-opacity: 0.333333"/>
   </g>
   <g id="Quiver_29">
    <path d="M 312.310441 397.823663 
L 224.655286 328.710945 
L 228.79305 339.614105 
L 211.75875 315.995625 
L 238.699523 327.049799 
L 227.131904 325.569868 
L 314.787059 394.682587 
L 312.310441 397.823663 
" clip-path="url(#p54d1b280b8)" style="fill: #ffffff; fill-opacity: 0.333333"/>
   </g>
   <g id="Quiver_30">
    <path d="M 211.792875 313.995916 
L 337.18237 316.135669 
L 327.2862 309.965918 
L 355.145625 318.4425 
L 327.013202 325.963589 
L 337.114121 320.135086 
L 211.724625 317.995334 
L 211.792875 313.995916 
" clip-path="url(#p54d1b280b8)" style="fill: #ffffff; fill-opacity: 0.25"/>
   </g>
   <g id="Quiver_31">
    <path d="M 126.013183 302.940984 
L 298.231411 386.589837 
L 291.857753 376.823749 
L 313.54875 396.253125 
L 284.86729 391.215879 
L 296.483795 390.18787 
L 124.265567 306.539016 
L 126.013183 302.940984 
" clip-path="url(#p54d1b280b8)" style="fill: #ffffff; fill-opacity: 0.25"/>
   </g>
   <g id="Quiver_32">
    <path d="M 127.029516 304.086267 
L 166.168419 417.248748 
L 168.570177 405.836843 
L 170.161875 434.91375 
L 153.449049 411.066707 
L 162.388137 418.556214 
L 123.249234 305.393733 
L 127.029516 304.086267 
" clip-path="url(#p54d1b280b8)" style="fill: #ffffff; fill-opacity: 0.25"/>
   </g>
   <g id="Quiver_33">
    <path d="M 90.654994 346.796804 
L 337.034976 318.508732 
L 326.415851 313.688547 
L 355.145625 318.4425 
L 328.240898 329.584118 
L 337.491238 322.482625 
L 91.111256 350.770696 
L 90.654994 346.796804 
" clip-path="url(#p54d1b280b8)" style="fill: #ffffff; fill-opacity: 0.25"/>
   </g>
   <g id="Quiver_34">
    <path d="M 311.579503 395.903743 
L 335.350686 261.920711 
L 327.696035 270.718797 
L 340.464375 244.546875 
L 343.450007 273.513856 
L 339.289179 262.619476 
L 315.517997 396.602507 
L 311.579503 395.903743 
" clip-path="url(#p54d1b280b8)" style="fill: #ffffff; fill-opacity: 0.25"/>
   </g>
   <g id="Quiver_35">
    <path d="M 213.646588 316.65598 
L 177.992906 418.583565 
L 186.958193 411.12544 
L 170.161875 434.91375 
L 171.855491 405.842602 
L 174.21723 417.262855 
L 209.870912 315.33527 
L 213.646588 316.65598 
" clip-path="url(#p54d1b280b8)" style="fill: #ffffff; fill-opacity: 0.25"/>
   </g>
   <g id="Quiver_36">
    <path d="M 92.354654 347.429275 
L 159.443126 420.315516 
L 157.085336 408.894447 
L 170.161875 434.91375 
L 145.313106 419.730249 
L 156.500069 423.024467 
L 89.411596 350.138225 
L 92.354654 347.429275 
" clip-path="url(#p54d1b280b8)" style="fill: #ffffff; fill-opacity: 0.25"/>
   </g>
   <g id="Quiver_37">
    <path d="M 89.304421 347.555869 
L 112.50974 317.720459 
L 101.63422 321.930337 
L 125.139375 304.74 
L 114.263856 331.753387 
L 115.667148 320.176221 
L 92.461829 350.011631 
L 89.304421 347.555869 
" clip-path="url(#p54d1b280b8)" style="fill: #ffffff; fill-opacity: 0.25"/>
   </g>
   <g id="Quiver_38">
    <path d="M 158.906199 278.203844 
L 104.575166 336.929299 
L 115.770482 333.663582 
L 90.883125 348.78375 
L 104.025886 322.797834 
L 101.639017 334.212862 
L 155.970051 275.487406 
L 158.906199 278.203844 
" clip-path="url(#p54d1b280b8)" style="fill: #ffffff; fill-opacity: 0.25"/>
   </g>
   <g id="Quiver_39">
    <path d="M 156.944766 274.907431 
L 220.247892 258.793908 
L 209.076845 255.446117 
L 238.185 256.291875 
L 213.023713 270.951672 
L 221.234609 262.670296 
L 157.931484 278.783819 
L 156.944766 274.907431 
" clip-path="url(#p54d1b280b8)" style="fill: #ffffff; fill-opacity: 0.25"/>
   </g>
   <g id="Quiver_40">
    <path d="M 157.090554 274.876058 
L 322.3907 245.705444 
L 311.500153 241.534596 
L 340.464375 244.546875 
L 314.280718 257.291133 
L 323.085842 249.644578 
L 157.785696 278.815192 
L 157.090554 274.876058 
" clip-path="url(#p54d1b280b8)" style="fill: #ffffff; fill-opacity: 0.25"/>
   </g>
   <g id="Quiver_41">
    <path d="M 158.65321 275.257051 
L 300.466666 383.728785 
L 296.16905 372.887637 
L 313.54875 396.253125 
L 286.44837 385.596232 
L 298.036496 386.905934 
L 156.22304 278.434199 
L 158.65321 275.257051 
" clip-path="url(#p54d1b280b8)" style="fill: #ffffff; fill-opacity: 0.25"/>
   </g>
   <g id="Quiver_42">
    <path d="M 126.718079 305.967881 
L 103.51276 335.803291 
L 114.38828 331.593413 
L 90.883125 348.78375 
L 101.758644 321.770363 
L 100.355352 333.347529 
L 123.560671 303.512119 
L 126.718079 305.967881 
" clip-path="url(#p54d1b280b8)" style="fill: #ffffff; fill-opacity: 0.25"/>
   </g>
   <g id="Quiver_43">
    <path d="M 210.993269 317.843337 
L 124.853927 282.157038 
L 131.796044 291.527577 
L 108.99 273.42 
L 137.91989 276.745881 
L 126.384888 278.461614 
L 212.524231 314.147913 
L 210.993269 317.843337 
" clip-path="url(#p54d1b280b8)" style="fill: #ffffff; fill-opacity: 0.25"/>
   </g>
   <g id="Quiver_44">
    <path d="M 238.447852 258.274527 
L 127.09672 273.036988 
L 137.798535 277.670686 
L 108.99 273.42 
L 135.695722 261.80947 
L 126.571017 269.071684 
L 237.922148 254.309223 
L 238.447852 258.274527 
" clip-path="url(#p54d1b280b8)" style="fill: #ffffff; fill-opacity: 0.166667"/>
   </g>
   <g id="Quiver_45">
    <path d="M 240.054057 257.003653 
L 178.436931 418.804019 
L 187.602989 411.594069 
L 170.161875 434.91375 
L 172.650537 405.899847 
L 174.698818 417.380463 
L 236.315943 255.580097 
L 240.054057 257.003653 
" clip-path="url(#p54d1b280b8)" style="fill: #ffffff; fill-opacity: 0.166667"/>
   </g>
   <g id="Quiver_46">
    <path d="M 237.956834 254.304933 
L 322.353727 244.613423 
L 311.734518 239.793424 
L 340.464375 244.546875 
L 313.559843 255.688964 
L 322.810058 248.587308 
L 238.413166 258.278817 
L 237.956834 254.304933 
" clip-path="url(#p54d1b280b8)" style="fill: #ffffff; fill-opacity: 0.166667"/>
   </g>
   <g id="Quiver_47">
    <path d="M 110.767606 272.503422 
L 118.667777 287.824965 
L 119.417705 276.187198 
L 125.139375 304.74 
L 105.196854 283.519824 
L 115.112564 289.658121 
L 107.212394 274.336578 
L 110.767606 272.503422 
" clip-path="url(#p54d1b280b8)" style="fill: #ffffff; fill-opacity: 0.166667"/>
   </g>
   <g id="Quiver_48">
    <path d="M 157.297063 278.840644 
L 126.804111 276.684577 
L 136.356021 283.374944 
L 108.99 273.42 
L 137.484516 267.414791 
L 127.086235 272.694538 
L 157.579187 274.850606 
L 157.297063 278.840644 
" clip-path="url(#p54d1b280b8)" style="fill: #ffffff; fill-opacity: 0.166667"/>
   </g>
   <g id="Quiver_49">
    <path d="M 354.207134 320.208636 
L 253.141731 266.504426 
L 259.156938 276.495286 
L 238.185 256.291875 
L 266.664863 262.3662 
L 255.018712 262.972154 
L 356.084116 316.676364 
L 354.207134 320.208636 
" clip-path="url(#p54d1b280b8)" style="fill: #ffffff; fill-opacity: 0.166667"/>
   </g>
   <g id="Quiver_50">
    <path d="M 88.938465 348.316527 
L 102.840329 290.454716 
L 94.670231 298.776345 
L 108.99 273.42 
L 110.227511 302.514133 
L 106.729649 291.389163 
L 92.827785 349.250973 
L 88.938465 348.316527 
" clip-path="url(#p54d1b280b8)" style="fill: #ffffff; fill-opacity: 0.166667"/>
   </g>
   <g id="Quiver_51">
    <path d="M 315.300144 397.218847 
L 237.372267 538.545676 
L 247.455059 532.685871 
L 226.929375 553.3425 
L 233.443906 524.960096 
L 233.869479 536.614232 
L 311.797356 395.287403 
L 315.300144 397.218847 
" clip-path="url(#p54d1b280b8)" style="fill: #ffffff; fill-opacity: 0.166667"/>
   </g>
   <g id="Quiver_52">
    <path d="M 212.282339 317.925872 
L 108.778939 346.001693 
L 120.000943 349.174488 
L 90.883125 348.78375 
L 115.812228 333.732511 
L 107.73176 342.141199 
L 211.235161 314.065378 
L 212.282339 317.925872 
" clip-path="url(#p54d1b280b8)" style="fill: #ffffff; fill-opacity: 0.166667"/>
   </g>
   <g id="Quiver_53">
    <path d="M 341.002823 246.47303 
L 143.01322 301.820124 
L 154.259339 304.90635 
L 125.139375 304.74 
L 149.951756 289.497108 
L 141.936324 297.967813 
L 339.925927 242.62072 
L 341.002823 246.47303 
" clip-path="url(#p54d1b280b8)" style="fill: #ffffff; fill-opacity: 0.166667"/>
   </g>
   <g id="Quiver_54">
    <path d="M 355.026687 320.43896 
L 142.98858 307.806903 
L 152.614067 314.390974 
L 125.139375 304.74 
L 153.565571 298.419292 
L 143.226456 303.813982 
L 355.264563 316.44604 
L 355.026687 320.43896 
" clip-path="url(#p54d1b280b8)" style="fill: #ffffff; fill-opacity: 0.166667"/>
   </g>
   <g id="Quiver_55">
    <path d="M 356.901137 319.400717 
L 237.308837 538.501113 
L 247.366455 532.598205 
L 226.929375 553.3425 
L 233.322363 524.932472 
L 233.797814 536.58468 
L 353.390113 317.484283 
L 356.901137 319.400717 
" clip-path="url(#p54d1b280b8)" style="fill: #ffffff; fill-opacity: 0.166667"/>
   </g>
   <g id="Quiver_56">
    <path d="M 126.990237 303.982167 
L 221.959739 535.926912 
L 223.723158 524.399104 
L 226.929375 553.3425 
L 208.916264 530.461769 
L 218.258015 537.442578 
L 123.288513 305.497833 
L 126.990237 303.982167 
" clip-path="url(#p54d1b280b8)" style="fill: #ffffff; fill-opacity: 0.166667"/>
   </g>
   <g id="Quiver_57">
    <path d="M 109.755481 271.572288 
L 195.894823 307.258587 
L 188.952706 297.888048 
L 211.75875 315.995625 
L 182.82886 312.669744 
L 194.363862 310.954011 
L 108.224519 275.267712 
L 109.755481 271.572288 
" clip-path="url(#p54d1b280b8)" style="fill: #ffffff; fill-opacity: 0.166667"/>
   </g>
   <g id="Quiver_58">
    <path d="M 110.93466 273.887223 
L 97.032796 331.749034 
L 105.202894 323.427405 
L 90.883125 348.78375 
L 89.645614 319.689617 
L 93.143476 330.814587 
L 107.04534 272.952777 
L 110.93466 273.887223 
" clip-path="url(#p54d1b280b8)" style="fill: #ffffff; fill-opacity: 0.166667"/>
   </g>
   <g id="Quiver_59">
    <path d="M 110.860319 272.711546 
L 165.656107 417.372426 
L 167.724793 405.895469 
L 170.161875 434.91375 
L 152.762242 411.563102 
L 161.915469 418.789334 
L 107.119681 274.128454 
L 110.860319 272.711546 
" clip-path="url(#p54d1b280b8)" style="fill: #ffffff; fill-opacity: 0.166667"/>
   </g>
   <g id="Quiver_60">
    <path d="M 125.258313 302.74354 
L 337.29642 315.375597 
L 327.670933 308.791526 
L 355.145625 318.4425 
L 326.719429 324.763208 
L 337.058544 319.368518 
L 125.020437 306.73646 
L 125.258313 302.74354 
" clip-path="url(#p54d1b280b8)" style="fill: #ffffff; fill-opacity: 0.166667"/>
   </g>
   <g id="PathCollection_1">
    <path d="M 157.438125 293.727568 
C 161.915269 293.727568 166.209643 291.94878 169.375461 288.782961 
C 172.54128 285.617143 174.320068 281.322769 174.320068 276.845625 
C 174.320068 272.368481 172.54128 268.074107 169.375461 264.908289 
C 166.209643 261.74247 161.915269 259.963682 157.438125 259.963682 
C 152.960981 259.963682 148.666607 261.74247 145.500789 264.908289 
C 142.33497 268.074107 140.556182 272.368481 140.556182 276.845625 
C 140.556182 281.322769 142.33497 285.617143 145.500789 288.782961 
C 148.666607 291.94878 152.960981 293.727568 157.438125 293.727568 
z
" clip-path="url(#p54d1b280b8)" style="fill: #ff0000; stroke: #000000"/>
    <path d="M 238.185 264.037842 
C 240.239254 264.037842 242.209648 263.221678 243.662226 261.769101 
C 245.114803 260.316523 245.930967 258.346129 245.930967 256.291875 
C 245.930967 254.237621 245.114803 252.267227 243.662226 250.814649 
C 242.209648 249.362072 240.239254 248.545908 238.185 248.545908 
C 236.130746 248.545908 234.160352 249.362072 232.707774 250.814649 
C 231.255197 252.267227 230.439033 254.237621 230.439033 256.291875 
C 230.439033 258.346129 231.255197 260.316523 232.707774 261.769101 
C 234.160352 263.221678 236.130746 264.037842 238.185 264.037842 
z
" clip-path="url(#p54d1b280b8)" style="fill: #ff0000; stroke: #000000"/>
    <path d="M 226.929375 566.380905 
C 230.3872 566.380905 233.703868 565.007096 236.148919 562.562044 
C 238.593971 560.116993 239.96778 556.800325 239.96778 553.3425 
C 239.96778 549.884675 238.593971 546.568007 236.148919 544.122956 
C 233.703868 541.677904 230.3872 540.304095 226.929375 540.304095 
C 223.47155 540.304095 220.154882 541.677904 217.709831 544.122956 
C 215.264779 546.568007 213.89097 549.884675 213.89097 553.3425 
C 213.89097 556.800325 215.264779 560.116993 217.709831 562.562044 
C 220.154882 565.007096 223.47155 566.380905 226.929375 566.380905 
z
" clip-path="url(#p54d1b280b8)" style="fill: #ff0000; stroke: #000000"/>
    <path d="M 355.145625 330.27466 
C 358.28355 330.27466 361.293377 329.027949 363.512225 326.8091 
C 365.731074 324.590252 366.977785 321.580425 366.977785 318.4425 
C 366.977785 315.304575 365.731074 312.294748 363.512225 310.0759 
C 361.293377 307.857051 358.28355 306.61034 355.145625 306.61034 
C 352.0077 306.61034 348.997873 307.857051 346.779025 310.0759 
C 344.560176 312.294748 343.313465 315.304575 343.313465 318.4425 
C 343.313465 321.580425 344.560176 324.590252 346.779025 326.8091 
C 348.997873 329.027949 352.0077 330.27466 355.145625 330.27466 
z
" clip-path="url(#p54d1b280b8)" style="fill: #ff0000; stroke: #000000"/>
    <path d="M 108.99 283.666951 
C 111.707523 283.666951 114.314109 282.587267 116.235688 280.665688 
C 118.157267 278.744109 119.236951 276.137523 119.236951 273.42 
C 119.236951 270.702477 118.157267 268.095891 116.235688 266.174312 
C 114.314109 264.252733 111.707523 263.173049 108.99 263.173049 
C 106.272477 263.173049 103.665891 264.252733 101.744312 266.174312 
C 99.822733 268.095891 98.743049 270.702477 98.743049 273.42 
C 98.743049 276.137523 99.822733 278.744109 101.744312 280.665688 
C 103.665891 282.587267 106.272477 283.666951 108.99 283.666951 
z
" clip-path="url(#p54d1b280b8)" style="fill: #ff0000; stroke: #000000"/>
    <path d="M 125.139375 317.968757 
C 128.647682 317.968757 132.012771 316.574891 134.493518 314.094143 
C 136.974266 311.613396 138.368132 308.248307 138.368132 304.74 
C 138.368132 301.231693 136.974266 297.866604 134.493518 295.385857 
C 132.012771 292.905109 128.647682 291.511243 125.139375 291.511243 
C 121.631068 291.511243 118.265979 292.905109 115.785232 295.385857 
C 113.304484 297.866604 111.910618 301.231693 111.910618 304.74 
C 111.910618 308.248307 113.304484 311.613396 115.785232 314.094143 
C 118.265979 316.574891 121.631068 317.968757 125.139375 317.968757 
z
" clip-path="url(#p54d1b280b8)" style="fill: #ff0000; stroke: #000000"/>
    <path d="M 90.883125 361.822155 
C 94.34095 361.822155 97.657618 360.448346 100.102669 358.003294 
C 102.547721 355.558243 103.92153 352.241575 103.92153 348.78375 
C 103.92153 345.325925 102.547721 342.009257 100.102669 339.564206 
C 97.657618 337.119154 94.34095 335.745345 90.883125 335.745345 
C 87.4253 335.745345 84.108632 337.119154 81.663581 339.564206 
C 79.218529 342.009257 77.84472 345.325925 77.84472 348.78375 
C 77.84472 352.241575 79.218529 355.558243 81.663581 358.003294 
C 84.108632 360.448346 87.4253 361.822155 90.883125 361.822155 
z
" clip-path="url(#p54d1b280b8)" style="fill: #ff0000; stroke: #000000"/>
    <path d="M 340.464375 256.58847 
C 343.657843 256.58847 346.720945 255.319691 348.979068 253.061568 
C 351.237191 250.803445 352.50597 247.740343 352.50597 244.546875 
C 352.50597 241.353407 351.237191 238.290305 348.979068 236.032182 
C 346.720945 233.774059 343.657843 232.50528 340.464375 232.50528 
C 337.270907 232.50528 334.207805 233.774059 331.949682 236.032182 
C 329.691559 238.290305 328.42278 241.353407 328.42278 244.546875 
C 328.42278 247.740343 329.691559 250.803445 331.949682 253.061568 
C 334.207805 255.319691 337.270907 256.58847 340.464375 256.58847 
z
" clip-path="url(#p54d1b280b8)" style="fill: #ff0000; stroke: #000000"/>
    <path d="M 170.161875 452.234258 
C 174.755327 452.234258 179.161262 450.40926 182.409324 447.161199 
C 185.657385 443.913137 187.482383 439.507202 187.482383 434.91375 
C 187.482383 430.320298 185.657385 425.914363 182.409324 422.666301 
C 179.161262 419.41824 174.755327 417.593242 170.161875 417.593242 
C 165.568423 417.593242 161.162488 419.41824 157.914426 422.666301 
C 154.666365 425.914363 152.841367 430.320298 152.841367 434.91375 
C 152.841367 439.507202 154.666365 443.913137 157.914426 447.161199 
C 161.162488 450.40926 165.568423 452.234258 170.161875 452.234258 
z
" clip-path="url(#p54d1b280b8)" style="fill: #ff0000; stroke: #000000"/>
    <path d="M 313.54875 412.064513 
C 317.741979 412.064513 321.764029 410.398526 324.72909 407.433465 
C 327.694151 404.468404 329.360138 400.446354 329.360138 396.253125 
C 329.360138 392.059896 327.694151 388.037846 324.72909 385.072785 
C 321.764029 382.107724 317.741979 380.441737 313.54875 380.441737 
C 309.355521 380.441737 305.333471 382.107724 302.36841 385.072785 
C 299.403349 388.037846 297.737362 392.059896 297.737362 396.253125 
C 297.737362 400.446354 299.403349 404.468404 302.36841 407.433465 
C 305.333471 410.398526 309.355521 412.064513 313.54875 412.064513 
z
" clip-path="url(#p54d1b280b8)" style="fill: #ff0000; stroke: #000000"/>
    <path d="M 211.75875 330.995625 
C 215.736796 330.995625 219.552448 329.41513 222.365352 326.602227 
C 225.178255 323.789323 226.75875 319.973671 226.75875 315.995625 
C 226.75875 312.017578 225.178255 308.201927 222.365352 305.389023 
C 219.552448 302.57612 215.736796 300.995625 211.75875 300.995625 
C 207.780703 300.995625 203.965052 302.57612 201.152148 305.389023 
C 198.339245 308.201927 196.75875 312.017578 196.75875 315.995625 
C 196.75875 319.973671 198.339245 323.789323 201.152148 326.602227 
C 203.965052 329.41513 207.780703 330.995625 211.75875 330.995625 
z
" clip-path="url(#p54d1b280b8)" style="fill: #ff0000; stroke: #000000"/>
   </g>
   <g id="matplotlib.axis_1"/>
   <g id="matplotlib.axis_2"/>
   <g id="text_1">
    <!-- 8 -->
    <g style="fill: #ffffff" transform="translate(152.158125 282.581625) scale(0.16 -0.16)">
     <defs>
      <path id="Montserrat-Bold-84d" d="M 2106 -77 
Q 1542 -77 1116 92 
Q 691 262 457 569 
Q 224 877 224 1299 
Q 224 1658 403 1926 
Q 582 2195 902 2355 
Q 653 2515 518 2745 
Q 384 2976 384 3277 
Q 384 3674 601 3958 
Q 819 4243 1206 4400 
Q 1594 4557 2106 4557 
Q 2624 4557 3011 4400 
Q 3398 4243 3619 3958 
Q 3840 3674 3840 3277 
Q 3840 2976 3702 2742 
Q 3565 2509 3315 2355 
Q 3642 2195 3821 1926 
Q 4000 1658 4000 1299 
Q 4000 877 3763 569 
Q 3526 262 3100 92 
Q 2675 -77 2106 -77 
z
M 2106 685 
Q 2496 685 2723 857 
Q 2950 1030 2950 1331 
Q 2950 1632 2723 1801 
Q 2496 1971 2106 1971 
Q 1722 1971 1498 1801 
Q 1274 1632 1274 1331 
Q 1274 1030 1498 857 
Q 1722 685 2106 685 
z
M 2106 2682 
Q 2432 2682 2621 2829 
Q 2810 2976 2810 3232 
Q 2810 3501 2614 3648 
Q 2419 3795 2106 3795 
Q 1792 3795 1603 3648 
Q 1414 3501 1414 3232 
Q 1414 2976 1603 2829 
Q 1792 2682 2106 2682 
z
" transform="scale(0.015625)"/>
     </defs>
     <use xlink:href="#Montserrat-Bold-84d"/>
    </g>
   </g>
   <g id="text_2">
    <!-- 7 -->
    <g style="fill: #ffffff" transform="translate(233.225 262.027875) scale(0.16 -0.16)">
     <defs>
      <path id="Montserrat-Bold-84c" d="M 966 0 
L 2573 3635 
L 1088 3635 
L 1088 2906 
L 166 2906 
L 166 4480 
L 3757 4480 
L 3757 3808 
L 2093 0 
L 966 0 
z
" transform="scale(0.015625)"/>
     </defs>
     <use xlink:href="#Montserrat-Bold-84c"/>
    </g>
   </g>
   <g id="text_3">
    <!-- 1 -->
    <g style="fill: #ffffff" transform="translate(223.793125 559.0785) scale(0.16 -0.16)">
     <defs>
      <path id="Montserrat-Bold-846" d="M 941 0 
L 941 3648 
L 45 3648 
L 45 4480 
L 1978 4480 
L 1978 0 
L 941 0 
z
" transform="scale(0.015625)"/>
     </defs>
     <use xlink:href="#Montserrat-Bold-846"/>
    </g>
   </g>
   <g id="text_4">
    <!-- 20 -->
    <g style="fill: #ffffff" transform="translate(344.993125 324.1785) scale(0.16 -0.16)">
     <defs>
      <path id="Montserrat-Bold-847" d="M 211 0 
L 211 672 
L 1939 2304 
Q 2240 2586 2323 2778 
Q 2406 2970 2406 3130 
Q 2406 3392 2224 3539 
Q 2042 3686 1690 3686 
Q 1402 3686 1162 3577 
Q 922 3469 762 3238 
L 6 3725 
Q 269 4109 723 4333 
Q 1178 4557 1786 4557 
Q 2285 4557 2659 4393 
Q 3034 4230 3242 3936 
Q 3450 3642 3450 3232 
Q 3450 3014 3392 2800 
Q 3334 2586 3174 2346 
Q 3014 2106 2701 1818 
L 1670 845 
L 3597 845 
L 3597 0 
L 211 0 
z
" transform="scale(0.015625)"/>
      <path id="Montserrat-Bold-845" d="M 2170 -77 
Q 1619 -77 1187 195 
Q 755 467 502 985 
Q 250 1504 250 2240 
Q 250 2976 502 3494 
Q 755 4013 1187 4285 
Q 1619 4557 2170 4557 
Q 2726 4557 3158 4285 
Q 3590 4013 3840 3494 
Q 4090 2976 4090 2240 
Q 4090 1504 3840 985 
Q 3590 467 3158 195 
Q 2726 -77 2170 -77 
z
M 2170 800 
Q 2560 800 2803 1139 
Q 3046 1478 3046 2240 
Q 3046 3002 2803 3341 
Q 2560 3680 2170 3680 
Q 1786 3680 1542 3341 
Q 1299 3002 1299 2240 
Q 1299 1478 1542 1139 
Q 1786 800 2170 800 
z
" transform="scale(0.015625)"/>
     </defs>
     <use xlink:href="#Montserrat-Bold-847"/>
     <use xlink:href="#Montserrat-Bold-845" transform="translate(59 0)"/>
    </g>
   </g>
   <g id="text_5">
    <!-- 11 -->
    <g style="fill: #ffffff" transform="translate(102.7175 279.156) scale(0.16 -0.16)">
     <use xlink:href="#Montserrat-Bold-846"/>
     <use xlink:href="#Montserrat-Bold-846" transform="translate(39.203125 0)"/>
    </g>
   </g>
   <g id="text_6">
    <!-- 15 -->
    <g style="fill: #ffffff" transform="translate(117.243125 310.476) scale(0.16 -0.16)">
     <defs>
      <path id="Montserrat-Bold-84a" d="M 1773 -77 
Q 1306 -77 848 48 
Q 390 173 64 403 
L 474 1197 
Q 730 1005 1066 899 
Q 1402 794 1747 794 
Q 2138 794 2362 947 
Q 2586 1101 2586 1376 
Q 2586 1549 2496 1680 
Q 2406 1811 2176 1884 
Q 1946 1958 1542 1958 
L 397 1958 
L 627 4480 
L 3360 4480 
L 3360 3648 
L 1491 3648 
L 1421 2797 
L 1786 2797 
Q 2445 2797 2854 2614 
Q 3264 2432 3449 2118 
Q 3635 1805 3635 1408 
Q 3635 1011 3436 672 
Q 3238 333 2825 128 
Q 2413 -77 1773 -77 
z
" transform="scale(0.015625)"/>
     </defs>
     <use xlink:href="#Montserrat-Bold-846"/>
     <use xlink:href="#Montserrat-Bold-84a" transform="translate(39.203125 0)"/>
    </g>
   </g>
   <g id="text_7">
    <!-- 25 -->
    <g style="fill: #ffffff" transform="translate(81.403125 354.51975) scale(0.16 -0.16)">
     <use xlink:href="#Montserrat-Bold-847"/>
     <use xlink:href="#Montserrat-Bold-84a" transform="translate(59 0)"/>
    </g>
   </g>
   <g id="text_8">
    <!-- 18 -->
    <g style="fill: #ffffff" transform="translate(332.048125 250.282875) scale(0.16 -0.16)">
     <use xlink:href="#Montserrat-Bold-846"/>
     <use xlink:href="#Montserrat-Bold-84d" transform="translate(39.203125 0)"/>
    </g>
   </g>
   <g id="text_9">
    <!-- 13 -->
    <g style="fill: #ffffff" transform="translate(162.289375 440.64975) scale(0.16 -0.16)">
     <defs>
      <path id="Montserrat-Bold-848" d="M 1702 -77 
Q 1229 -77 774 48 
Q 320 173 -6 403 
L 397 1197 
Q 653 1005 989 899 
Q 1325 794 1677 794 
Q 2067 794 2291 944 
Q 2515 1094 2515 1370 
Q 2515 1619 2316 1769 
Q 2118 1920 1677 1920 
L 1203 1920 
L 1203 2605 
L 2118 3648 
L 218 3648 
L 218 4480 
L 3354 4480 
L 3354 3808 
L 2342 2662 
Q 2944 2560 3251 2214 
Q 3558 1869 3558 1370 
Q 3558 992 3360 662 
Q 3162 333 2749 128 
Q 2336 -77 1702 -77 
z
" transform="scale(0.015625)"/>
     </defs>
     <use xlink:href="#Montserrat-Bold-846"/>
     <use xlink:href="#Montserrat-Bold-848" transform="translate(39.203125 0)"/>
    </g>
   </g>
   <g id="text_10">
    <!-- 3 -->
    <g style="fill: #ffffff" transform="translate(308.8125 401.989125) scale(0.16 -0.16)">
     <use xlink:href="#Montserrat-Bold-848"/>
    </g>
   </g>
   <g id="text_11">
    <!-- 23 -->
    <g style="fill: #ffffff" transform="translate(202.3025 321.731625) scale(0.16 -0.16)">
     <use xlink:href="#Montserrat-Bold-847"/>
     <use xlink:href="#Montserrat-Bold-848" transform="translate(59 0)"/>
    </g>
   </g>
  </g>
 </g>
 <defs>
  <clipPath id="p54d1b280b8">
   <rect x="7.2" y="7.2" width="430.65" height="626.4"/>
  </clipPath>
 </defs>
</svg>
