<?xml version="1.0" encoding="utf-8" standalone="no"?>
<!DOCTYPE svg PUBLIC "-//W3C//DTD SVG 1.1//EN"
  "http://www.w3.org/Graphics/SVG/1.1/DTD/svg11.dtd">
<svg xmlns:xlink="http://www.w3.org/1999/xlink" width="445.05pt" height="640.8pt" viewBox="0 0 445.05 640.8" xmlns="http://www.w3.org/2000/svg" version="1.1">
 <metadata>
  <rdf:RDF xmlns:dc="http://purl.org/dc/elements/1.1/" xmlns:cc="http://creativecommons.org/ns#" xmlns:rdf="http://www.w3.org/1999/02/22-rdf-syntax-ns#">
   <cc:Work>
    <dc:type rdf:resource="http://purl.org/dc/dcmitype/StillImage"/>
    <dc:date>2026-06-24T21:23:49.338605</dc:date>
    <dc:format>image/svg+xml</dc:format>
    <dc:creator>
     <cc:Agent>
      <dc:title>Matplotlib v3.9.0, https://matplotlib.org/</dc:title>
     </cc:Agent>
    </dc:creator>
   </cc:Work>
  </rdf:RDF>
 </metadata>
 <defs>
  <style type="text/css">*{stroke-linejoin: round; stroke-linecap: butt}</style>
 </defs>
 <g id="figure_1">
  <g id="patch_1">
   <path d="M 0 640.8 
L 445.05 640.8 
L 445.05 0 
L 0 0 
z
" style="fill: #1e2836"/>
  </g>
  <g id="axes_1">
   <g id="patch_2">
    <path d="M 7.2 633.6 
L 437.85 633.6 
L 437.85 7.2 
L 7.2 7.2 
z
" style="fill: #1e2836"/>
   </g>
   <g id="line2d_1">
    <path d="M 418.275 320.4 
L 26.775 320.4 
L 26.775 26.775 
L 418.275 26.775 
L 418.275 614.025 
L 26.775 614.025 
L 26.775 320.4 
" clip-path="url(#pd138eaf422)" style="fill: none; stroke: #c7d5cc; stroke-width: 2; stroke-linecap: square"/>
   </g>
   <g id="line2d_2">
    <path d="M 330.1875 26.775 
L 330.1875 114.8625 
L 114.8625 114.8625 
L 114.8625 26.775 
" clip-path="url(#pd138eaf422)" style="fill: none; stroke: #c7d5cc; stroke-width: 2; stroke-linecap: square"/>
   </g>
   <g id="line2d_3">
    <path d="M 330.1875 614.025 
L 330.1875 525.9375 
L 114.8625 525.9375 
L 114.8625 614.025 
" clip-path="url(#pd138eaf422)" style="fill: none; stroke: #c7d5cc; stroke-width: 2; stroke-linecap: square"/>
   </g>
   <g id="line2d_4">
    <path d="M 271.4625 26.775 
L 271.4625 56.1375 
L 173.5875 56.1375 
L 173.5875 26.775 
" clip-path="url(#pd138eaf422)" style="fill: none; stroke: #c7d5cc; stroke-width: 2; stroke-linecap: square"/>
   </g>
   <g id="line2d_5">
    <path d="M 271.4625 614.025 
L 271.4625 584.6625 
L 173.5875 584.6625 
L 173.5875 614.025 
" clip-path="url(#pd138eaf422)" style="fill: none; stroke: #c7d5cc; stroke-width: 2; stroke-linecap: square"/>
   </g>
   <g id="patch_3">
    <path d="M 222.525 369.3375 
C 235.503377 369.3375 247.95194 364.181136 257.129038 355.004038 
C 266.306136 345.82694 271.4625 333.378377 271.4625 320.4 
C 271.4625 307.421623 266.306136 294.97306 257.129038 285.795962 
C 247.95194 276.618864 235.503377 271.4625 222.525 271.4625 
C 209.546623 271.4625 197.09806 276.618864 187.920962 285.795962 
C 178.743864 294.97306 173.5875 307.421623 173.5875 320.4 
C 173.5875 333.378377 178.743864 345.82694 187.920962 355.004038 
C 197.09806 364.181136 209.546623 369.3375 222.525 369.3375 
L 222.525 369.3375 
z
" clip-path="url(#pd138eaf422)" style="fill: none; stroke: #c7d5cc; stroke-width: 2; stroke-linejoin: miter"/>
   </g>
   <g id="patch_4">
    <path d="M 261.633912 525.882795 
C 257.074189 519.820839 251.166876 514.901235 244.379913 511.513682 
C 237.59295 508.126128 230.110406 506.3625 222.525 506.3625 
C 214.939594 506.3625 207.45705 508.126128 200.670087 511.513682 
C 193.883124 514.901235 187.975811 519.820839 183.416088 525.882795 
" clip-path="url(#pd138eaf422)" style="fill: none; stroke: #c7d5cc; stroke-width: 2; stroke-linejoin: miter"/>
   </g>
   <g id="patch_5">
    <path d="M 183.416088 114.917205 
C 187.975811 120.979161 193.883124 125.898765 200.670087 129.286318 
C 207.45705 132.673872 214.939594 134.4375 222.525 134.4375 
C 230.110406 134.4375 237.59295 132.673872 244.379913 129.286318 
C 251.166876 125.898765 257.074189 120.979161 261.633912 114.917205 
" clip-path="url(#pd138eaf422)" style="fill: none; stroke: #c7d5cc; stroke-width: 2; stroke-linejoin: miter"/>
   </g>
   <g id="patch_6">
    <path d="M 222.525 321.5745 
C 222.836481 321.5745 223.135247 321.450747 223.355497 321.230497 
C 223.575747 321.010247 223.6995 320.711481 223.6995 320.4 
C 223.6995 320.088519 223.575747 319.789753 223.355497 319.569503 
C 223.135247 319.349253 222.836481 319.2255 222.525 319.2255 
C 222.213519 319.2255 221.914753 319.349253 221.694503 319.569503 
C 221.474253 319.789753 221.3505 320.088519 221.3505 320.4 
C 221.3505 320.711481 221.474253 321.010247 221.694503 321.230497 
C 221.914753 321.450747 222.213519 321.5745 222.525 321.5745 
z
" clip-path="url(#pd138eaf422)" style="fill: #c7d5cc; stroke: #c7d5cc; stroke-linejoin: miter"/>
   </g>
   <g id="patch_7">
    <path d="M 222.525 556.4745 
C 222.836481 556.4745 223.135247 556.350747 223.355497 556.130497 
C 223.575747 555.910247 223.6995 555.611481 223.6995 555.3 
C 223.6995 554.988519 223.575747 554.689753 223.355497 554.469503 
C 223.135247 554.249253 222.836481 554.1255 222.525 554.1255 
C 222.213519 554.1255 221.914753 554.249253 221.694503 554.469503 
C 221.474253 554.689753 221.3505 554.988519 221.3505 555.3 
C 221.3505 555.611481 221.474253 555.910247 221.694503 556.130497 
C 221.914753 556.350747 222.213519 556.4745 222.525 556.4745 
z
" clip-path="url(#pd138eaf422)" style="fill: #c7d5cc; stroke: #c7d5cc; stroke-linejoin: miter"/>
   </g>
   <g id="patch_8">
    <path d="M 222.525 86.6745 
C 222.836481 86.6745 223.135247 86.550747 223.355497 86.330497 
C 223.575747 86.110247 223.6995 85.811481 223.6995 85.5 
C 223.6995 85.188519 223.575747 84.889753 223.355497 84.669503 
C 223.135247 84.449253 222.836481 84.3255 222.525 84.3255 
C 222.213519 84.3255 221.914753 84.449253 221.694503 84.669503 
C 221.474253 84.889753 221.3505 85.188519 221.3505 85.5 
C 221.3505 85.811481 221.474253 86.110247 221.694503 86.330497 
C 221.914753 86.550747 222.213519 86.6745 222.525 86.6745 
z
" clip-path="url(#pd138eaf422)" style="fill: #c7d5cc; stroke: #c7d5cc; stroke-linejoin: miter"/>
   </g>
   <g id="line2d_6">
    <path d="M 202.95 26.775 
L 242.1 26.775 
" clip-path="url(#pd138eaf422)" style="fill: none; stroke: #c7d5cc; stroke-width: 4; stroke-linecap: square"/>
   </g>
   <g id="line2d_7">
    <path d="M 202.95 614.025 
L 242.1 614.025 
" clip-path="url(#pd138eaf422)" style="fill: none; stroke: #c7d5cc; stroke-width: 4; stroke-linecap: square"/>
   </g>
   <g id="Quiver_1">
    <path d="M 360.15111 379.94855 
L 247.176807 325.601063 
L 253.58726 335.343039 
L 231.823125 315.995625 
L 260.523383 320.924642 
L 248.910838 321.996464 
L 361.88514 376.34395 
L 360.15111 379.94855 
" clip-path="url(#pd138eaf422)" style="fill: #ffffff"/>
   </g>
   <g id="Quiver_2">
    <path d="M 277.595792 408.088934 
L 343.499946 382.741182 
L 332.012615 380.730899 
L 361.018125 378.14625 
L 337.756281 395.664429 
L 344.935862 386.474565 
L 279.031708 411.822316 
L 277.595792 408.088934 
" clip-path="url(#pd138eaf422)" style="fill: #ffffff; fill-opacity: 0.75"/>
   </g>
   <g id="Quiver_3">
    <path d="M 232.69014 314.193325 
L 345.664443 368.540812 
L 339.25399 358.798836 
L 361.018125 378.14625 
L 332.317867 373.217233 
L 343.930412 372.145411 
L 230.95611 317.797925 
L 232.69014 314.193325 
" clip-path="url(#pd138eaf422)" style="fill: #ffffff; fill-opacity: 0.541667"/>
   </g>
   <g id="Quiver_4">
    <path d="M 152.301176 392.310833 
L 260.696802 405.755252 
L 251.511371 398.569999 
L 278.31375 409.955625 
L 249.541965 414.448331 
L 260.20445 409.724835 
L 151.808824 396.280417 
L 152.301176 392.310833 
" clip-path="url(#pd138eaf422)" style="fill: #ffffff; fill-opacity: 0.5"/>
   </g>
   <g id="Quiver_5">
    <path d="M 233.224143 317.422912 
L 166.301602 383.11375 
L 177.641092 380.390521 
L 152.055 394.295625 
L 166.432947 368.972224 
L 163.499566 380.259176 
L 230.422107 314.568338 
L 233.224143 317.422912 
" clip-path="url(#pd138eaf422)" style="fill: #ffffff; fill-opacity: 0.5"/>
   </g>
   <g id="Quiver_6">
    <path d="M 232.129331 317.972045 
L 215.17149 320.599317 
L 225.972211 324.997548 
L 197.0775 321.37875 
L 223.522563 309.186184 
L 214.559078 316.646476 
L 231.516919 314.019205 
L 232.129331 317.972045 
" clip-path="url(#pd138eaf422)" style="fill: #ffffff; fill-opacity: 0.5"/>
   </g>
   <g id="Quiver_7">
    <path d="M 196.771294 319.40233 
L 213.729135 316.775058 
L 202.928414 312.376827 
L 231.823125 315.995625 
L 205.378062 328.188191 
L 214.341547 320.727899 
L 197.383706 323.35517 
L 196.771294 319.40233 
" clip-path="url(#pd138eaf422)" style="fill: #ffffff; fill-opacity: 0.416667"/>
   </g>
   <g id="Quiver_8">
    <path d="M 232.043988 317.983392 
L 104.58952 332.145 
L 115.190947 337.003987 
L 86.47875 332.145 
L 113.424042 321.101847 
L 104.147794 328.169465 
L 231.602262 314.007858 
L 232.043988 317.983392 
" clip-path="url(#pd138eaf422)" style="fill: #ffffff; fill-opacity: 0.375"/>
   </g>
   <g id="Quiver_9">
    <path d="M 278.067574 411.940417 
L 169.671948 398.495998 
L 178.857379 405.681251 
L 152.055 394.295625 
L 180.826785 389.802919 
L 170.1643 394.526415 
L 278.559926 407.970833 
L 278.067574 411.940417 
" clip-path="url(#pd138eaf422)" style="fill: #ffffff; fill-opacity: 0.375"/>
   </g>
   <g id="Quiver_10">
    <path d="M 87.85454 330.693379 
L 140.366204 380.461897 
L 137.23547 369.228086 
L 152.055 394.295625 
L 126.229152 380.841051 
L 137.614624 383.365138 
L 85.10296 333.596621 
L 87.85454 330.693379 
" clip-path="url(#pd138eaf422)" style="fill: #ffffff; fill-opacity: 0.333333"/>
   </g>
   <g id="Quiver_11">
    <path d="M 195.102503 321.694008 
L 181.301073 235.232104 
L 176.952371 246.052862 
L 180.43875 217.141875 
L 192.752345 243.5308 
L 185.251066 234.601589 
L 199.052497 321.063492 
L 195.102503 321.694008 
" clip-path="url(#pd138eaf422)" style="fill: #ffffff; fill-opacity: 0.333333"/>
   </g>
   <g id="Quiver_12">
    <path d="M 307.78267 306.932415 
L 351.493778 362.742133 
L 350.051363 351.169776 
L 361.018125 378.14625 
L 337.455001 361.035458 
L 348.344688 365.208554 
L 304.63358 309.398835 
L 307.78267 306.932415 
" clip-path="url(#pd138eaf422)" style="fill: #ffffff; fill-opacity: 0.333333"/>
   </g>
   <g id="Quiver_13">
    <path d="M 153.9224 393.579513 
L 211.096141 542.671036 
L 213.11778 531.185699 
L 215.67375 560.19375 
L 198.178579 536.914596 
L 207.36134 544.103261 
L 150.1876 395.011737 
L 153.9224 393.579513 
" clip-path="url(#pd138eaf422)" style="fill: #ffffff; fill-opacity: 0.333333"/>
   </g>
   <g id="Quiver_14">
    <path d="M 359.44358 379.37946 
L 315.732472 323.569742 
L 317.174887 335.142099 
L 306.208125 308.165625 
L 329.771249 325.276417 
L 318.881562 321.103321 
L 362.59267 376.91304 
L 359.44358 379.37946 
" clip-path="url(#pd138eaf422)" style="fill: #ffffff; fill-opacity: 0.333333"/>
   </g>
   <g id="Quiver_15">
    <path d="M 233.615698 315.108675 
L 272.12377 392.935515 
L 273.066739 381.311797 
L 278.31375 409.955625 
L 258.726152 388.4074 
L 268.538624 394.709415 
L 230.030552 316.882575 
L 233.615698 315.108675 
" clip-path="url(#pd138eaf422)" style="fill: #ffffff; fill-opacity: 0.333333"/>
   </g>
   <g id="Quiver_16">
    <path d="M 280.159726 410.725283 
L 224.446645 544.349625 
L 233.832861 537.428718 
L 215.67375 560.19375 
L 219.065054 531.271457 
L 220.754693 542.810309 
L 276.467774 409.185967 
L 280.159726 410.725283 
" clip-path="url(#pd138eaf422)" style="fill: #ffffff; fill-opacity: 0.333333"/>
   </g>
   <g id="Quiver_17">
    <path d="M 213.827774 559.424092 
L 269.540855 425.79975 
L 260.154639 432.720657 
L 278.31375 409.955625 
L 274.922446 438.877918 
L 273.232807 427.339066 
L 217.519726 560.963408 
L 213.827774 559.424092 
" clip-path="url(#pd138eaf422)" style="fill: #ffffff; fill-opacity: 0.291667"/>
   </g>
   <g id="Quiver_18">
    <path d="M 150.653982 392.868338 
L 217.576523 327.1775 
L 206.237033 329.900729 
L 231.823125 315.995625 
L 217.445178 341.319026 
L 220.378559 330.032074 
L 153.456018 395.722912 
L 150.653982 392.868338 
" clip-path="url(#pd138eaf422)" style="fill: #ffffff; fill-opacity: 0.291667"/>
   </g>
   <g id="Quiver_19">
    <path d="M 86.257887 330.157233 
L 213.712355 315.995625 
L 203.110928 311.136638 
L 231.823125 315.995625 
L 204.877833 327.038778 
L 214.154081 319.97116 
L 86.699613 334.132767 
L 86.257887 330.157233 
" clip-path="url(#pd138eaf422)" style="fill: #ffffff; fill-opacity: 0.291667"/>
   </g>
   <g id="Quiver_20">
    <path d="M 359.215393 379.012367 
L 324.924195 307.638827 
L 323.846585 319.250836 
L 318.931875 290.548125 
L 338.268438 312.321901 
L 328.529659 305.906593 
L 362.820857 377.280133 
L 359.215393 379.012367 
" clip-path="url(#pd138eaf422)" style="fill: #ffffff; fill-opacity: 0.291667"/>
   </g>
   <g id="Quiver_21">
    <path d="M 182.213327 216.219446 
L 225.295843 299.101999 
L 226.007431 287.461826 
L 231.823125 315.995625 
L 211.810811 294.841257 
L 221.746688 300.946857 
L 178.664173 218.064304 
L 182.213327 216.219446 
" clip-path="url(#pd138eaf422)" style="fill: #ffffff; fill-opacity: 0.291667"/>
   </g>
   <g id="Quiver_22">
    <path d="M 229.823817 315.943012 
L 231.797172 240.955532 
L 225.536182 250.794231 
L 234.27 223.014375 
L 241.530644 251.215138 
L 235.795788 241.060759 
L 233.822433 316.048238 
L 229.823817 315.943012 
" clip-path="url(#pd138eaf422)" style="fill: #ffffff; fill-opacity: 0.25"/>
   </g>
   <g id="Quiver_23">
    <path d="M 231.262297 314.075867 
L 301.093223 293.675821 
L 289.811947 290.720688 
L 318.931875 290.548125 
L 294.298573 306.078753 
L 302.214879 297.515337 
L 232.383953 317.915383 
L 231.262297 314.075867 
" clip-path="url(#pd138eaf422)" style="fill: #ffffff; fill-opacity: 0.25"/>
   </g>
   <g id="Quiver_24">
    <path d="M 320.734607 289.682008 
L 355.025805 361.055548 
L 356.103415 349.443539 
L 361.018125 378.14625 
L 341.681562 356.372474 
L 351.420341 362.787782 
L 317.129143 291.414242 
L 320.734607 289.682008 
" clip-path="url(#pd138eaf422)" style="fill: #ffffff; fill-opacity: 0.25"/>
   </g>
   <g id="Quiver_25">
    <path d="M 276.83978 411.307443 
L 207.769892 335.9963 
L 210.107071 347.421605 
L 197.0775 321.37875 
L 221.898832 336.607061 
L 210.717832 333.292664 
L 279.78772 408.603807 
L 276.83978 411.307443 
" clip-path="url(#pd138eaf422)" style="fill: #ffffff; fill-opacity: 0.25"/>
   </g>
   <g id="Quiver_26">
    <path d="M 198.55147 320.026932 
L 267.621358 395.338075 
L 265.284179 383.91277 
L 278.31375 409.955625 
L 253.492418 394.727314 
L 264.673418 398.041711 
L 195.60353 322.730568 
L 198.55147 320.026932 
" clip-path="url(#pd138eaf422)" style="fill: #ffffff; fill-opacity: 0.208333"/>
   </g>
   <g id="Quiver_27">
    <path d="M 276.384866 409.427037 
L 299.521945 324.996994 
L 291.09235 333.05565 
L 306.208125 308.165625 
L 306.523423 337.284358 
L 303.379713 326.054171 
L 280.242634 410.484213 
L 276.384866 409.427037 
" clip-path="url(#pd138eaf422)" style="fill: #ffffff; fill-opacity: 0.208333"/>
   </g>
   <g id="Quiver_28">
    <path d="M 181.987545 218.407274 
L 99.416132 319.471242 
L 110.389511 315.523462 
L 86.47875 332.145 
L 97.99915 305.400274 
L 96.318542 316.940445 
L 178.889955 215.876476 
L 181.987545 218.407274 
" clip-path="url(#pd138eaf422)" style="fill: #ffffff; fill-opacity: 0.208333"/>
   </g>
   <g id="Quiver_29">
    <path d="M 84.929955 330.879601 
L 167.501368 229.815633 
L 156.527989 233.763413 
L 180.43875 217.141875 
L 168.91835 243.886601 
L 170.598958 232.34643 
L 88.027545 333.410399 
L 84.929955 330.879601 
" clip-path="url(#pd138eaf422)" style="fill: #ffffff; fill-opacity: 0.208333"/>
   </g>
   <g id="Quiver_30">
    <path d="M 360.36371 380.036155 
L 213.432231 329.158389 
L 220.918511 338.100179 
L 197.0775 321.37875 
L 226.15383 322.980938 
L 214.74106 325.378579 
L 361.67254 376.256345 
L 360.36371 380.036155 
" clip-path="url(#pd138eaf422)" style="fill: #ffffff; fill-opacity: 0.208333"/>
   </g>
   <g id="Quiver_31">
    <path d="M 86.284976 330.154409 
L 178.968409 321.132128 
L 168.434132 316.129228 
L 197.0775 321.37875 
L 169.984327 332.053953 
L 179.355958 325.11331 
L 86.672524 334.135591 
L 86.284976 330.154409 
" clip-path="url(#pd138eaf422)" style="fill: #ffffff; fill-opacity: 0.208333"/>
   </g>
   <g id="Quiver_32">
    <path d="M 361.736083 380.012941 
L 295.831929 405.360693 
L 307.31926 407.370976 
L 278.31375 409.955625 
L 301.575594 392.437446 
L 294.396013 401.62731 
L 360.300167 376.279559 
L 361.736083 380.012941 
" clip-path="url(#pd138eaf422)" style="fill: #ffffff; fill-opacity: 0.208333"/>
   </g>
   <g id="Quiver_33">
    <path d="M 231.613755 314.006614 
L 288.097657 308.06094 
L 277.524494 303.140755 
L 306.208125 308.165625 
L 279.199451 319.052843 
L 288.516396 312.038962 
L 232.032495 317.984636 
L 231.613755 314.006614 
" clip-path="url(#pd138eaf422)" style="fill: #ffffff; fill-opacity: 0.208333"/>
   </g>
   <g id="Quiver_34">
    <path d="M 213.933599 561.179587 
L 93.611129 348.792197 
L 93.319859 360.450463 
L 86.47875 332.145 
L 107.241068 352.563769 
L 97.091431 346.820524 
L 217.413901 559.207913 
L 213.933599 561.179587 
" clip-path="url(#pd138eaf422)" style="fill: #ffffff; fill-opacity: 0.208333"/>
   </g>
   <g id="Quiver_35">
    <path d="M 150.353254 393.244882 
L 185.91907 335.643723 
L 175.560119 341.000226 
L 197.0775 321.37875 
L 189.174088 349.406167 
L 189.322563 337.745208 
L 153.756746 395.346368 
L 150.353254 393.244882 
" clip-path="url(#pd138eaf422)" style="fill: #ffffff; fill-opacity: 0.166667"/>
   </g>
   <g id="Quiver_36">
    <path d="M 306.417495 310.154636 
L 249.933593 316.10031 
L 260.506756 321.020495 
L 231.823125 315.995625 
L 258.831799 305.108407 
L 249.514854 312.122288 
L 305.998755 306.176614 
L 306.417495 310.154636 
" clip-path="url(#pd138eaf422)" style="fill: #ffffff; fill-opacity: 0.166667"/>
   </g>
   <g id="Quiver_37">
    <path d="M 197.731915 319.488845 
L 344.663394 370.366611 
L 337.177114 361.424821 
L 361.018125 378.14625 
L 331.941795 376.544062 
L 343.354565 374.146421 
L 196.423085 323.268655 
L 197.731915 319.488845 
" clip-path="url(#pd138eaf422)" style="fill: #ffffff; fill-opacity: 0.166667"/>
   </g>
   <g id="Quiver_38">
    <path d="M 276.521177 410.842575 
L 238.013105 333.015735 
L 237.070136 344.639453 
L 231.823125 315.995625 
L 251.410723 337.54385 
L 241.598251 331.241835 
L 280.106323 409.068675 
L 276.521177 410.842575 
" clip-path="url(#pd138eaf422)" style="fill: #ffffff; fill-opacity: 0.166667"/>
   </g>
   <g id="Quiver_39">
    <path d="M 213.80635 560.909862 
L 156.632609 411.818339 
L 154.61097 423.303676 
L 152.055 394.295625 
L 169.550171 417.574779 
L 160.36741 410.386114 
L 217.54115 559.477638 
L 213.80635 560.909862 
" clip-path="url(#pd138eaf422)" style="fill: #ffffff; fill-opacity: 0.166667"/>
   </g>
   <g id="Quiver_40">
    <path d="M 197.271274 323.369341 
L 104.587841 332.391622 
L 115.122118 337.394522 
L 86.47875 332.145 
L 113.571923 321.469797 
L 104.200292 328.41044 
L 196.883726 319.388159 
L 197.271274 323.369341 
" clip-path="url(#pd138eaf422)" style="fill: #ffffff; fill-opacity: 0.166667"/>
   </g>
   <g id="Quiver_41">
    <path d="M 150.67921 395.747246 
L 98.167546 345.978728 
L 101.29828 357.212539 
L 86.47875 332.145 
L 112.304598 345.599574 
L 100.919126 343.075487 
L 153.43079 392.844004 
L 150.67921 395.747246 
" clip-path="url(#pd138eaf422)" style="fill: #ffffff; fill-opacity: 0.166667"/>
   </g>
   <g id="Quiver_42">
    <path d="M 319.492703 292.467883 
L 249.661777 312.867929 
L 260.943053 315.823062 
L 231.823125 315.995625 
L 256.456427 300.464997 
L 248.540121 309.028413 
L 318.371047 288.628367 
L 319.492703 292.467883 
" clip-path="url(#pd138eaf422)" style="fill: #ffffff; fill-opacity: 0.166667"/>
   </g>
   <g id="Quiver_43">
    <path d="M 182.413747 216.826617 
L 196.215177 303.288521 
L 200.563879 292.467763 
L 197.0775 321.37875 
L 184.763905 294.989825 
L 192.265184 303.919036 
L 178.463753 217.457133 
L 182.413747 216.826617 
" clip-path="url(#pd138eaf422)" style="fill: #ffffff; fill-opacity: 0.166667"/>
   </g>
   <g id="Quiver_44">
    <path d="M 359.46934 379.411661 
L 244.109915 238.218851 
L 245.790615 249.759009 
L 234.27 223.014375 
L 258.180895 239.63572 
L 247.207484 235.688029 
L 362.56691 376.880839 
L 359.46934 379.411661 
" clip-path="url(#pd138eaf422)" style="fill: #ffffff; fill-opacity: 0.166667"/>
   </g>
   <g id="Quiver_45">
    <path d="M 304.949732 307.256786 
L 309.493929 300.964821 
L 301.174554 304.530268 
L 318.931875 290.548125 
L 311.241696 311.800982 
L 312.010714 302.7825 
L 307.466518 309.074464 
L 304.949732 307.256786 
" clip-path="url(#pd138eaf422)" style="fill: #ffffff; fill-opacity: 0.125"/>
   </g>
   <g id="Quiver_46">
    <path d="M 150.080187 393.979218 
L 175.616278 234.598787 
L 168.109806 243.523633 
L 180.43875 217.141875 
L 183.908311 246.054885 
L 179.565904 235.2316 
L 154.029813 394.612032 
L 150.080187 393.979218 
" clip-path="url(#pd138eaf422)" style="fill: #ffffff; fill-opacity: 0.125"/>
   </g>
   <g id="Quiver_47">
    <path d="M 305.035533 309.785819 
L 193.847904 229.315395 
L 198.431099 240.038936 
L 180.43875 217.141875 
L 207.811833 227.077384 
L 196.193088 226.075007 
L 307.380717 306.545431 
L 305.035533 309.785819 
" clip-path="url(#pd138eaf422)" style="fill: #ffffff; fill-opacity: 0.125"/>
   </g>
   <g id="Quiver_48">
    <path d="M 230.048548 316.918054 
L 186.966032 234.035501 
L 186.254444 245.675674 
L 180.43875 217.141875 
L 200.451064 238.296243 
L 190.515187 232.190643 
L 233.597702 315.073196 
L 230.048548 316.918054 
" clip-path="url(#pd138eaf422)" style="fill: #ffffff; fill-opacity: 0.125"/>
   </g>
   <g id="Quiver_49">
    <path d="M 307.183643 309.911581 
L 168.744126 387.261915 
L 180.400463 387.622192 
L 152.055 394.295625 
L 172.596315 373.654541 
L 166.793089 383.770002 
L 305.232607 306.419669 
L 307.183643 309.911581 
" clip-path="url(#pd138eaf422)" style="fill: #ffffff; fill-opacity: 0.125"/>
   </g>
   <g id="Quiver_50">
    <path d="M 320.190268 291.456964 
L 315.646071 297.748929 
L 323.965446 294.183482 
L 306.208125 308.165625 
L 313.898304 286.912768 
L 313.129286 295.93125 
L 317.673482 289.639286 
L 320.190268 291.456964 
" clip-path="url(#pd138eaf422)" style="fill: #ffffff; fill-opacity: 0.125"/>
   </g>
   <g id="Quiver_51">
    <path d="M 182.413563 217.458282 
L 156.877472 376.838713 
L 164.383944 367.913867 
L 152.055 394.295625 
L 148.585439 365.382615 
L 152.927846 376.2059 
L 178.463937 216.825468 
L 182.413563 217.458282 
" clip-path="url(#pd138eaf422)" style="fill: #ffffff; fill-opacity: 0.125"/>
   </g>
   <g id="Quiver_52">
    <path d="M 213.678109 560.061774 
L 228.639698 333.824416 
L 221.992894 343.406691 
L 231.823125 315.995625 
L 237.958021 344.462501 
L 232.63098 334.088369 
L 217.669391 560.325726 
L 213.678109 560.061774 
" clip-path="url(#pd138eaf422)" style="fill: #ffffff; fill-opacity: 0.125"/>
   </g>
   <g id="Quiver_53">
    <path d="M 195.206761 320.671406 
L 226.033164 239.143682 
L 216.884227 246.375344 
L 234.27 223.014375 
L 231.850139 252.034097 
L 229.774642 240.55837 
L 198.948239 322.086094 
L 195.206761 320.671406 
" clip-path="url(#pd138eaf422)" style="fill: #ffffff; fill-opacity: 0.083333"/>
   </g>
   <g id="Quiver_54">
    <path d="M 320.825326 291.192209 
L 286.003954 393.558651 
L 294.904725 386.023648 
L 278.31375 409.955625 
L 279.757118 380.870978 
L 282.217052 392.270483 
L 317.038424 289.904041 
L 320.825326 291.192209 
" clip-path="url(#pd138eaf422)" style="fill: #ffffff; fill-opacity: 0.083333"/>
   </g>
   <g id="Quiver_55">
    <path d="M 213.676785 560.083613 
L 231.281798 240.876924 
L 224.740216 250.531337 
L 234.27 223.014375 
L 240.715937 251.412437 
L 235.275728 241.097199 
L 217.670715 560.303887 
L 213.676785 560.083613 
" clip-path="url(#pd138eaf422)" style="fill: #ffffff; fill-opacity: 0.083333"/>
   </g>
   <g id="Quiver_56">
    <path d="M 88.218901 331.159163 
L 208.541371 543.546553 
L 208.832641 531.888287 
L 215.67375 560.19375 
L 194.911432 539.774981 
L 205.061069 545.518226 
L 84.738599 333.130837 
L 88.218901 331.159163 
" clip-path="url(#pd138eaf422)" style="fill: #ffffff; fill-opacity: 0.083333"/>
   </g>
   <g id="Quiver_57">
    <path d="M 196.837103 319.39325 
L 288.09823 308.343697 
L 277.449541 303.589182 
L 306.208125 308.165625 
L 279.372715 319.47318 
L 288.579024 312.314696 
L 197.317897 323.36425 
L 196.837103 319.39325 
" clip-path="url(#pd138eaf422)" style="fill: #ffffff; fill-opacity: 0.083333"/>
   </g>
   <g id="Quiver_58">
    <path d="M 86.261775 330.156804 
L 288.097389 308.130201 
L 277.505487 303.250486 
L 306.208125 308.165625 
L 279.241284 319.156052 
L 288.531339 312.106592 
L 86.695725 334.133196 
L 86.261775 330.156804 
" clip-path="url(#pd138eaf422)" style="fill: #ffffff; fill-opacity: 0.083333"/>
   </g>
   <g id="Quiver_59">
    <path d="M 306.448522 310.151125 
L 215.187395 321.200678 
L 225.836084 325.955193 
L 197.0775 321.37875 
L 223.91291 310.071195 
L 214.706601 317.229679 
L 305.967728 306.180125 
L 306.448522 310.151125 
" clip-path="url(#pd138eaf422)" style="fill: #ffffff; fill-opacity: 0.083333"/>
   </g>
   <g id="Quiver_60">
    <path d="M 235.818785 221.748964 
L 351.17821 362.941774 
L 349.49751 351.401616 
L 361.018125 378.14625 
L 337.10723 361.524905 
L 348.080641 365.472596 
L 232.721215 224.279786 
L 235.818785 221.748964 
" clip-path="url(#pd138eaf422)" style="fill: #ffffff; fill-opacity: 0.083333"/>
   </g>
   <g id="Quiver_61">
    <path d="M 317.995239 292.315245 
L 195.406194 227.338719 
L 201.431885 237.323259 
L 180.43875 217.141875 
L 208.924974 223.186299 
L 197.279466 223.804479 
L 319.868511 288.781005 
L 317.995239 292.315245 
" clip-path="url(#pd138eaf422)" style="fill: #ffffff; fill-opacity: 0.083333"/>
   </g>
   <g id="PathCollection_1">
    <path d="M 86.47875 346.636377 
C 90.321908 346.636377 94.008178 345.109474 96.725701 342.391951 
C 99.443224 339.674428 100.970127 335.988158 100.970127 332.145 
C 100.970127 328.301842 99.443224 324.615572 96.725701 321.898049 
C 94.008178 319.180526 90.321908 317.653623 86.47875 317.653623 
C 82.635592 317.653623 78.949322 319.180526 76.231799 321.898049 
C 73.514276 324.615572 71.987373 328.301842 71.987373 332.145 
C 71.987373 335.988158 73.514276 339.674428 76.231799 342.391951 
C 78.949322 345.109474 82.635592 346.636377 86.47875 346.636377 
z
" clip-path="url(#pd138eaf422)" style="fill: #ff0000; stroke: #000000"/>
    <path d="M 215.67375 574.685127 
C 219.516908 574.685127 223.203178 573.158224 225.920701 570.440701 
C 228.638224 567.723178 230.165127 564.036908 230.165127 560.19375 
C 230.165127 556.350592 228.638224 552.664322 225.920701 549.946799 
C 223.203178 547.229276 219.516908 545.702373 215.67375 545.702373 
C 211.830592 545.702373 208.144322 547.229276 205.426799 549.946799 
C 202.709276 552.664322 201.182373 556.350592 201.182373 560.19375 
C 201.182373 564.036908 202.709276 567.723178 205.426799 570.440701 
C 208.144322 573.158224 211.830592 574.685127 215.67375 574.685127 
z
" clip-path="url(#pd138eaf422)" style="fill: #ff0000; stroke: #000000"/>
    <path d="M 318.931875 300.548125 
C 321.583906 300.548125 324.127674 299.494462 326.002943 297.619193 
C 327.878212 295.743924 328.931875 293.200156 328.931875 290.548125 
C 328.931875 287.896094 327.878212 285.352326 326.002943 283.477057 
C 324.127674 281.601788 321.583906 280.548125 318.931875 280.548125 
C 316.279844 280.548125 313.736076 281.601788 311.860807 283.477057 
C 309.985538 285.352326 308.931875 287.896094 308.931875 290.548125 
C 308.931875 293.200156 309.985538 295.743924 311.860807 297.619193 
C 313.736076 299.494462 316.279844 300.548125 318.931875 300.548125 
z
" clip-path="url(#pd138eaf422)" style="fill: #ff0000; stroke: #000000"/>
    <path d="M 278.31375 426.538749 
C 282.711646 426.538749 286.930007 424.791446 290.039789 421.681664 
C 293.149571 418.571882 294.896874 414.353521 294.896874 409.955625 
C 294.896874 405.557729 293.149571 401.339368 290.039789 398.229586 
C 286.930007 395.119804 282.711646 393.372501 278.31375 393.372501 
C 273.915854 393.372501 269.697493 395.119804 266.587711 398.229586 
C 263.477929 401.339368 261.730626 405.557729 261.730626 409.955625 
C 261.730626 414.353521 263.477929 418.571882 266.587711 421.681664 
C 269.697493 424.791446 273.915854 426.538749 278.31375 426.538749 
z
" clip-path="url(#pd138eaf422)" style="fill: #ff0000; stroke: #000000"/>
    <path d="M 180.43875 230.370632 
C 183.947057 230.370632 187.312146 228.976766 189.792893 226.496018 
C 192.273641 224.015271 193.667507 220.650182 193.667507 217.141875 
C 193.667507 213.633568 192.273641 210.268479 189.792893 207.787732 
C 187.312146 205.306984 183.947057 203.913118 180.43875 203.913118 
C 176.930443 203.913118 173.565354 205.306984 171.084607 207.787732 
C 168.603859 210.268479 167.209993 213.633568 167.209993 217.141875 
C 167.209993 220.650182 168.603859 224.015271 171.084607 226.496018 
C 173.565354 228.976766 176.930443 230.370632 180.43875 230.370632 
z
" clip-path="url(#pd138eaf422)" style="fill: #ff0000; stroke: #000000"/>
    <path d="M 197.0775 336.70846 
C 201.142987 336.70846 205.042509 335.093225 207.917242 332.218492 
C 210.791975 329.343759 212.40721 325.444237 212.40721 321.37875 
C 212.40721 317.313263 210.791975 313.413741 207.917242 310.539008 
C 205.042509 307.664275 201.142987 306.04904 197.0775 306.04904 
C 193.012013 306.04904 189.112491 307.664275 186.237758 310.539008 
C 183.363025 313.413741 181.74779 317.313263 181.74779 321.37875 
C 181.74779 325.444237 183.363025 329.343759 186.237758 332.218492 
C 189.112491 335.093225 193.012013 336.70846 197.0775 336.70846 
z
" clip-path="url(#pd138eaf422)" style="fill: #ff0000; stroke: #000000"/>
    <path d="M 234.27 232.501208 
C 236.785938 232.501208 239.199167 231.501615 240.978204 229.722579 
C 242.75724 227.943542 243.756833 225.530313 243.756833 223.014375 
C 243.756833 220.498437 242.75724 218.085208 240.978204 216.306171 
C 239.199167 214.527135 236.785938 213.527542 234.27 213.527542 
C 231.754062 213.527542 229.340833 214.527135 227.561796 216.306171 
C 225.78276 218.085208 224.783167 220.498437 224.783167 223.014375 
C 224.783167 225.530313 225.78276 227.943542 227.561796 229.722579 
C 229.340833 231.501615 231.754062 232.501208 234.27 232.501208 
z
" clip-path="url(#pd138eaf422)" style="fill: #ff0000; stroke: #000000"/>
    <path d="M 231.823125 338.131569 
C 237.693646 338.131569 243.324516 335.799186 247.475601 331.648101 
C 251.626686 327.497016 253.959069 321.866146 253.959069 315.995625 
C 253.959069 310.125104 251.626686 304.494234 247.475601 300.343149 
C 243.324516 296.192064 237.693646 293.859681 231.823125 293.859681 
C 225.952604 293.859681 220.321734 296.192064 216.170649 300.343149 
C 212.019564 304.494234 209.687181 310.125104 209.687181 315.995625 
C 209.687181 321.866146 212.019564 327.497016 216.170649 331.648101 
C 220.321734 335.799186 225.952604 338.131569 231.823125 338.131569 
z
" clip-path="url(#pd138eaf422)" style="fill: #ff0000; stroke: #000000"/>
    <path d="M 361.018125 396.034794 
C 365.762222 396.034794 370.312652 394.149944 373.667236 390.795361 
C 377.021819 387.440777 378.906669 382.890347 378.906669 378.14625 
C 378.906669 373.402153 377.021819 368.851723 373.667236 365.497139 
C 370.312652 362.142556 365.762222 360.257706 361.018125 360.257706 
C 356.274028 360.257706 351.723598 362.142556 348.369014 365.497139 
C 345.014431 368.851723 343.129581 373.402153 343.129581 378.14625 
C 343.129581 382.890347 345.014431 387.440777 348.369014 390.795361 
C 351.723598 394.149944 356.274028 396.034794 361.018125 396.034794 
z
" clip-path="url(#pd138eaf422)" style="fill: #ff0000; stroke: #000000"/>
    <path d="M 152.055 410.574446 
C 156.372194 410.574446 160.513148 408.859206 163.565864 405.806489 
C 166.618581 402.753773 168.333821 398.612819 168.333821 394.295625 
C 168.333821 389.978431 166.618581 385.837477 163.565864 382.784761 
C 160.513148 379.732044 156.372194 378.016804 152.055 378.016804 
C 147.737806 378.016804 143.596852 379.732044 140.544136 382.784761 
C 137.491419 385.837477 135.776179 389.978431 135.776179 394.295625 
C 135.776179 398.612819 137.491419 402.753773 140.544136 405.806489 
C 143.596852 408.859206 147.737806 410.574446 152.055 410.574446 
z
" clip-path="url(#pd138eaf422)" style="fill: #ff0000; stroke: #000000"/>
    <path d="M 306.208125 320.615525 
C 309.509877 320.615525 312.676842 319.303725 315.011533 316.969033 
C 317.346225 314.634342 318.658025 311.467377 318.658025 308.165625 
C 318.658025 304.863873 317.346225 301.696908 315.011533 299.362217 
C 312.676842 297.027525 309.509877 295.715725 306.208125 295.715725 
C 302.906373 295.715725 299.739408 297.027525 297.404717 299.362217 
C 295.070025 301.696908 293.758225 304.863873 293.758225 308.165625 
C 293.758225 311.467377 295.070025 314.634342 297.404717 316.969033 
C 299.739408 319.303725 302.906373 320.615525 306.208125 320.615525 
z
" clip-path="url(#pd138eaf422)" style="fill: #ff0000; stroke: #000000"/>
   </g>
   <g id="matplotlib.axis_1">
    <g id="xtick_1"/>
    <g id="xtick_2"/>
    <g id="xtick_3"/>
    <g id="xtick_4"/>
    <g id="xtick_5"/>
    <g id="xtick_6"/>
    <g id="xtick_7"/>
    <g id="xtick_8"/>
    <g id="xtick_9"/>
   </g>
   <g id="matplotlib.axis_2">
    <g id="ytick_1"/>
    <g id="ytick_2"/>
    <g id="ytick_3"/>
    <g id="ytick_4"/>
    <g id="ytick_5"/>
    <g id="ytick_6"/>
    <g id="ytick_7"/>
   </g>
   <g id="text_1">
    <!-- 3 -->
    <g style="fill: #ffffff" transform="translate(81.7425 336.52875) scale(0.16 -0.16)">
     <defs>
      <path id="Montserrat-Bold-33" d="M 1702 -77 
C 2976 -77 3558 614 3558 1370 
C 3558 2029 3149 2528 2342 2662 
L 3354 3808 
L 3354 4480 
L 218 4480 
L 218 3648 
L 2118 3648 
L 1203 2605 
L 1203 1920 
L 1677 1920 
C 2266 1920 2515 1709 2515 1370 
C 2515 1005 2195 794 1677 794 
C 1210 794 736 941 397 1197 
L -6 403 
C 429 96 1075 -77 1702 -77 
z
" transform="scale(0.015625)"/>
     </defs>
     <use xlink:href="#Montserrat-Bold-33"/>
    </g>
   </g>
   <g id="text_2">
    <!-- 1 -->
    <g style="fill: #ffffff" transform="translate(212.5375 564.5775) scale(0.16 -0.16)">
     <defs>
      <path id="Montserrat-Bold-31" d="M 941 0 
L 1978 0 
L 1978 4480 
L 45 4480 
L 45 3648 
L 941 3648 
L 941 0 
z
" transform="scale(0.015625)"/>
     </defs>
     <use xlink:href="#Montserrat-Bold-31"/>
    </g>
   </g>
   <g id="text_3">
    <!-- 17 -->
    <g style="fill: #ffffff" transform="translate(310.835625 294.931875) scale(0.16 -0.16)">
     <defs>
      <path id="Montserrat-Bold-37" d="M 966 0 
L 2093 0 
L 3757 3808 
L 3757 4480 
L 166 4480 
L 166 2906 
L 1088 2906 
L 1088 3635 
L 2573 3635 
L 966 0 
z
" transform="scale(0.015625)"/>
     </defs>
     <use xlink:href="#Montserrat-Bold-31"/>
     <use xlink:href="#Montserrat-Bold-37" x="39.199997"/>
    </g>
   </g>
   <g id="text_4">
    <!-- 13 -->
    <g style="fill: #ffffff" transform="translate(270.44125 414.339375) scale(0.16 -0.16)">
     <use xlink:href="#Montserrat-Bold-31"/>
     <use xlink:href="#Montserrat-Bold-33" x="39.199997"/>
    </g>
   </g>
   <g id="text_5">
    <!-- 7 -->
    <g style="fill: #ffffff" transform="translate(175.47875 221.525625) scale(0.16 -0.16)">
     <use xlink:href="#Montserrat-Bold-37"/>
    </g>
   </g>
   <g id="text_6">
    <!-- 23 -->
    <g style="fill: #ffffff" transform="translate(187.62125 325.7625) scale(0.16 -0.16)">
     <defs>
      <path id="Montserrat-Bold-32" d="M 211 0 
L 3597 0 
L 3597 845 
L 1670 845 
L 2701 1818 
C 3328 2400 3450 2797 3450 3232 
C 3450 4045 2784 4557 1786 4557 
C 979 4557 352 4230 6 3725 
L 762 3238 
C 979 3539 1306 3686 1690 3686 
C 2163 3686 2406 3482 2406 3130 
C 2406 2912 2336 2682 1939 2304 
L 211 672 
L 211 0 
z
" transform="scale(0.015625)"/>
     </defs>
     <use xlink:href="#Montserrat-Bold-32"/>
     <use xlink:href="#Montserrat-Bold-33" x="58.999985"/>
    </g>
   </g>
   <g id="text_7">
    <!-- 20 -->
    <g style="fill: #ffffff" transform="translate(224.1175 227.398125) scale(0.16 -0.16)">
     <defs>
      <path id="Montserrat-Bold-30" d="M 2170 -77 
C 3277 -77 4090 762 4090 2240 
C 4090 3718 3277 4557 2170 4557 
C 1069 4557 250 3718 250 2240 
C 250 762 1069 -77 2170 -77 
z
M 2170 800 
C 1658 800 1299 1222 1299 2240 
C 1299 3258 1658 3680 2170 3680 
C 2688 3680 3046 3258 3046 2240 
C 3046 1222 2688 800 2170 800 
z
" transform="scale(0.015625)"/>
     </defs>
     <use xlink:href="#Montserrat-Bold-32"/>
     <use xlink:href="#Montserrat-Bold-30" x="58.999985"/>
    </g>
   </g>
   <g id="text_8">
    <!-- 19 -->
    <g style="fill: #ffffff" transform="translate(223.590625 320.379375) scale(0.16 -0.16)">
     <defs>
      <path id="Montserrat-Bold-39" d="M 1542 -77 
C 2899 -77 3827 787 3827 2336 
C 3827 3782 3066 4557 1824 4557 
C 877 4557 128 3981 128 3066 
C 128 2221 806 1670 1670 1670 
C 2138 1670 2522 1811 2784 2074 
C 2752 1210 2266 768 1523 768 
C 1216 768 928 826 685 992 
L 301 230 
C 614 32 1069 -77 1542 -77 
z
M 1901 2445 
C 1440 2445 1139 2707 1139 3117 
C 1139 3526 1446 3782 1888 3782 
C 2381 3782 2669 3501 2669 3117 
C 2669 2726 2355 2445 1901 2445 
z
" transform="scale(0.015625)"/>
     </defs>
     <use xlink:href="#Montserrat-Bold-31"/>
     <use xlink:href="#Montserrat-Bold-39" x="39.199997"/>
    </g>
   </g>
   <g id="text_9">
    <!-- 22 -->
    <g style="fill: #ffffff" transform="translate(351.578125 382.53) scale(0.16 -0.16)">
     <use xlink:href="#Montserrat-Bold-32"/>
     <use xlink:href="#Montserrat-Bold-32" x="58.999985"/>
    </g>
   </g>
   <g id="text_10">
    <!-- 26 -->
    <g style="fill: #ffffff" transform="translate(142.23875 398.679375) scale(0.16 -0.16)">
     <defs>
      <path id="Montserrat-Bold-36" d="M 2253 -77 
C 3200 -77 3949 499 3949 1414 
C 3949 2259 3270 2810 2406 2810 
C 1939 2810 1562 2669 1299 2406 
C 1331 3270 1811 3712 2560 3712 
C 2861 3712 3149 3654 3398 3488 
L 3782 4250 
C 3469 4448 3008 4557 2534 4557 
C 1184 4557 250 3693 250 2144 
C 250 698 1018 -77 2253 -77 
z
M 2195 698 
C 1696 698 1408 979 1408 1363 
C 1408 1754 1728 2035 2182 2035 
C 2643 2035 2944 1773 2944 1363 
C 2944 954 2637 698 2195 698 
z
" transform="scale(0.015625)"/>
     </defs>
     <use xlink:href="#Montserrat-Bold-32"/>
     <use xlink:href="#Montserrat-Bold-36" x="58.999985"/>
    </g>
   </g>
   <g id="text_11">
    <!-- 4 -->
    <g style="fill: #ffffff" transform="translate(300.695625 312.549375) scale(0.16 -0.16)">
     <defs>
      <path id="Montserrat-Bold-34" d="M 198 941 
L 2611 941 
L 2611 0 
L 3622 0 
L 3622 941 
L 4352 941 
L 4352 1786 
L 3622 1786 
L 3622 2624 
L 2643 2624 
L 2643 1786 
L 1446 1786 
L 3398 4480 
L 2310 4480 
L 198 1638 
L 198 941 
z
" transform="scale(0.015625)"/>
     </defs>
     <use xlink:href="#Montserrat-Bold-34"/>
    </g>
   </g>
  </g>
 </g>
 <defs>
  <clipPath id="pd138eaf422">
   <rect x="7.2" y="7.2" width="430.65" height="626.4"/>
  </clipPath>
 </defs>
</svg>
