<?xml version="1.0" encoding="utf-8" standalone="no"?>
<!DOCTYPE svg PUBLIC "-//W3C//DTD SVG 1.1//EN"
  "http://www.w3.org/Graphics/SVG/1.1/DTD/svg11.dtd">
<svg xmlns:xlink="http://www.w3.org/1999/xlink" width="445.05pt" height="640.8pt" viewBox="0 0 445.05 640.8" xmlns="http://www.w3.org/2000/svg" version="1.1">
 <metadata>
  <rdf:RDF xmlns:dc="http://purl.org/dc/elements/1.1/" xmlns:cc="http://creativecommons.org/ns#" xmlns:rdf="http://www.w3.org/1999/02/22-rdf-syntax-ns#">
   <cc:Work>
    <dc:type rdf:resource="http://purl.org/dc/dcmitype/StillImage"/>
    <dc:date>2026-06-24T21:23:50.614561</dc:date>
    <dc:format>image/svg+xml</dc:format>
    <dc:creator>
     <cc:Agent>
      <dc:title>Matplotlib v3.9.0, https://matplotlib.org/</dc:title>
     </cc:Agent>
    </dc:creator>
   </cc:Work>
  </rdf:RDF>
 </metadata>
 <defs>
  <style type="text/css">*{stroke-linejoin: round; stroke-linecap: butt}</style>
 </defs>
 <g id="figure_1">
  <g id="patch_1">
   <path d="M 0 640.8 
L 445.05 640.8 
L 445.05 0 
L 0 0 
z
" style="fill: #1e2836"/>
  </g>
  <g id="axes_1">
   <g id="patch_2">
    <path d="M 7.2 633.6 
L 437.85 633.6 
L 437.85 7.2 
L 7.2 7.2 
z
" style="fill: #1e2836"/>
   </g>
   <g id="line2d_1">
    <path d="M 418.275 320.4 
L 26.775 320.4 
L 26.775 26.775 
L 418.275 26.775 
L 418.275 614.025 
L 26.775 614.025 
L 26.775 320.4 
" clip-path="url(#pc096abfee7)" style="fill: none; stroke: #c7d5cc; stroke-width: 2; stroke-linecap: square"/>
   </g>
   <g id="line2d_2">
    <path d="M 330.1875 26.775 
L 330.1875 114.8625 
L 114.8625 114.8625 
L 114.8625 26.775 
" clip-path="url(#pc096abfee7)" style="fill: none; stroke: #c7d5cc; stroke-width: 2; stroke-linecap: square"/>
   </g>
   <g id="line2d_3">
    <path d="M 330.1875 614.025 
L 330.1875 525.9375 
L 114.8625 525.9375 
L 114.8625 614.025 
" clip-path="url(#pc096abfee7)" style="fill: none; stroke: #c7d5cc; stroke-width: 2; stroke-linecap: square"/>
   </g>
   <g id="line2d_4">
    <path d="M 271.4625 26.775 
L 271.4625 56.1375 
L 173.5875 56.1375 
L 173.5875 26.775 
" clip-path="url(#pc096abfee7)" style="fill: none; stroke: #c7d5cc; stroke-width: 2; stroke-linecap: square"/>
   </g>
   <g id="line2d_5">
    <path d="M 271.4625 614.025 
L 271.4625 584.6625 
L 173.5875 584.6625 
L 173.5875 614.025 
" clip-path="url(#pc096abfee7)" style="fill: none; stroke: #c7d5cc; stroke-width: 2; stroke-linecap: square"/>
   </g>
   <g id="patch_3">
    <path d="M 222.525 369.3375 
C 235.503377 369.3375 247.95194 364.181136 257.129038 355.004038 
C 266.306136 345.82694 271.4625 333.378377 271.4625 320.4 
C 271.4625 307.421623 266.306136 294.97306 257.129038 285.795962 
C 247.95194 276.618864 235.503377 271.4625 222.525 271.4625 
C 209.546623 271.4625 197.09806 276.618864 187.920962 285.795962 
C 178.743864 294.97306 173.5875 307.421623 173.5875 320.4 
C 173.5875 333.378377 178.743864 345.82694 187.920962 355.004038 
C 197.09806 364.181136 209.546623 369.3375 222.525 369.3375 
L 222.525 369.3375 
z
" clip-path="url(#pc096abfee7)" style="fill: none; stroke: #c7d5cc; stroke-width: 2; stroke-linejoin: miter"/>
   </g>
   <g id="patch_4">
    <path d="M 261.633912 525.882795 
C 257.074189 519.820839 251.166876 514.901235 244.379913 511.513682 
C 237.59295 508.126128 230.110406 506.3625 222.525 506.3625 
C 214.939594 506.3625 207.45705 508.126128 200.670087 511.513682 
C 193.883124 514.901235 187.975811 519.820839 183.416088 525.882795 
" clip-path="url(#pc096abfee7)" style="fill: none; stroke: #c7d5cc; stroke-width: 2; stroke-linejoin: miter"/>
   </g>
   <g id="patch_5">
    <path d="M 183.416088 114.917205 
C 187.975811 120.979161 193.883124 125.898765 200.670087 129.286318 
C 207.45705 132.673872 214.939594 134.4375 222.525 134.4375 
C 230.110406 134.4375 237.59295 132.673872 244.379913 129.286318 
C 251.166876 125.898765 257.074189 120.979161 261.633912 114.917205 
" clip-path="url(#pc096abfee7)" style="fill: none; stroke: #c7d5cc; stroke-width: 2; stroke-linejoin: miter"/>
   </g>
   <g id="patch_6">
    <path d="M 222.525 321.5745 
C 222.836481 321.5745 223.135247 321.450747 223.355497 321.230497 
C 223.575747 321.010247 223.6995 320.711481 223.6995 320.4 
C 223.6995 320.088519 223.575747 319.789753 223.355497 319.569503 
C 223.135247 319.349253 222.836481 319.2255 222.525 319.2255 
C 222.213519 319.2255 221.914753 319.349253 221.694503 319.569503 
C 221.474253 319.789753 221.3505 320.088519 221.3505 320.4 
C 221.3505 320.711481 221.474253 321.010247 221.694503 321.230497 
C 221.914753 321.450747 222.213519 321.5745 222.525 321.5745 
z
" clip-path="url(#pc096abfee7)" style="fill: #c7d5cc; stroke: #c7d5cc; stroke-linejoin: miter"/>
   </g>
   <g id="patch_7">
    <path d="M 222.525 556.4745 
C 222.836481 556.4745 223.135247 556.350747 223.355497 556.130497 
C 223.575747 555.910247 223.6995 555.611481 223.6995 555.3 
C 223.6995 554.988519 223.575747 554.689753 223.355497 554.469503 
C 223.135247 554.249253 222.836481 554.1255 222.525 554.1255 
C 222.213519 554.1255 221.914753 554.249253 221.694503 554.469503 
C 221.474253 554.689753 221.3505 554.988519 221.3505 555.3 
C 221.3505 555.611481 221.474253 555.910247 221.694503 556.130497 
C 221.914753 556.350747 222.213519 556.4745 222.525 556.4745 
z
" clip-path="url(#pc096abfee7)" style="fill: #c7d5cc; stroke: #c7d5cc; stroke-linejoin: miter"/>
   </g>
   <g id="patch_8">
    <path d="M 222.525 86.6745 
C 222.836481 86.6745 223.135247 86.550747 223.355497 86.330497 
C 223.575747 86.110247 223.6995 85.811481 223.6995 85.5 
C 223.6995 85.188519 223.575747 84.889753 223.355497 84.669503 
C 223.135247 84.449253 222.836481 84.3255 222.525 84.3255 
C 222.213519 84.3255 221.914753 84.449253 221.694503 84.669503 
C 221.474253 84.889753 221.3505 85.188519 221.3505 85.5 
C 221.3505 85.811481 221.474253 86.110247 221.694503 86.330497 
C 221.914753 86.550747 222.213519 86.6745 222.525 86.6745 
z
" clip-path="url(#pc096abfee7)" style="fill: #c7d5cc; stroke: #c7d5cc; stroke-linejoin: miter"/>
   </g>
   <g id="line2d_6">
    <path d="M 202.95 26.775 
L 242.1 26.775 
" clip-path="url(#pc096abfee7)" style="fill: none; stroke: #c7d5cc; stroke-width: 4; stroke-linecap: square"/>
   </g>
   <g id="line2d_7">
    <path d="M 202.95 614.025 
L 242.1 614.025 
" clip-path="url(#pc096abfee7)" style="fill: none; stroke: #c7d5cc; stroke-width: 4; stroke-linecap: square"/>
   </g>
   <g id="Quiver_1">
    <path d="M 265.060147 378.677715 
L 162.180836 376.595138 
L 172.057355 382.796297 
L 144.225 374.23125 
L 172.381175 366.799574 
L 162.261791 372.595957 
L 265.141103 374.678535 
L 265.060147 378.677715 
" clip-path="url(#pc096abfee7)" style="fill: #ffffff"/>
   </g>
   <g id="Quiver_2">
    <path d="M 331.381702 329.834332 
L 280.733816 367.534638 
L 292.338082 366.376624 
L 265.100625 376.678125 
L 282.784466 353.541968 
L 278.345412 364.325974 
L 328.993298 326.625668 
L 331.381702 329.834332 
" clip-path="url(#pc096abfee7)" style="fill: #ffffff; fill-opacity: 0.909091"/>
   </g>
   <g id="Quiver_3">
    <path d="M 144.265478 372.23166 
L 247.144789 374.314237 
L 237.26827 368.113078 
L 265.100625 376.678125 
L 236.94445 384.109801 
L 247.063834 378.313418 
L 144.184522 376.23084 
L 144.265478 372.23166 
" clip-path="url(#pc096abfee7)" style="fill: #ffffff; fill-opacity: 0.818182"/>
   </g>
   <g id="Quiver_4">
    <path d="M 263.906423 375.073793 
L 314.554309 337.373487 
L 302.950043 338.531501 
L 330.1875 328.23 
L 312.503659 351.366157 
L 316.942713 340.582151 
L 266.294827 378.282457 
L 263.906423 375.073793 
" clip-path="url(#pc096abfee7)" style="fill: #ffffff; fill-opacity: 0.69697"/>
   </g>
   <g id="Quiver_5">
    <path d="M 142.846877 375.680655 
L 66.335901 302.932515 
L 69.448559 314.171348 
L 54.669375 289.08 
L 80.473545 302.576104 
L 69.092148 300.033704 
L 145.603123 372.781845 
L 142.846877 375.680655 
" clip-path="url(#pc096abfee7)" style="fill: #ffffff; fill-opacity: 0.454545"/>
   </g>
   <g id="Quiver_6">
    <path d="M 142.237905 374.458087 
L 132.045066 285.168813 
L 127.217969 295.784798 
L 131.990625 267.058125 
L 143.114725 293.9701 
L 136.019255 284.715139 
L 146.212095 374.004413 
L 142.237905 374.458087 
" clip-path="url(#pc096abfee7)" style="fill: #ffffff; fill-opacity: 0.393939"/>
   </g>
   <g id="Quiver_7">
    <path d="M 56.047498 287.630595 
L 132.558474 360.378735 
L 129.445816 349.139902 
L 144.225 374.23125 
L 118.42083 360.735146 
L 129.802227 363.277546 
L 53.291252 290.529405 
L 56.047498 287.630595 
" clip-path="url(#pc096abfee7)" style="fill: #ffffff; fill-opacity: 0.363636"/>
   </g>
   <g id="Quiver_8">
    <path d="M 212.834552 553.58711 
L 148.970416 391.709265 
L 147.058997 403.213459 
L 144.225 374.23125 
L 161.94258 397.34158 
L 152.691312 390.241296 
L 216.555448 552.11914 
L 212.834552 553.58711 
" clip-path="url(#pc096abfee7)" style="fill: #ffffff; fill-opacity: 0.333333"/>
   </g>
   <g id="Quiver_9">
    <path d="M 143.083554 372.588965 
L 197.304863 334.903232 
L 185.669099 335.683609 
L 213.226875 326.2725 
L 194.80067 348.821889 
L 199.587756 338.187802 
L 145.366446 375.873535 
L 143.083554 372.588965 
" clip-path="url(#pc096abfee7)" style="fill: #ffffff; fill-opacity: 0.333333"/>
   </g>
   <g id="Quiver_10">
    <path d="M 132.538459 268.981632 
L 72.528769 286.072999 
L 83.789804 289.104348 
L 54.669375 289.08 
L 79.407131 273.716295 
L 71.4331 282.225986 
L 131.442791 265.134618 
L 132.538459 268.981632 
" clip-path="url(#pc096abfee7)" style="fill: #ffffff; fill-opacity: 0.30303"/>
   </g>
   <g id="Quiver_11">
    <path d="M 54.121541 287.156493 
L 114.131231 270.065126 
L 102.870196 267.033777 
L 131.990625 267.058125 
L 107.252869 282.42183 
L 115.2269 273.912139 
L 55.217209 291.003507 
L 54.121541 287.156493 
" clip-path="url(#pc096abfee7)" style="fill: #ffffff; fill-opacity: 0.272727"/>
   </g>
   <g id="Quiver_12">
    <path d="M 352.196753 245.013191 
L 336.329219 311.192416 
L 344.495431 302.866974 
L 330.1875 328.23 
L 328.936409 299.136448 
L 332.439464 310.259784 
L 348.306997 244.080559 
L 352.196753 245.013191 
" clip-path="url(#pc096abfee7)" style="fill: #ffffff; fill-opacity: 0.242424"/>
   </g>
   <g id="Quiver_13">
    <path d="M 146.085448 373.497265 
L 209.949584 535.37511 
L 211.861003 523.870916 
L 214.695 552.853125 
L 196.97742 529.742795 
L 206.228688 536.843079 
L 142.364552 374.965235 
L 146.085448 373.497265 
" clip-path="url(#pc096abfee7)" style="fill: #ffffff; fill-opacity: 0.212121"/>
   </g>
   <g id="Quiver_14">
    <path d="M 121.719161 204.034744 
L 130.503107 249.008546 
L 134.474934 238.043849 
L 131.990625 267.058125 
L 118.771647 241.110897 
L 126.577285 249.775308 
L 117.793339 204.801506 
L 121.719161 204.034744 
" clip-path="url(#pc096abfee7)" style="fill: #ffffff; fill-opacity: 0.212121"/>
   </g>
   <g id="Quiver_15">
    <path d="M 328.242622 327.763684 
L 344.110156 261.584459 
L 335.943944 269.909901 
L 350.251875 244.546875 
L 351.502966 273.640427 
L 347.999911 262.517091 
L 332.132378 328.696316 
L 328.242622 327.763684 
" clip-path="url(#pc096abfee7)" style="fill: #ffffff; fill-opacity: 0.212121"/>
   </g>
   <g id="Quiver_16">
    <path d="M 214.620645 324.838134 
L 253.585106 362.699827 
L 250.594589 351.427879 
L 265.100625 376.678125 
L 239.444427 362.902803 
L 250.797565 365.568558 
L 211.833105 327.706866 
L 214.620645 324.838134 
" clip-path="url(#pc096abfee7)" style="fill: #ffffff; fill-opacity: 0.212121"/>
   </g>
   <g id="Quiver_17">
    <path d="M 214.368321 327.914785 
L 160.147012 365.600518 
L 171.782776 364.820141 
L 144.225 374.23125 
L 162.651205 351.681861 
L 157.864119 362.315948 
L 212.085429 324.630215 
L 214.368321 327.914785 
" clip-path="url(#pc096abfee7)" style="fill: #ffffff; fill-opacity: 0.212121"/>
   </g>
   <g id="Quiver_18">
    <path d="M 213.260343 324.27278 
L 312.223489 325.929067 
L 302.325293 319.762567 
L 330.1875 328.23 
L 302.057548 335.760326 
L 312.156552 329.928507 
L 213.193407 328.27222 
L 213.260343 324.27278 
" clip-path="url(#pc096abfee7)" style="fill: #ffffff; fill-opacity: 0.212121"/>
   </g>
   <g id="Quiver_19">
    <path d="M 53.083786 287.861021 
L 107.199854 217.469444 
L 96.348196 221.740452 
L 119.75625 204.418125 
L 109.032905 231.49228 
L 110.371032 219.907401 
L 56.254964 290.298979 
L 53.083786 287.861021 
" clip-path="url(#pc096abfee7)" style="fill: #ffffff; fill-opacity: 0.212121"/>
   </g>
   <g id="Quiver_20">
    <path d="M 239.171624 302.8028 
L 313.24995 321.817558 
L 305.055699 313.519712 
L 330.1875 328.23 
L 301.077705 329.017311 
L 312.255452 325.691957 
L 238.177126 306.6772 
L 239.171624 302.8028 
" clip-path="url(#pc096abfee7)" style="fill: #ffffff; fill-opacity: 0.181818"/>
   </g>
   <g id="Quiver_21">
    <path d="M 212.048796 327.888708 
L 145.358419 279.277048 
L 149.905221 290.01607 
L 131.990625 267.058125 
L 159.329857 277.086405 
L 147.714578 276.044632 
L 214.404954 324.656292 
L 212.048796 327.888708 
" clip-path="url(#pc096abfee7)" style="fill: #ffffff; fill-opacity: 0.181818"/>
   </g>
   <g id="Quiver_22">
    <path d="M 263.147336 377.107849 
L 245.482348 296.812449 
L 241.771099 307.868064 
L 243.568125 278.803125 
L 257.397411 304.430276 
L 249.388926 295.953002 
L 267.053914 376.248401 
L 263.147336 377.107849 
" clip-path="url(#pc096abfee7)" style="fill: #ffffff; fill-opacity: 0.181818"/>
   </g>
   <g id="Quiver_23">
    <path d="M 142.245445 374.516489 
L 120.343841 222.519361 
L 115.831368 233.272853 
L 119.75625 204.418125 
L 131.66781 230.990944 
L 124.302952 221.948884 
L 146.204555 373.946011 
L 142.245445 374.516489 
" clip-path="url(#pc096abfee7)" style="fill: #ffffff; fill-opacity: 0.181818"/>
   </g>
   <g id="Quiver_24">
    <path d="M 243.358755 280.792136 
L 149.682354 270.931462 
L 158.999299 277.945343 
L 131.990625 267.058125 
L 160.674256 262.033255 
L 150.101093 266.95344 
L 243.777495 276.814114 
L 243.358755 280.792136 
" clip-path="url(#pc096abfee7)" style="fill: #ffffff; fill-opacity: 0.181818"/>
   </g>
   <g id="Quiver_25">
    <path d="M 133.168704 265.441917 
L 199.859081 314.053577 
L 195.312279 303.314555 
L 213.226875 326.2725 
L 185.887643 316.24422 
L 197.502922 317.285993 
L 130.812546 268.674333 
L 133.168704 265.441917 
" clip-path="url(#pc096abfee7)" style="fill: #ffffff; fill-opacity: 0.181818"/>
   </g>
   <g id="Quiver_26">
    <path d="M 132.199995 265.069114 
L 225.876396 274.929788 
L 216.559451 267.915907 
L 243.568125 278.803125 
L 214.884494 283.827995 
L 225.457657 278.90781 
L 131.781255 269.047136 
L 132.199995 265.069114 
" clip-path="url(#pc096abfee7)" style="fill: #ffffff; fill-opacity: 0.181818"/>
   </g>
   <g id="Quiver_27">
    <path d="M 245.253299 279.880246 
L 224.60614 312.183059 
L 235.047266 306.988555 
L 213.226875 326.2725 
L 221.565878 298.371586 
L 221.235793 310.028817 
L 241.882951 277.726004 
L 245.253299 279.880246 
" clip-path="url(#pc096abfee7)" style="fill: #ffffff; fill-opacity: 0.181818"/>
   </g>
   <g id="Quiver_28">
    <path d="M 133.97772 266.831288 
L 144.170559 356.120562 
L 148.997656 345.504577 
L 144.225 374.23125 
L 133.1009 347.319275 
L 140.19637 356.574236 
L 130.00353 267.284962 
L 133.97772 266.831288 
" clip-path="url(#pc096abfee7)" style="fill: #ffffff; fill-opacity: 0.181818"/>
   </g>
   <g id="Quiver_29">
    <path d="M 130.027714 267.441506 
L 121.243768 222.467704 
L 117.271941 233.432401 
L 119.75625 204.418125 
L 132.975228 230.365353 
L 125.16959 221.700942 
L 133.953536 266.674744 
L 130.027714 267.441506 
" clip-path="url(#pc096abfee7)" style="fill: #ffffff; fill-opacity: 0.151515"/>
   </g>
   <g id="Quiver_30">
    <path d="M 330.667761 330.171481 
L 162.178592 371.850381 
L 173.326781 375.273519 
L 144.225 374.23125 
L 169.484692 359.741669 
L 161.21807 367.967419 
L 329.707239 326.288519 
L 330.667761 330.171481 
" clip-path="url(#pc096abfee7)" style="fill: #ffffff; fill-opacity: 0.151515"/>
   </g>
   <g id="Quiver_31">
    <path d="M 329.690251 330.1672 
L 255.611925 311.152442 
L 263.806176 319.450288 
L 238.674375 304.74 
L 267.78417 303.952689 
L 256.606423 307.278043 
L 330.684749 326.2928 
L 329.690251 330.1672 
" clip-path="url(#pc096abfee7)" style="fill: #ffffff; fill-opacity: 0.151515"/>
   </g>
   <g id="Quiver_32">
    <path d="M 329.196279 329.96709 
L 258.210713 289.461202 
L 263.9225 299.628576 
L 243.568125 278.803125 
L 271.852267 285.731856 
L 260.193155 285.987022 
L 331.178721 326.49291 
L 329.196279 329.96709 
" clip-path="url(#pc096abfee7)" style="fill: #ffffff; fill-opacity: 0.151515"/>
   </g>
   <g id="Quiver_33">
    <path d="M 244.559346 277.066035 
L 315.544912 317.571923 
L 309.833125 307.404549 
L 330.1875 328.23 
L 301.903358 321.301269 
L 313.56247 321.046103 
L 242.576904 280.540215 
L 244.559346 277.066035 
" clip-path="url(#pc096abfee7)" style="fill: #ffffff; fill-opacity: 0.151515"/>
   </g>
   <g id="Quiver_34">
    <path d="M 238.008282 306.625821 
L 148.29692 274.93878 
L 155.727747 283.926707 
L 131.990625 267.058125 
L 161.056489 268.840139 
L 149.629106 271.167138 
L 239.340468 302.854179 
L 238.008282 306.625821 
" clip-path="url(#pc096abfee7)" style="fill: #ffffff; fill-opacity: 0.121212"/>
   </g>
   <g id="Quiver_35">
    <path d="M 350.863328 246.451114 
L 261.317727 275.204288 
L 272.67328 277.859741 
L 243.568125 278.803125 
L 267.781657 262.62583 
L 260.094821 271.395811 
L 349.640422 242.642636 
L 350.863328 246.451114 
" clip-path="url(#pc096abfee7)" style="fill: #ffffff; fill-opacity: 0.121212"/>
   </g>
   <g id="Quiver_36">
    <path d="M 212.772154 552.302977 
L 258.22645 393.433593 
L 249.707173 401.397381 
L 265.100625 376.678125 
L 265.089943 405.798563 
L 262.072142 394.533889 
L 216.617846 553.403273 
L 212.772154 552.302977 
" clip-path="url(#pc096abfee7)" style="fill: #ffffff; fill-opacity: 0.121212"/>
   </g>
   <g id="Quiver_37">
    <path d="M 351.201455 246.307073 
L 255.465737 297.953974 
L 267.115469 298.486665 
L 238.674375 304.74 
L 259.518825 284.405081 
L 253.566576 294.433578 
L 349.302295 242.786677 
L 351.201455 246.307073 
" clip-path="url(#pc096abfee7)" style="fill: #ffffff; fill-opacity: 0.121212"/>
   </g>
   <g id="Quiver_38">
    <path d="M 132.656718 265.172304 
L 222.36808 296.859345 
L 214.937253 287.871418 
L 238.674375 304.74 
L 209.608511 302.957986 
L 221.035894 300.630987 
L 131.324532 268.943946 
L 132.656718 265.172304 
" clip-path="url(#pc096abfee7)" style="fill: #ffffff; fill-opacity: 0.121212"/>
   </g>
   <g id="Quiver_39">
    <path d="M 133.26204 265.514265 
L 252.477295 363.691534 
L 248.572236 352.70288 
L 265.100625 376.678125 
L 238.40092 365.053764 
L 249.934466 366.779255 
L 130.71921 268.601985 
L 133.26204 265.514265 
" clip-path="url(#pc096abfee7)" style="fill: #ffffff; fill-opacity: 0.121212"/>
   </g>
   <g id="Quiver_40">
    <path d="M 263.419483 375.594722 
L 338.820109 258.593751 
L 328.359669 263.749253 
L 350.251875 244.546875 
L 341.808806 272.416475 
L 342.182393 260.760556 
L 266.781767 377.761528 
L 263.419483 375.594722 
" clip-path="url(#pc096abfee7)" style="fill: #ffffff; fill-opacity: 0.121212"/>
   </g>
   <g id="Quiver_41">
    <path d="M 263.82921 378.221985 
L 144.613955 280.044716 
L 148.519014 291.03337 
L 131.990625 267.058125 
L 158.69033 278.682486 
L 147.156784 276.956995 
L 266.37204 375.134265 
L 263.82921 378.221985 
" clip-path="url(#pc096abfee7)" style="fill: #ffffff; fill-opacity: 0.121212"/>
   </g>
   <g id="Quiver_42">
    <path d="M 237.724795 302.979802 
L 333.460513 251.332901 
L 321.810781 250.80021 
L 350.251875 244.546875 
L 329.407425 264.881794 
L 335.359674 254.853297 
L 239.623955 306.500198 
L 237.724795 302.979802 
" clip-path="url(#pc096abfee7)" style="fill: #ffffff; fill-opacity: 0.121212"/>
   </g>
   <g id="Quiver_43">
    <path d="M 120.786238 202.703737 
L 229.168624 267.818847 
L 223.686649 257.525745 
L 243.568125 278.803125 
L 215.446746 271.240846 
L 227.108648 271.247622 
L 118.726262 206.132513 
L 120.786238 202.703737 
" clip-path="url(#pc096abfee7)" style="fill: #ffffff; fill-opacity: 0.090909"/>
   </g>
   <g id="Quiver_44">
    <path d="M 243.676773 280.800172 
L 72.751443 290.099218 
L 83.06262 295.54712 
L 54.669375 289.08 
L 82.193439 279.570746 
L 72.534148 286.105125 
L 243.459477 276.806078 
L 243.676773 280.800172 
" clip-path="url(#pc096abfee7)" style="fill: #ffffff; fill-opacity: 0.090909"/>
   </g>
   <g id="Quiver_45">
    <path d="M 142.839493 372.788901 
L 229.20148 289.830342 
L 217.833215 292.430833 
L 243.568125 278.803125 
L 228.917274 303.969622 
L 231.972495 292.715039 
L 145.610507 375.673599 
L 142.839493 372.788901 
" clip-path="url(#pc096abfee7)" style="fill: #ffffff; fill-opacity: 0.090909"/>
   </g>
   <g id="Quiver_46">
    <path d="M 244.953632 280.245474 
L 158.591645 363.204033 
L 169.95991 360.603542 
L 144.225 374.23125 
L 158.875851 349.064753 
L 155.82063 360.319336 
L 242.182618 277.360776 
L 244.953632 280.245474 
" clip-path="url(#pc096abfee7)" style="fill: #ffffff; fill-opacity: 0.090909"/>
   </g>
   <g id="Quiver_47">
    <path d="M 351.933017 245.630278 
L 276.532391 362.631249 
L 286.992831 357.475747 
L 265.100625 376.678125 
L 273.543694 348.808525 
L 273.170107 360.464444 
L 348.570733 243.463472 
L 351.933017 245.630278 
" clip-path="url(#pc096abfee7)" style="fill: #ffffff; fill-opacity: 0.090909"/>
   </g>
   <g id="Quiver_48">
    <path d="M 54.838975 287.087204 
L 220.908811 301.220807 
L 211.453629 294.394421 
L 238.674375 304.74 
L 210.096832 310.336789 
L 220.569611 305.206399 
L 54.499775 291.072796 
L 54.838975 287.087204 
" clip-path="url(#pc096abfee7)" style="fill: #ffffff; fill-opacity: 0.090909"/>
   </g>
   <g id="Quiver_49">
    <path d="M 330.154032 330.22972 
L 231.190886 328.573433 
L 241.089082 334.739933 
L 213.226875 326.2725 
L 241.356827 318.742174 
L 231.257823 324.573993 
L 330.220968 326.23028 
L 330.154032 330.22972 
" clip-path="url(#pc096abfee7)" style="fill: #ffffff; fill-opacity: 0.090909"/>
   </g>
   <g id="Quiver_50">
    <path d="M 121.341839 205.637104 
L 67.225771 276.028681 
L 78.077429 271.757673 
L 54.669375 289.08 
L 65.39272 262.005845 
L 64.054593 273.590724 
L 118.170661 203.199146 
L 121.341839 205.637104 
" clip-path="url(#pc096abfee7)" style="fill: #ffffff; fill-opacity: 0.060606"/>
   </g>
   <g id="Quiver_51">
    <path d="M 121.343155 203.200861 
L 203.8584 310.773091 
L 202.532793 299.186773 
L 213.226875 326.2725 
L 189.837553 308.924889 
L 200.68459 313.20762 
L 118.169345 205.635389 
L 121.343155 203.200861 
" clip-path="url(#pc096abfee7)" style="fill: #ffffff; fill-opacity: 0.060606"/>
   </g>
   <g id="Quiver_52">
    <path d="M 237.384748 306.26868 
L 132.224742 217.553448 
L 135.99926 228.587623 
L 119.75625 204.418125 
L 146.316276 216.358184 
L 134.803996 214.496088 
L 239.964002 303.21132 
L 237.384748 306.26868 
" clip-path="url(#pc096abfee7)" style="fill: #ffffff; fill-opacity: 0.060606"/>
   </g>
   <g id="Quiver_53">
    <path d="M 267.023471 377.228273 
L 221.569175 536.097657 
L 230.088452 528.133869 
L 214.695 552.853125 
L 214.705682 523.732687 
L 217.723483 534.997361 
L 263.177779 376.127977 
L 267.023471 377.228273 
" clip-path="url(#pc096abfee7)" style="fill: #ffffff; fill-opacity: 0.060606"/>
   </g>
   <g id="Quiver_54">
    <path d="M 120.099285 202.447763 
L 332.861652 239.489194 
L 324.038948 231.862931 
L 350.251875 244.546875 
L 321.294664 247.625827 
L 332.175581 243.429918 
L 119.413215 206.388487 
L 120.099285 202.447763 
" clip-path="url(#pc096abfee7)" style="fill: #ffffff; fill-opacity: 0.060606"/>
   </g>
   <g id="Quiver_55">
    <path d="M 212.916334 551.938604 
L 320.178146 343.32347 
L 310.269545 349.473236 
L 330.1875 328.23 
L 324.49887 356.789403 
L 323.735478 345.152512 
L 216.473666 553.767646 
L 212.916334 551.938604 
" clip-path="url(#pc096abfee7)" style="fill: #ffffff; fill-opacity: 0.060606"/>
   </g>
   <g id="Quiver_56">
    <path d="M 211.541701 325.195379 
L 232.18886 292.892566 
L 221.747734 298.08707 
L 243.568125 278.803125 
L 235.229122 306.704039 
L 235.559207 295.046808 
L 214.912049 327.349621 
L 211.541701 325.195379 
" clip-path="url(#pc096abfee7)" style="fill: #ffffff; fill-opacity: 0.060606"/>
   </g>
   <g id="Quiver_57">
    <path d="M 212.770136 328.219649 
L 71.736979 295.137797 
L 80.102508 303.262938 
L 54.669375 289.08 
L 83.756418 287.685745 
L 72.650456 291.243499 
L 213.683614 324.325351 
L 212.770136 328.219649 
" clip-path="url(#pc096abfee7)" style="fill: #ffffff; fill-opacity: 0.060606"/>
   </g>
   <g id="Quiver_58">
    <path d="M 212.202398 324.554814 
L 333.768221 252.049484 
L 322.106357 252.018811 
L 350.251875 244.546875 
L 330.302175 265.760302 
L 335.817175 255.484856 
L 214.251352 327.990186 
L 212.202398 324.554814 
" clip-path="url(#pc096abfee7)" style="fill: #ffffff; fill-opacity: 0.060606"/>
   </g>
   <g id="Quiver_59">
    <path d="M 55.126114 287.132851 
L 196.159271 320.214703 
L 187.793742 312.089562 
L 213.226875 326.2725 
L 184.139832 327.666755 
L 195.245794 324.109001 
L 54.212636 291.027149 
L 55.126114 287.132851 
" clip-path="url(#pc096abfee7)" style="fill: #ffffff; fill-opacity: 0.060606"/>
   </g>
   <g id="Quiver_60">
    <path d="M 54.560727 287.082953 
L 225.486057 277.783907 
L 215.17488 272.336005 
L 243.568125 278.803125 
L 216.044061 288.312379 
L 225.703352 281.778 
L 54.778023 291.077047 
L 54.560727 287.082953 
" clip-path="url(#pc096abfee7)" style="fill: #ffffff; fill-opacity: 0.060606"/>
   </g>
   <g id="Quiver_61">
    <path d="M 143.744739 372.289769 
L 312.233908 330.610869 
L 301.085719 327.187731 
L 330.1875 328.23 
L 304.927808 342.719581 
L 313.19443 334.493831 
L 144.705261 376.172731 
L 143.744739 372.289769 
" clip-path="url(#pc096abfee7)" style="fill: #ffffff; fill-opacity: 0.060606"/>
   </g>
   <g id="Quiver_62">
    <path d="M 331.966166 329.144521 
L 224.704354 537.759655 
L 234.612955 531.609889 
L 214.695 552.853125 
L 220.38363 524.293722 
L 221.147022 535.930613 
L 328.408834 327.315479 
L 331.966166 329.144521 
" clip-path="url(#pc096abfee7)" style="fill: #ffffff; fill-opacity: 0.060606"/>
   </g>
   <g id="Quiver_63">
    <path d="M 242.956672 276.898886 
L 332.502273 248.145712 
L 321.14672 245.490259 
L 350.251875 244.546875 
L 326.038343 260.72417 
L 333.725179 251.954189 
L 244.179578 280.707364 
L 242.956672 276.898886 
" clip-path="url(#pc096abfee7)" style="fill: #ffffff; fill-opacity: 0.060606"/>
   </g>
   <g id="PathCollection_1">
    <path d="M 214.695 563.57693 
C 217.538986 563.57693 220.266873 562.447003 222.277875 560.436 
C 224.288878 558.424998 225.418805 555.697111 225.418805 552.853125 
C 225.418805 550.009139 224.288878 547.281252 222.277875 545.27025 
C 220.266873 543.259247 217.538986 542.12932 214.695 542.12932 
C 211.851014 542.12932 209.123127 543.259247 207.112125 545.27025 
C 205.101122 547.281252 203.971195 550.009139 203.971195 552.853125 
C 203.971195 555.697111 205.101122 558.424998 207.112125 560.436 
C 209.123127 562.447003 211.851014 563.57693 214.695 563.57693 
z
" clip-path="url(#pc096abfee7)" style="fill: #ff0000; stroke: #000000"/>
    <path d="M 243.568125 294.455601 
C 247.71921 294.455601 251.700836 292.806357 254.636097 289.871097 
C 257.571357 286.935836 259.220601 282.95421 259.220601 278.803125 
C 259.220601 274.65204 257.571357 270.670414 254.636097 267.735153 
C 251.700836 264.799893 247.71921 263.150649 243.568125 263.150649 
C 239.41704 263.150649 235.435414 264.799893 232.500153 267.735153 
C 229.564893 270.670414 227.915649 274.65204 227.915649 278.803125 
C 227.915649 282.95421 229.564893 286.935836 232.500153 289.871097 
C 235.435414 292.806357 239.41704 294.455601 243.568125 294.455601 
z
" clip-path="url(#pc096abfee7)" style="fill: #ff0000; stroke: #000000"/>
    <path d="M 213.226875 339.873971 
C 216.834027 339.873971 220.293925 338.440834 222.844567 335.890192 
C 225.395209 333.33955 226.828346 329.879652 226.828346 326.2725 
C 226.828346 322.665348 225.395209 319.20545 222.844567 316.654808 
C 220.293925 314.104166 216.834027 312.671029 213.226875 312.671029 
C 209.619723 312.671029 206.159825 314.104166 203.609183 316.654808 
C 201.058541 319.20545 199.625404 322.665348 199.625404 326.2725 
C 199.625404 329.879652 201.058541 333.33955 203.609183 335.890192 
C 206.159825 338.440834 209.619723 339.873971 213.226875 339.873971 
z
" clip-path="url(#pc096abfee7)" style="fill: #ff0000; stroke: #000000"/>
    <path d="M 330.1875 347.203666 
C 335.219375 347.203666 340.045835 345.204481 343.603908 341.646408 
C 347.161981 338.088335 349.161166 333.261875 349.161166 328.23 
C 349.161166 323.198125 347.161981 318.371665 343.603908 314.813592 
C 340.045835 311.255519 335.219375 309.256334 330.1875 309.256334 
C 325.155625 309.256334 320.329165 311.255519 316.771092 314.813592 
C 313.213019 318.371665 311.213834 323.198125 311.213834 328.23 
C 311.213834 333.261875 313.213019 338.088335 316.771092 341.646408 
C 320.329165 345.204481 325.155625 347.203666 330.1875 347.203666 
z
" clip-path="url(#pc096abfee7)" style="fill: #ff0000; stroke: #000000"/>
    <path d="M 54.669375 303.742878 
C 58.558016 303.742878 62.287911 302.197905 65.037596 299.448221 
C 67.78728 296.698536 69.332253 292.968641 69.332253 289.08 
C 69.332253 285.191359 67.78728 281.461464 65.037596 278.711779 
C 62.287911 275.962095 58.558016 274.417122 54.669375 274.417122 
C 50.780734 274.417122 47.050839 275.962095 44.301154 278.711779 
C 41.55147 281.461464 40.006497 285.191359 40.006497 289.08 
C 40.006497 292.968641 41.55147 296.698536 44.301154 299.448221 
C 47.050839 302.197905 50.780734 303.742878 54.669375 303.742878 
z
" clip-path="url(#pc096abfee7)" style="fill: #ff0000; stroke: #000000"/>
    <path d="M 144.225 396.367194 
C 150.095521 396.367194 155.726391 394.034811 159.877476 389.883726 
C 164.028561 385.732641 166.360944 380.101771 166.360944 374.23125 
C 166.360944 368.360729 164.028561 362.729859 159.877476 358.578774 
C 155.726391 354.427689 150.095521 352.095306 144.225 352.095306 
C 138.354479 352.095306 132.723609 354.427689 128.572524 358.578774 
C 124.421439 362.729859 122.089056 368.360729 122.089056 374.23125 
C 122.089056 380.101771 124.421439 385.732641 128.572524 389.883726 
C 132.723609 394.034811 138.354479 396.367194 144.225 396.367194 
z
" clip-path="url(#pc096abfee7)" style="fill: #ff0000; stroke: #000000"/>
    <path d="M 131.990625 284.087511 
C 136.506871 284.087511 140.838751 282.293188 144.03222 279.09972 
C 147.225688 275.906251 149.020011 271.574371 149.020011 267.058125 
C 149.020011 262.541879 147.225688 258.209999 144.03222 255.01653 
C 140.838751 251.823062 136.506871 250.028739 131.990625 250.028739 
C 127.474379 250.028739 123.142499 251.823062 119.94903 255.01653 
C 116.755562 258.209999 114.961239 262.541879 114.961239 267.058125 
C 114.961239 271.574371 116.755562 275.906251 119.94903 279.09972 
C 123.142499 282.293188 127.474379 284.087511 131.990625 284.087511 
z
" clip-path="url(#pc096abfee7)" style="fill: #ff0000; stroke: #000000"/>
    <path d="M 265.100625 397.654302 
C 270.663572 397.654302 275.999424 395.44412 279.933022 391.510522 
C 283.86662 387.576924 286.076802 382.241072 286.076802 376.678125 
C 286.076802 371.115178 283.86662 365.779326 279.933022 361.845728 
C 275.999424 357.91213 270.663572 355.701948 265.100625 355.701948 
C 259.537678 355.701948 254.201826 357.91213 250.268228 361.845728 
C 246.33463 365.779326 244.124448 371.115178 244.124448 376.678125 
C 244.124448 382.241072 246.33463 387.576924 250.268228 391.510522 
C 254.201826 395.44412 259.537678 397.654302 265.100625 397.654302 
z
" clip-path="url(#pc096abfee7)" style="fill: #ff0000; stroke: #000000"/>
    <path d="M 238.674375 316.141754 
C 241.698156 316.141754 244.598497 314.940393 246.736633 312.802258 
C 248.874768 310.664122 250.076129 307.763781 250.076129 304.74 
C 250.076129 301.716219 248.874768 298.815878 246.736633 296.677742 
C 244.598497 294.539607 241.698156 293.338246 238.674375 293.338246 
C 235.650594 293.338246 232.750253 294.539607 230.612117 296.677742 
C 228.473982 298.815878 227.272621 301.716219 227.272621 304.74 
C 227.272621 307.763781 228.473982 310.664122 230.612117 312.802258 
C 232.750253 314.940393 235.650594 316.141754 238.674375 316.141754 
z
" clip-path="url(#pc096abfee7)" style="fill: #ff0000; stroke: #000000"/>
    <path d="M 350.251875 256.379035 
C 353.3898 256.379035 356.399627 255.132324 358.618475 252.913475 
C 360.837324 250.694627 362.084035 247.6848 362.084035 244.546875 
C 362.084035 241.40895 360.837324 238.399123 358.618475 236.180275 
C 356.399627 233.961426 353.3898 232.714715 350.251875 232.714715 
C 347.11395 232.714715 344.104123 233.961426 341.885275 236.180275 
C 339.666426 238.399123 338.419715 241.40895 338.419715 244.546875 
C 338.419715 247.6848 339.666426 250.694627 341.885275 252.913475 
C 344.104123 255.132324 347.11395 256.379035 350.251875 256.379035 
z
" clip-path="url(#pc096abfee7)" style="fill: #ff0000; stroke: #000000"/>
    <path d="M 119.75625 216.665574 
C 123.004311 216.665574 126.119778 215.375105 128.416504 213.078379 
C 130.71323 210.781653 132.003699 207.666186 132.003699 204.418125 
C 132.003699 201.170064 130.71323 198.054597 128.416504 195.757871 
C 126.119778 193.461145 123.004311 192.170676 119.75625 192.170676 
C 116.508189 192.170676 113.392722 193.461145 111.095996 195.757871 
C 108.79927 198.054597 107.508801 201.170064 107.508801 204.418125 
C 107.508801 207.666186 108.79927 210.781653 111.095996 213.078379 
C 113.392722 215.375105 116.508189 216.665574 119.75625 216.665574 
z
" clip-path="url(#pc096abfee7)" style="fill: #ff0000; stroke: #000000"/>
   </g>
   <g id="matplotlib.axis_1">
    <g id="xtick_1"/>
    <g id="xtick_2"/>
    <g id="xtick_3"/>
    <g id="xtick_4"/>
    <g id="xtick_5"/>
    <g id="xtick_6"/>
    <g id="xtick_7"/>
    <g id="xtick_8"/>
    <g id="xtick_9"/>
   </g>
   <g id="matplotlib.axis_2">
    <g id="ytick_1"/>
    <g id="ytick_2"/>
    <g id="ytick_3"/>
    <g id="ytick_4"/>
    <g id="ytick_5"/>
    <g id="ytick_6"/>
    <g id="ytick_7"/>
   </g>
   <g id="text_1">
    <!-- 1 -->
    <g style="fill: #ffffff" transform="translate(211.55875 557.236875) scale(0.16 -0.16)">
     <defs>
      <path id="Montserrat-Bold-31" d="M 941 0 
L 1978 0 
L 1978 4480 
L 45 4480 
L 45 3648 
L 941 3648 
L 941 0 
z
" transform="scale(0.015625)"/>
     </defs>
     <use xlink:href="#Montserrat-Bold-31"/>
    </g>
   </g>
   <g id="text_2">
    <!-- 8 -->
    <g style="fill: #ffffff" transform="translate(238.288125 283.186875) scale(0.16 -0.16)">
     <defs>
      <path id="Montserrat-Bold-38" d="M 2106 -77 
C 3245 -77 4000 454 4000 1299 
C 4000 1779 3750 2138 3315 2355 
C 3648 2560 3840 2874 3840 3277 
C 3840 4064 3136 4557 2106 4557 
C 1088 4557 384 4064 384 3277 
C 384 2874 576 2566 902 2355 
C 474 2138 224 1779 224 1299 
C 224 454 973 -77 2106 -77 
z
M 2106 685 
C 1594 685 1274 934 1274 1331 
C 1274 1728 1594 1971 2106 1971 
C 2624 1971 2950 1728 2950 1331 
C 2950 934 2624 685 2106 685 
z
M 2106 2682 
C 1683 2682 1414 2893 1414 3232 
C 1414 3584 1690 3795 2106 3795 
C 2528 3795 2810 3584 2810 3232 
C 2810 2893 2534 2682 2106 2682 
z
" transform="scale(0.015625)"/>
     </defs>
     <use xlink:href="#Montserrat-Bold-38"/>
    </g>
   </g>
   <g id="text_3">
    <!-- 5 -->
    <g style="fill: #ffffff" transform="translate(208.466875 330.65625) scale(0.16 -0.16)">
     <defs>
      <path id="Montserrat-Bold-35" d="M 1773 -77 
C 3053 -77 3635 614 3635 1408 
C 3635 2202 3110 2797 1786 2797 
L 1421 2797 
L 1491 3648 
L 3360 3648 
L 3360 4480 
L 627 4480 
L 397 1958 
L 1542 1958 
C 2355 1958 2586 1728 2586 1376 
C 2586 1011 2266 794 1747 794 
C 1280 794 813 941 474 1197 
L 64 403 
C 499 96 1152 -77 1773 -77 
z
" transform="scale(0.015625)"/>
     </defs>
     <use xlink:href="#Montserrat-Bold-35"/>
    </g>
   </g>
   <g id="text_4">
    <!-- 13 -->
    <g style="fill: #ffffff" transform="translate(322.315 332.61375) scale(0.16 -0.16)">
     <defs>
      <path id="Montserrat-Bold-33" d="M 1702 -77 
C 2976 -77 3558 614 3558 1370 
C 3558 2029 3149 2528 2342 2662 
L 3354 3808 
L 3354 4480 
L 218 4480 
L 218 3648 
L 2118 3648 
L 1203 2605 
L 1203 1920 
L 1677 1920 
C 2266 1920 2515 1709 2515 1370 
C 2515 1005 2195 794 1677 794 
C 1210 794 736 941 397 1197 
L -6 403 
C 429 96 1075 -77 1702 -77 
z
" transform="scale(0.015625)"/>
     </defs>
     <use xlink:href="#Montserrat-Bold-31"/>
     <use xlink:href="#Montserrat-Bold-33" x="39.199997"/>
    </g>
   </g>
   <g id="text_5">
    <!-- 16 -->
    <g style="fill: #ffffff" transform="translate(46.436875 293.46375) scale(0.16 -0.16)">
     <defs>
      <path id="Montserrat-Bold-36" d="M 2253 -77 
C 3200 -77 3949 499 3949 1414 
C 3949 2259 3270 2810 2406 2810 
C 1939 2810 1562 2669 1299 2406 
C 1331 3270 1811 3712 2560 3712 
C 2861 3712 3149 3654 3398 3488 
L 3782 4250 
C 3469 4448 3008 4557 2534 4557 
C 1184 4557 250 3693 250 2144 
C 250 698 1018 -77 2253 -77 
z
M 2195 698 
C 1696 698 1408 979 1408 1363 
C 1408 1754 1728 2035 2182 2035 
C 2643 2035 2944 1773 2944 1363 
C 2944 954 2637 698 2195 698 
z
" transform="scale(0.015625)"/>
     </defs>
     <use xlink:href="#Montserrat-Bold-31"/>
     <use xlink:href="#Montserrat-Bold-36" x="39.199997"/>
    </g>
   </g>
   <g id="text_6">
    <!-- 3 -->
    <g style="fill: #ffffff" transform="translate(139.48875 378.615) scale(0.16 -0.16)">
     <use xlink:href="#Montserrat-Bold-33"/>
    </g>
   </g>
   <g id="text_7">
    <!-- 20 -->
    <g style="fill: #ffffff" transform="translate(121.838125 271.441875) scale(0.16 -0.16)">
     <defs>
      <path id="Montserrat-Bold-32" d="M 211 0 
L 3597 0 
L 3597 845 
L 1670 845 
L 2701 1818 
C 3328 2400 3450 2797 3450 3232 
C 3450 4045 2784 4557 1786 4557 
C 979 4557 352 4230 6 3725 
L 762 3238 
C 979 3539 1306 3686 1690 3686 
C 2163 3686 2406 3482 2406 3130 
C 2406 2912 2336 2682 1939 2304 
L 211 672 
L 211 0 
z
" transform="scale(0.015625)"/>
      <path id="Montserrat-Bold-30" d="M 2170 -77 
C 3277 -77 4090 762 4090 2240 
C 4090 3718 3277 4557 2170 4557 
C 1069 4557 250 3718 250 2240 
C 250 762 1069 -77 2170 -77 
z
M 2170 800 
C 1658 800 1299 1222 1299 2240 
C 1299 3258 1658 3680 2170 3680 
C 2688 3680 3046 3258 3046 2240 
C 3046 1222 2688 800 2170 800 
z
" transform="scale(0.015625)"/>
     </defs>
     <use xlink:href="#Montserrat-Bold-32"/>
     <use xlink:href="#Montserrat-Bold-30" x="58.999985"/>
    </g>
   </g>
   <g id="text_8">
    <!-- 4 -->
    <g style="fill: #ffffff" transform="translate(259.588125 381.061875) scale(0.16 -0.16)">
     <defs>
      <path id="Montserrat-Bold-34" d="M 198 941 
L 2611 941 
L 2611 0 
L 3622 0 
L 3622 941 
L 4352 941 
L 4352 1786 
L 3622 1786 
L 3622 2624 
L 2643 2624 
L 2643 1786 
L 1446 1786 
L 3398 4480 
L 2310 4480 
L 198 1638 
L 198 941 
z
" transform="scale(0.015625)"/>
     </defs>
     <use xlink:href="#Montserrat-Bold-34"/>
    </g>
   </g>
   <g id="text_9">
    <!-- 9 -->
    <g style="fill: #ffffff" transform="translate(233.578125 309.12375) scale(0.16 -0.16)">
     <defs>
      <path id="Montserrat-Bold-39" d="M 1542 -77 
C 2899 -77 3827 787 3827 2336 
C 3827 3782 3066 4557 1824 4557 
C 877 4557 128 3981 128 3066 
C 128 2221 806 1670 1670 1670 
C 2138 1670 2522 1811 2784 2074 
C 2752 1210 2266 768 1523 768 
C 1216 768 928 826 685 992 
L 301 230 
C 614 32 1069 -77 1542 -77 
z
M 1901 2445 
C 1440 2445 1139 2707 1139 3117 
C 1139 3526 1446 3782 1888 3782 
C 2381 3782 2669 3501 2669 3117 
C 2669 2726 2355 2445 1901 2445 
z
" transform="scale(0.015625)"/>
     </defs>
     <use xlink:href="#Montserrat-Bold-39"/>
    </g>
   </g>
   <g id="text_10">
    <!-- 26 -->
    <g style="fill: #ffffff" transform="translate(340.435625 248.930625) scale(0.16 -0.16)">
     <use xlink:href="#Montserrat-Bold-32"/>
     <use xlink:href="#Montserrat-Bold-36" x="58.999985"/>
    </g>
   </g>
   <g id="text_11">
    <!-- 7 -->
    <g style="fill: #ffffff" transform="translate(114.79625 208.801875) scale(0.16 -0.16)">
     <defs>
      <path id="Montserrat-Bold-37" d="M 966 0 
L 2093 0 
L 3757 3808 
L 3757 4480 
L 166 4480 
L 166 2906 
L 1088 2906 
L 1088 3635 
L 2573 3635 
L 966 0 
z
" transform="scale(0.015625)"/>
     </defs>
     <use xlink:href="#Montserrat-Bold-37"/>
    </g>
   </g>
  </g>
 </g>
 <defs>
  <clipPath id="pc096abfee7">
   <rect x="7.2" y="7.2" width="430.65" height="626.4"/>
  </clipPath>
 </defs>
</svg>
