<?xml version="1.0" encoding="utf-8" standalone="no"?>
<!DOCTYPE svg PUBLIC "-//W3C//DTD SVG 1.1//EN"
  "http://www.w3.org/Graphics/SVG/1.1/DTD/svg11.dtd">
<svg xmlns:xlink="http://www.w3.org/1999/xlink" width="445.05pt" height="640.8pt" viewBox="0 0 445.05 640.8" xmlns="http://www.w3.org/2000/svg" version="1.1">
 <metadata>
  <rdf:RDF xmlns:dc="http://purl.org/dc/elements/1.1/" xmlns:cc="http://creativecommons.org/ns#" xmlns:rdf="http://www.w3.org/1999/02/22-rdf-syntax-ns#">
   <cc:Work>
    <dc:type rdf:resource="http://purl.org/dc/dcmitype/StillImage"/>
    <dc:date>2026-06-29T16:45:38.515397</dc:date>
    <dc:format>image/svg+xml</dc:format>
    <dc:creator>
     <cc:Agent>
      <dc:title>Matplotlib v3.9.0, https://matplotlib.org/</dc:title>
     </cc:Agent>
    </dc:creator>
   </cc:Work>
  </rdf:RDF>
 </metadata>
 <defs>
  <style type="text/css">*{stroke-linejoin: round; stroke-linecap: butt}</style>
 </defs>
 <g id="figure_1">
  <g id="patch_1">
   <path d="M 0 640.8 
L 445.05 640.8 
L 445.05 0 
L 0 0 
z
" style="fill: #1e2836"/>
  </g>
  <g id="axes_1">
   <g id="patch_2">
    <path d="M 7.2 633.6 
L 437.85 633.6 
L 437.85 7.2 
L 7.2 7.2 
z
" style="fill: #1e2836"/>
   </g>
   <g id="line2d_1">
    <path d="M 418.275 320.4 
L 26.775 320.4 
L 26.775 26.775 
L 418.275 26.775 
L 418.275 614.025 
L 26.775 614.025 
L 26.775 320.4 
" clip-path="url(#pae79ee7e0e)" style="fill: none; stroke: #c7d5cc; stroke-width: 2; stroke-linecap: square"/>
   </g>
   <g id="line2d_2">
    <path d="M 330.1875 26.775 
L 330.1875 114.8625 
L 114.8625 114.8625 
L 114.8625 26.775 
" clip-path="url(#pae79ee7e0e)" style="fill: none; stroke: #c7d5cc; stroke-width: 2; stroke-linecap: square"/>
   </g>
   <g id="line2d_3">
    <path d="M 330.1875 614.025 
L 330.1875 525.9375 
L 114.8625 525.9375 
L 114.8625 614.025 
" clip-path="url(#pae79ee7e0e)" style="fill: none; stroke: #c7d5cc; stroke-width: 2; stroke-linecap: square"/>
   </g>
   <g id="line2d_4">
    <path d="M 271.4625 26.775 
L 271.4625 56.1375 
L 173.5875 56.1375 
L 173.5875 26.775 
" clip-path="url(#pae79ee7e0e)" style="fill: none; stroke: #c7d5cc; stroke-width: 2; stroke-linecap: square"/>
   </g>
   <g id="line2d_5">
    <path d="M 271.4625 614.025 
L 271.4625 584.6625 
L 173.5875 584.6625 
L 173.5875 614.025 
" clip-path="url(#pae79ee7e0e)" style="fill: none; stroke: #c7d5cc; stroke-width: 2; stroke-linecap: square"/>
   </g>
   <g id="patch_3">
    <path d="M 222.525 369.3375 
C 235.503377 369.3375 247.95194 364.181136 257.129038 355.004038 
C 266.306136 345.82694 271.4625 333.378377 271.4625 320.4 
C 271.4625 307.421623 266.306136 294.97306 257.129038 285.795962 
C 247.95194 276.618864 235.503377 271.4625 222.525 271.4625 
C 209.546623 271.4625 197.09806 276.618864 187.920962 285.795962 
C 178.743864 294.97306 173.5875 307.421623 173.5875 320.4 
C 173.5875 333.378377 178.743864 345.82694 187.920962 355.004038 
C 197.09806 364.181136 209.546623 369.3375 222.525 369.3375 
L 222.525 369.3375 
z
" clip-path="url(#pae79ee7e0e)" style="fill: none; stroke: #c7d5cc; stroke-width: 2; stroke-linejoin: miter"/>
   </g>
   <g id="patch_4">
    <path d="M 261.633912 525.882795 
C 257.074189 519.820839 251.166876 514.901235 244.379913 511.513682 
C 237.59295 508.126128 230.110406 506.3625 222.525 506.3625 
C 214.939594 506.3625 207.45705 508.126128 200.670087 511.513682 
C 193.883124 514.901235 187.975811 519.820839 183.416088 525.882795 
" clip-path="url(#pae79ee7e0e)" style="fill: none; stroke: #c7d5cc; stroke-width: 2; stroke-linejoin: miter"/>
   </g>
   <g id="patch_5">
    <path d="M 183.416088 114.917205 
C 187.975811 120.979161 193.883124 125.898765 200.670087 129.286318 
C 207.45705 132.673872 214.939594 134.4375 222.525 134.4375 
C 230.110406 134.4375 237.59295 132.673872 244.379913 129.286318 
C 251.166876 125.898765 257.074189 120.979161 261.633912 114.917205 
" clip-path="url(#pae79ee7e0e)" style="fill: none; stroke: #c7d5cc; stroke-width: 2; stroke-linejoin: miter"/>
   </g>
   <g id="patch_6">
    <path d="M 222.525 321.5745 
C 222.836481 321.5745 223.135247 321.450747 223.355497 321.230497 
C 223.575747 321.010247 223.6995 320.711481 223.6995 320.4 
C 223.6995 320.088519 223.575747 319.789753 223.355497 319.569503 
C 223.135247 319.349253 222.836481 319.2255 222.525 319.2255 
C 222.213519 319.2255 221.914753 319.349253 221.694503 319.569503 
C 221.474253 319.789753 221.3505 320.088519 221.3505 320.4 
C 221.3505 320.711481 221.474253 321.010247 221.694503 321.230497 
C 221.914753 321.450747 222.213519 321.5745 222.525 321.5745 
z
" clip-path="url(#pae79ee7e0e)" style="fill: #c7d5cc; stroke: #c7d5cc; stroke-linejoin: miter"/>
   </g>
   <g id="patch_7">
    <path d="M 222.525 556.4745 
C 222.836481 556.4745 223.135247 556.350747 223.355497 556.130497 
C 223.575747 555.910247 223.6995 555.611481 223.6995 555.3 
C 223.6995 554.988519 223.575747 554.689753 223.355497 554.469503 
C 223.135247 554.249253 222.836481 554.1255 222.525 554.1255 
C 222.213519 554.1255 221.914753 554.249253 221.694503 554.469503 
C 221.474253 554.689753 221.3505 554.988519 221.3505 555.3 
C 221.3505 555.611481 221.474253 555.910247 221.694503 556.130497 
C 221.914753 556.350747 222.213519 556.4745 222.525 556.4745 
z
" clip-path="url(#pae79ee7e0e)" style="fill: #c7d5cc; stroke: #c7d5cc; stroke-linejoin: miter"/>
   </g>
   <g id="patch_8">
    <path d="M 222.525 86.6745 
C 222.836481 86.6745 223.135247 86.550747 223.355497 86.330497 
C 223.575747 86.110247 223.6995 85.811481 223.6995 85.5 
C 223.6995 85.188519 223.575747 84.889753 223.355497 84.669503 
C 223.135247 84.449253 222.836481 84.3255 222.525 84.3255 
C 222.213519 84.3255 221.914753 84.449253 221.694503 84.669503 
C 221.474253 84.889753 221.3505 85.188519 221.3505 85.5 
C 221.3505 85.811481 221.474253 86.110247 221.694503 86.330497 
C 221.914753 86.550747 222.213519 86.6745 222.525 86.6745 
z
" clip-path="url(#pae79ee7e0e)" style="fill: #c7d5cc; stroke: #c7d5cc; stroke-linejoin: miter"/>
   </g>
   <g id="line2d_6">
    <path d="M 202.95 26.775 
L 242.1 26.775 
" clip-path="url(#pae79ee7e0e)" style="fill: none; stroke: #c7d5cc; stroke-width: 4; stroke-linecap: square"/>
   </g>
   <g id="line2d_7">
    <path d="M 202.95 614.025 
L 242.1 614.025 
" clip-path="url(#pae79ee7e0e)" style="fill: none; stroke: #c7d5cc; stroke-width: 4; stroke-linecap: square"/>
   </g>
   <g id="Quiver_1">
    <path d="M 201.483445 457.022451 
L 219.882382 546.563948 
L 223.746849 535.560953 
L 221.54625 564.598125 
L 208.07429 538.781342 
L 215.964243 547.369045 
L 197.565305 457.827549 
L 201.483445 457.022451 
" clip-path="url(#pae79ee7e0e)" style="fill: #ffffff"/>
   </g>
   <g id="Quiver_2">
    <path d="M 154.114991 314.786961 
L 92.342011 393.143291 
L 103.244911 389.004843 
L 79.6275 406.040625 
L 90.679983 379.099159 
L 89.200779 390.66687 
L 150.973759 312.310539 
L 154.114991 314.786961 
" clip-path="url(#pae79ee7e0e)" style="fill: #ffffff; fill-opacity: 0.714286"/>
   </g>
   <g id="Quiver_3">
    <path d="M 198.736536 459.26329 
L 95.384272 414.969462 
L 102.212206 424.423526 
L 79.6275 406.040625 
L 108.514915 409.717205 
L 96.959949 411.292882 
L 200.312214 455.58671 
L 198.736536 459.26329 
" clip-path="url(#pae79ee7e0e)" style="fill: #ffffff; fill-opacity: 0.571429"/>
   </g>
   <g id="Quiver_4">
    <path d="M 260.79245 325.564691 
L 334.679665 372.657641 
L 329.471718 362.223213 
L 348.78375 384.01875 
L 320.872119 375.715688 
L 332.529765 376.03076 
L 258.64255 328.937809 
L 260.79245 325.564691 
" clip-path="url(#pae79ee7e0e)" style="fill: #ffffff; fill-opacity: 0.571429"/>
   </g>
   <g id="Quiver_5">
    <path d="M 95.121999 261.625505 
L 140.188418 300.307514 
L 136.508189 289.241534 
L 152.544375 313.54875 
L 126.087197 301.382495 
L 137.58317 303.342755 
L 92.516751 264.660745 
L 95.121999 261.625505 
" clip-path="url(#pae79ee7e0e)" style="fill: #ffffff; fill-opacity: 0.571429"/>
   </g>
   <g id="Quiver_6">
    <path d="M 349.666389 385.81345 
L 216.559314 451.275946 
L 228.180731 452.246849 
L 199.524375 457.425 
L 221.119617 437.88925 
L 214.794035 447.686546 
L 347.901111 382.22405 
L 349.666389 385.81345 
" clip-path="url(#pae79ee7e0e)" style="fill: #ffffff; fill-opacity: 0.5"/>
   </g>
   <g id="Quiver_7">
    <path d="M 198.641736 455.6303 
L 331.748811 390.167804 
L 320.127394 389.196901 
L 348.78375 384.01875 
L 327.188508 403.5545 
L 333.51409 393.757204 
L 200.407014 459.2197 
L 198.641736 455.6303 
" clip-path="url(#pae79ee7e0e)" style="fill: #ffffff; fill-opacity: 0.5"/>
   </g>
   <g id="Quiver_8">
    <path d="M 154.445586 312.927946 
L 195.838354 439.693298 
L 198.437969 428.324833 
L 199.524375 457.425 
L 183.228281 433.291261 
L 192.035932 440.934905 
L 150.643164 314.169554 
L 154.445586 312.927946 
" clip-path="url(#pae79ee7e0e)" style="fill: #ffffff; fill-opacity: 0.5"/>
   </g>
   <g id="Quiver_9">
    <path d="M 77.637291 405.842967 
L 90.050247 280.857347 
L 83.091331 290.215419 
L 93.819375 263.143125 
L 99.013002 291.79668 
L 94.030664 281.252663 
L 81.617709 406.238283 
L 77.637291 405.842967 
" clip-path="url(#pae79ee7e0e)" style="fill: #ffffff; fill-opacity: 0.5"/>
   </g>
   <g id="Quiver_10">
    <path d="M 219.58718 565.000674 
L 201.188243 475.459177 
L 197.323776 486.462172 
L 199.524375 457.425 
L 212.996335 483.241783 
L 205.106382 474.65408 
L 223.50532 564.195576 
L 219.58718 565.000674 
" clip-path="url(#pae79ee7e0e)" style="fill: #ffffff; fill-opacity: 0.428571"/>
   </g>
   <g id="Quiver_11">
    <path d="M 78.056884 404.802414 
L 139.829864 326.446084 
L 128.926964 330.584532 
L 152.544375 313.54875 
L 141.491892 340.490216 
L 142.971096 328.922505 
L 81.198116 407.278836 
L 78.056884 404.802414 
" clip-path="url(#pae79ee7e0e)" style="fill: #ffffff; fill-opacity: 0.428571"/>
   </g>
   <g id="Quiver_12">
    <path d="M 80.415339 404.202335 
L 183.767603 448.496163 
L 176.939669 439.042099 
L 199.524375 457.425 
L 170.63696 453.74842 
L 182.191926 452.172743 
L 78.839661 407.878915 
L 80.415339 404.202335 
" clip-path="url(#pae79ee7e0e)" style="fill: #ffffff; fill-opacity: 0.357143"/>
   </g>
   <g id="Quiver_13">
    <path d="M 397.682042 242.631491 
L 315.846083 241.026864 
L 325.726536 247.221752 
L 297.88875 238.674375 
L 326.040202 231.224827 
L 315.924499 237.027633 
L 397.760458 238.632259 
L 397.682042 242.631491 
" clip-path="url(#pae79ee7e0e)" style="fill: #ffffff; fill-opacity: 0.357143"/>
   </g>
   <g id="Quiver_14">
    <path d="M 261.532819 328.090664 
L 208.894424 441.926543 
L 218.537454 435.368191 
L 199.524375 457.425 
L 204.014901 428.652875 
L 205.263786 440.247714 
L 257.902181 326.411836 
L 261.532819 328.090664 
" clip-path="url(#pae79ee7e0e)" style="fill: #ffffff; fill-opacity: 0.357143"/>
   </g>
   <g id="Quiver_15">
    <path d="M 399.614046 241.27788 
L 356.490595 367.629591 
L 365.399011 360.103627 
L 348.78375 384.01875 
L 350.256642 354.935583 
L 352.705003 366.33758 
L 395.828454 239.98587 
L 399.614046 241.27788 
" clip-path="url(#pae79ee7e0e)" style="fill: #ffffff; fill-opacity: 0.357143"/>
   </g>
   <g id="Quiver_16">
    <path d="M 220.056008 565.931984 
L 90.141985 420.786662 
L 92.340552 432.239448 
L 79.6275 406.040625 
L 104.262488 421.568579 
L 93.122469 418.118945 
L 223.036492 563.264266 
L 220.056008 565.931984 
" clip-path="url(#pae79ee7e0e)" style="fill: #ffffff; fill-opacity: 0.357143"/>
   </g>
   <g id="Quiver_17">
    <path d="M 299.725462 239.465886 
L 268.677812 311.512355 
L 278.145503 304.70333 
L 259.7175 327.25125 
L 263.451809 298.371241 
L 265.004389 309.929333 
L 296.052038 237.882864 
L 299.725462 239.465886 
" clip-path="url(#pae79ee7e0e)" style="fill: #ffffff; fill-opacity: 0.357143"/>
   </g>
   <g id="Quiver_18">
    <path d="M 347.7088 385.705309 
L 273.821585 338.612359 
L 279.029532 349.046787 
L 259.7175 327.25125 
L 287.629131 335.554312 
L 275.971485 335.23924 
L 349.8587 382.332191 
L 347.7088 385.705309 
" clip-path="url(#pae79ee7e0e)" style="fill: #ffffff; fill-opacity: 0.357143"/>
   </g>
   <g id="Quiver_19">
    <path d="M 95.809584 263.340783 
L 83.396628 388.326403 
L 90.355544 378.968331 
L 79.6275 406.040625 
L 74.433873 377.38707 
L 79.416211 387.931087 
L 91.829166 262.945467 
L 95.809584 263.340783 
" clip-path="url(#pae79ee7e0e)" style="fill: #ffffff; fill-opacity: 0.357143"/>
   </g>
   <g id="Quiver_20">
    <path d="M 258.654264 325.557281 
L 381.412296 248.507027 
L 369.752746 248.7413 
L 397.72125 240.631875 
L 378.258631 262.293049 
L 383.538767 251.894965 
L 260.780736 328.945219 
L 258.654264 325.557281 
" clip-path="url(#pae79ee7e0e)" style="fill: #ffffff; fill-opacity: 0.285714"/>
   </g>
   <g id="Quiver_21">
    <path d="M 81.117742 404.706766 
L 211.031765 549.852088 
L 208.833198 538.399302 
L 221.54625 564.598125 
L 196.911262 549.070171 
L 208.051281 552.519805 
L 78.137258 407.374484 
L 81.117742 404.706766 
" clip-path="url(#pae79ee7e0e)" style="fill: #ffffff; fill-opacity: 0.285714"/>
   </g>
   <g id="Quiver_22">
    <path d="M 348.107807 385.901063 
L 168.809247 321.514547 
L 176.192983 330.5412 
L 152.544375 313.54875 
L 181.600525 315.482697 
L 170.161133 317.749922 
L 349.459693 382.136437 
L 348.107807 385.901063 
" clip-path="url(#pae79ee7e0e)" style="fill: #ffffff; fill-opacity: 0.285714"/>
   </g>
   <g id="Quiver_23">
    <path d="M 297.927958 236.674759 
L 379.763917 238.279386 
L 369.883464 232.084498 
L 397.72125 240.631875 
L 369.569798 248.081423 
L 379.685501 242.278617 
L 297.849542 240.673991 
L 297.927958 236.674759 
" clip-path="url(#pae79ee7e0e)" style="fill: #ffffff; fill-opacity: 0.285714"/>
   </g>
   <g id="Quiver_24">
    <path d="M 150.415098 270.029485 
L 111.581084 266.681725 
L 121.028802 273.518437 
L 93.819375 263.143125 
L 122.403015 257.57756 
L 111.924638 262.696506 
L 150.758652 266.044265 
L 150.415098 270.029485 
" clip-path="url(#pae79ee7e0e)" style="fill: #ffffff; fill-opacity: 0.285714"/>
   </g>
   <g id="Quiver_25">
    <path d="M 152.798018 311.564899 
L 242.116483 322.984611 
L 232.958157 315.764843 
L 259.7175 327.25125 
L 230.929012 331.635652 
L 241.609197 326.952314 
L 152.290732 315.532601 
L 152.798018 311.564899 
" clip-path="url(#pae79ee7e0e)" style="fill: #ffffff; fill-opacity: 0.285714"/>
   </g>
   <g id="Quiver_26">
    <path d="M 197.623164 458.045804 
L 156.230396 331.280452 
L 153.630781 342.648917 
L 152.544375 313.54875 
L 168.840469 337.682489 
L 160.032818 330.038845 
L 201.425586 456.804196 
L 197.623164 458.045804 
" clip-path="url(#pae79ee7e0e)" style="fill: #ffffff; fill-opacity: 0.285714"/>
   </g>
   <g id="Quiver_27">
    <path d="M 259.463857 329.235101 
L 170.145392 317.815389 
L 179.303718 325.035157 
L 152.544375 313.54875 
L 181.332863 309.164348 
L 170.652678 313.847686 
L 259.971143 325.267399 
L 259.463857 329.235101 
" clip-path="url(#pae79ee7e0e)" style="fill: #ffffff; fill-opacity: 0.214286"/>
   </g>
   <g id="Quiver_28">
    <path d="M 346.890954 383.372745 
L 390.014405 257.021034 
L 381.105989 264.546998 
L 397.72125 240.631875 
L 396.248358 269.715042 
L 393.799997 258.313045 
L 350.676546 384.664755 
L 346.890954 383.372745 
" clip-path="url(#pae79ee7e0e)" style="fill: #ffffff; fill-opacity: 0.214286"/>
   </g>
   <g id="Quiver_29">
    <path d="M 93.581272 261.157349 
L 279.778662 238.831523 
L 269.135473 234.064707 
L 297.88875 238.674375 
L 271.040294 249.950917 
L 280.254867 242.803075 
L 94.057478 265.128901 
L 93.581272 261.157349 
" clip-path="url(#pae79ee7e0e)" style="fill: #ffffff; fill-opacity: 0.214286"/>
   </g>
   <g id="Quiver_30">
    <path d="M 152.585028 267.950933 
L 153.769049 295.479434 
L 159.333797 285.230845 
L 152.544375 313.54875 
L 143.348576 285.918381 
L 149.772744 295.651318 
L 148.588722 268.122817 
L 152.585028 267.950933 
" clip-path="url(#pae79ee7e0e)" style="fill: #ffffff; fill-opacity: 0.214286"/>
   </g>
   <g id="Quiver_31">
    <path d="M 197.709056 456.585586 
L 250.347451 342.749707 
L 240.704421 349.308059 
L 259.7175 327.25125 
L 255.226974 356.023375 
L 253.978089 344.428536 
L 201.339694 458.264414 
L 197.709056 456.585586 
" clip-path="url(#pae79ee7e0e)" style="fill: #ffffff; fill-opacity: 0.214286"/>
   </g>
   <g id="Quiver_32">
    <path d="M 219.911333 563.446151 
L 336.781063 397.581033 
L 326.116439 402.299697 
L 348.78375 384.01875 
L 339.195779 411.515492 
L 340.050898 399.884981 
L 223.181167 565.750099 
L 219.911333 563.446151 
" clip-path="url(#pae79ee7e0e)" style="fill: #ffffff; fill-opacity: 0.214286"/>
   </g>
   <g id="Quiver_33">
    <path d="M 219.571623 564.280556 
L 254.884754 344.70532 
L 247.37303 353.625747 
L 259.7175 327.25125 
L 263.170043 356.166297 
L 258.834007 345.340458 
L 223.520877 564.915694 
L 219.571623 564.280556 
" clip-path="url(#pae79ee7e0e)" style="fill: #ffffff; fill-opacity: 0.214286"/>
   </g>
   <g id="Quiver_34">
    <path d="M 346.896132 384.679734 
L 301.949988 256.323917 
L 299.592055 267.744957 
L 297.88875 238.674375 
L 314.692996 262.457086 
L 305.725223 255.00195 
L 350.671368 383.357766 
L 346.896132 384.679734 
" clip-path="url(#pae79ee7e0e)" style="fill: #ffffff; fill-opacity: 0.214286"/>
   </g>
   <g id="Quiver_35">
    <path d="M 197.587977 457.925361 
L 153.153729 285.964821 
L 149.84634 297.147897 
L 150.586875 268.036875 
L 165.337527 293.145006 
L 157.026525 284.964099 
L 201.460773 456.924639 
L 197.587977 457.925361 
" clip-path="url(#pae79ee7e0e)" style="fill: #ffffff; fill-opacity: 0.142857"/>
   </g>
   <g id="Quiver_36">
    <path d="M 257.880788 326.459739 
L 288.928438 254.41327 
L 279.460747 261.222295 
L 297.88875 238.674375 
L 294.154441 267.554384 
L 292.601861 255.996292 
L 261.554212 328.042761 
L 257.880788 326.459739 
" clip-path="url(#pae79ee7e0e)" style="fill: #ffffff; fill-opacity: 0.142857"/>
   </g>
   <g id="Quiver_37">
    <path d="M 347.899165 385.812492 
L 221.145341 323.303756 
L 227.460295 333.107907 
L 205.88625 313.54875 
L 234.536974 318.757973 
L 222.914511 319.716273 
L 349.668335 382.225008 
L 347.899165 385.812492 
" clip-path="url(#pae79ee7e0e)" style="fill: #ffffff; fill-opacity: 0.142857"/>
   </g>
   <g id="Quiver_38">
    <path d="M 398.784486 242.325844 
L 276.026454 319.376098 
L 287.686004 319.141825 
L 259.7175 327.25125 
L 279.180119 305.590076 
L 273.899983 315.98816 
L 396.658014 238.937906 
L 398.784486 242.325844 
" clip-path="url(#pae79ee7e0e)" style="fill: #ffffff; fill-opacity: 0.142857"/>
   </g>
   <g id="Quiver_39">
    <path d="M 258.996593 329.116804 
L 109.888456 271.496846 
L 117.053505 280.698045 
L 93.819375 263.143125 
L 122.820764 265.773611 
L 111.33027 267.765737 
L 260.438407 325.385696 
L 258.996593 329.116804 
" clip-path="url(#pae79ee7e0e)" style="fill: #ffffff; fill-opacity: 0.142857"/>
   </g>
   <g id="Quiver_40">
    <path d="M 299.836044 239.130498 
L 227.598649 547.528606 
L 235.721143 539.160507 
L 221.54625 564.598125 
L 220.142795 535.511525 
L 223.704062 546.616361 
L 295.941456 238.218252 
L 299.836044 239.130498 
" clip-path="url(#pae79ee7e0e)" style="fill: #ffffff; fill-opacity: 0.142857"/>
   </g>
   <g id="Quiver_41">
    <path d="M 151.974244 311.631734 
L 379.897974 243.846034 
L 368.602501 240.945638 
L 397.72125 240.631875 
L 373.163545 256.281768 
L 381.038235 247.680066 
L 153.114506 315.465766 
L 151.974244 311.631734 
" clip-path="url(#pae79ee7e0e)" style="fill: #ffffff; fill-opacity: 0.142857"/>
   </g>
   <g id="Quiver_42">
    <path d="M 152.365524 268.951429 
L 89.63713 390.947338 
L 99.545845 384.797755 
L 79.6275 406.040625 
L 85.316654 377.481326 
L 86.079833 389.118231 
L 148.808226 267.122321 
L 152.365524 268.951429 
" clip-path="url(#pae79ee7e0e)" style="fill: #ffffff; fill-opacity: 0.142857"/>
   </g>
   <g id="Quiver_43">
    <path d="M 150.195896 266.075463 
L 279.845067 240.231775 
L 268.865072 236.302435 
L 297.88875 238.674375 
L 271.992904 251.993728 
L 280.627025 244.154598 
L 150.977854 269.998287 
L 150.195896 266.075463 
" clip-path="url(#pae79ee7e0e)" style="fill: #ffffff; fill-opacity: 0.142857"/>
   </g>
   <g id="Quiver_44">
    <path d="M 151.241751 315.06637 
L 106.175332 276.384361 
L 109.855561 287.450341 
L 93.819375 263.143125 
L 120.276553 275.30938 
L 108.78058 273.34912 
L 153.846999 312.03113 
L 151.241751 315.06637 
" clip-path="url(#pae79ee7e0e)" style="fill: #ffffff; fill-opacity: 0.142857"/>
   </g>
   <g id="Quiver_45">
    <path d="M 299.776368 238.013391 
L 344.722512 366.369208 
L 347.080445 354.948168 
L 348.78375 384.01875 
L 331.979504 360.236039 
L 340.947277 367.691175 
L 296.001132 239.335359 
L 299.776368 238.013391 
" clip-path="url(#pae79ee7e0e)" style="fill: #ffffff; fill-opacity: 0.142857"/>
   </g>
   <g id="Quiver_46">
    <path d="M 77.848851 405.126071 
L 140.577245 283.130162 
L 130.66853 289.279745 
L 150.586875 268.036875 
L 144.897721 296.596174 
L 144.134542 284.959269 
L 81.406149 406.955179 
L 77.848851 405.126071 
" clip-path="url(#pae79ee7e0e)" style="fill: #ffffff; fill-opacity: 0.142857"/>
   </g>
   <g id="Quiver_47">
    <path d="M 150.546222 313.634692 
L 149.362201 286.106191 
L 143.797453 296.35478 
L 150.586875 268.036875 
L 159.782674 295.667244 
L 153.358506 285.934307 
L 154.542528 313.462808 
L 150.546222 313.634692 
" clip-path="url(#pae79ee7e0e)" style="fill: #ffffff; fill-opacity: 0.142857"/>
   </g>
   <g id="Quiver_48">
    <path d="M 79.464409 404.047286 
L 330.680606 383.493233 
L 320.224636 378.328673 
L 348.78375 384.01875 
L 321.529367 394.275386 
L 331.006789 387.479912 
L 79.790591 408.033964 
L 79.464409 404.047286 
" clip-path="url(#pae79ee7e0e)" style="fill: #ffffff; fill-opacity: 0.142857"/>
   </g>
   <g id="Quiver_49">
    <path d="M 205.175648 311.679246 
L 380.185113 245.157791 
L 368.705788 243.102291 
L 397.72125 240.631875 
L 374.390606 258.058321 
L 381.606318 248.896799 
L 206.596852 315.418254 
L 205.175648 311.679246 
" clip-path="url(#pae79ee7e0e)" style="fill: #ffffff; fill-opacity: 0.142857"/>
   </g>
   <g id="Quiver_50">
    <path d="M 298.126853 240.660151 
L 111.929463 262.985977 
L 122.572652 267.752793 
L 93.819375 263.143125 
L 120.667831 251.866583 
L 111.453258 259.014425 
L 297.650647 236.688599 
L 298.126853 240.660151 
" clip-path="url(#pae79ee7e0e)" style="fill: #ffffff; fill-opacity: 0.142857"/>
   </g>
   <g id="Quiver_51">
    <path d="M 153.220318 311.666437 
L 332.518878 376.052953 
L 325.135142 367.0263 
L 348.78375 384.01875 
L 319.7276 382.084803 
L 331.166992 379.817578 
L 151.868432 315.431063 
L 153.220318 311.666437 
" clip-path="url(#pae79ee7e0e)" style="fill: #ffffff; fill-opacity: 0.142857"/>
   </g>
   <g id="PathCollection_1">
    <path d="M 205.88625 320.619818 
C 207.761519 320.619818 209.560235 319.874765 210.88625 318.54875 
C 212.212266 317.222734 212.957318 315.424019 212.957318 313.54875 
C 212.957318 311.673481 212.212266 309.874765 210.88625 308.54875 
C 209.560235 307.222734 207.761519 306.477682 205.88625 306.477682 
C 204.010981 306.477682 202.212266 307.222734 200.88625 308.54875 
C 199.560235 309.874765 198.815182 311.673481 198.815182 313.54875 
C 198.815182 315.424019 199.560235 317.222734 200.88625 318.54875 
C 202.212266 319.874765 204.010981 320.619818 205.88625 320.619818 
z
" clip-path="url(#pae79ee7e0e)" style="fill: #ff0000; stroke: #000000"/>
    <path d="M 152.544375 326.393983 
C 155.950971 326.393983 159.218499 325.040528 161.627326 322.631701 
C 164.036153 320.222874 165.389608 316.955346 165.389608 313.54875 
C 165.389608 310.142154 164.036153 306.874626 161.627326 304.465799 
C 159.218499 302.056972 155.950971 300.703517 152.544375 300.703517 
C 149.137779 300.703517 145.870251 302.056972 143.461424 304.465799 
C 141.052597 306.874626 139.699142 310.142154 139.699142 313.54875 
C 139.699142 316.955346 141.052597 320.222874 143.461424 322.631701 
C 145.870251 325.040528 149.137779 326.393983 152.544375 326.393983 
z
" clip-path="url(#pae79ee7e0e)" style="fill: #ff0000; stroke: #000000"/>
    <path d="M 150.586875 276.697129 
C 152.883601 276.697129 155.086569 275.78463 156.710599 274.160599 
C 158.33463 272.536569 159.247129 270.333601 159.247129 268.036875 
C 159.247129 265.740149 158.33463 263.537181 156.710599 261.913151 
C 155.086569 260.28912 152.883601 259.376621 150.586875 259.376621 
C 148.290149 259.376621 146.087181 260.28912 144.463151 261.913151 
C 142.83912 263.537181 141.926621 265.740149 141.926621 268.036875 
C 141.926621 270.333601 142.83912 272.536569 144.463151 274.160599 
C 146.087181 275.78463 148.290149 276.697129 150.586875 276.697129 
z
" clip-path="url(#pae79ee7e0e)" style="fill: #ff0000; stroke: #000000"/>
    <path d="M 79.6275 420.873022 
C 83.561098 420.873022 87.334115 419.310187 90.115588 416.528713 
C 92.897062 413.74724 94.459897 409.974223 94.459897 406.040625 
C 94.459897 402.107027 92.897062 398.33401 90.115588 395.552537 
C 87.334115 392.771063 83.561098 391.208228 79.6275 391.208228 
C 75.693902 391.208228 71.920885 392.771063 69.139412 395.552537 
C 66.357938 398.33401 64.795103 402.107027 64.795103 406.040625 
C 64.795103 409.974223 66.357938 413.74724 69.139412 416.528713 
C 71.920885 419.310187 75.693902 420.873022 79.6275 420.873022 
z
" clip-path="url(#pae79ee7e0e)" style="fill: #ff0000; stroke: #000000"/>
    <path d="M 297.88875 249.39818 
C 300.732736 249.39818 303.460623 248.268253 305.471625 246.25725 
C 307.482628 244.246248 308.612555 241.518361 308.612555 238.674375 
C 308.612555 235.830389 307.482628 233.102502 305.471625 231.0915 
C 303.460623 229.080497 300.732736 227.95057 297.88875 227.95057 
C 295.044764 227.95057 292.316877 229.080497 290.305875 231.0915 
C 288.294872 233.102502 287.164945 235.830389 287.164945 238.674375 
C 287.164945 241.518361 288.294872 244.246248 290.305875 246.25725 
C 292.316877 248.268253 295.044764 249.39818 297.88875 249.39818 
z
" clip-path="url(#pae79ee7e0e)" style="fill: #ff0000; stroke: #000000"/>
    <path d="M 259.7175 339.900361 
C 263.072083 339.900361 266.289723 338.567571 268.661772 336.195522 
C 271.033821 333.823473 272.366611 330.605833 272.366611 327.25125 
C 272.366611 323.896667 271.033821 320.679027 268.661772 318.306978 
C 266.289723 315.934929 263.072083 314.602139 259.7175 314.602139 
C 256.362917 314.602139 253.145277 315.934929 250.773228 318.306978 
C 248.401179 320.679027 247.068389 323.896667 247.068389 327.25125 
C 247.068389 330.605833 248.401179 333.823473 250.773228 336.195522 
C 253.145277 338.567571 256.362917 339.900361 259.7175 339.900361 
z
" clip-path="url(#pae79ee7e0e)" style="fill: #ff0000; stroke: #000000"/>
    <path d="M 93.819375 274.097576 
C 96.724529 274.097576 99.511087 272.943346 101.565342 270.889092 
C 103.619596 268.834837 104.773826 266.048279 104.773826 263.143125 
C 104.773826 260.237971 103.619596 257.451413 101.565342 255.397158 
C 99.511087 253.342904 96.724529 252.188674 93.819375 252.188674 
C 90.914221 252.188674 88.127663 253.342904 86.073408 255.397158 
C 84.019154 257.451413 82.864924 260.237971 82.864924 263.143125 
C 82.864924 266.048279 84.019154 268.834837 86.073408 270.889092 
C 88.127663 272.943346 90.914221 274.097576 93.819375 274.097576 
z
" clip-path="url(#pae79ee7e0e)" style="fill: #ff0000; stroke: #000000"/>
    <path d="M 397.72125 251.119963 
C 400.502724 251.119963 403.17065 250.014872 405.137448 248.048073 
C 407.104247 246.081275 408.209338 243.413349 408.209338 240.631875 
C 408.209338 237.850401 407.104247 235.182475 405.137448 233.215677 
C 403.17065 231.248878 400.502724 230.143787 397.72125 230.143787 
C 394.939776 230.143787 392.27185 231.248878 390.305052 233.215677 
C 388.338253 235.182475 387.233162 237.850401 387.233162 240.631875 
C 387.233162 243.413349 388.338253 246.081275 390.305052 248.048073 
C 392.27185 250.014872 394.939776 251.119963 397.72125 251.119963 
z
" clip-path="url(#pae79ee7e0e)" style="fill: #ff0000; stroke: #000000"/>
    <path d="M 199.524375 472.75471 
C 203.589862 472.75471 207.489384 471.139475 210.364117 468.264742 
C 213.23885 465.390009 214.854085 461.490487 214.854085 457.425 
C 214.854085 453.359513 213.23885 449.459991 210.364117 446.585258 
C 207.489384 443.710525 203.589862 442.09529 199.524375 442.09529 
C 195.458888 442.09529 191.559366 443.710525 188.684633 446.585258 
C 185.8099 449.459991 184.194665 453.359513 184.194665 457.425 
C 184.194665 461.490487 185.8099 465.390009 188.684633 468.264742 
C 191.559366 471.139475 195.458888 472.75471 199.524375 472.75471 
z
" clip-path="url(#pae79ee7e0e)" style="fill: #ff0000; stroke: #000000"/>
    <path d="M 348.78375 397.435158 
C 352.341823 397.435158 355.754645 396.02152 358.270583 393.505583 
C 360.78652 390.989645 362.200158 387.576823 362.200158 384.01875 
C 362.200158 380.460677 360.78652 377.047855 358.270583 374.531917 
C 355.754645 372.01598 352.341823 370.602342 348.78375 370.602342 
C 345.225677 370.602342 341.812855 372.01598 339.296917 374.531917 
C 336.78098 377.047855 335.367342 380.460677 335.367342 384.01875 
C 335.367342 387.576823 336.78098 390.989645 339.296917 393.505583 
C 341.812855 396.02152 345.225677 397.435158 348.78375 397.435158 
z
" clip-path="url(#pae79ee7e0e)" style="fill: #ff0000; stroke: #000000"/>
    <path d="M 221.54625 578.199596 
C 225.153402 578.199596 228.6133 576.766459 231.163942 574.215817 
C 233.714584 571.665175 235.147721 568.205277 235.147721 564.598125 
C 235.147721 560.990973 233.714584 557.531075 231.163942 554.980433 
C 228.6133 552.429791 225.153402 550.996654 221.54625 550.996654 
C 217.939098 550.996654 214.4792 552.429791 211.928558 554.980433 
C 209.377916 557.531075 207.944779 560.990973 207.944779 564.598125 
C 207.944779 568.205277 209.377916 571.665175 211.928558 574.215817 
C 214.4792 576.766459 217.939098 578.199596 221.54625 578.199596 
z
" clip-path="url(#pae79ee7e0e)" style="fill: #ff0000; stroke: #000000"/>
   </g>
   <g id="matplotlib.axis_1">
    <g id="xtick_1"/>
    <g id="xtick_2"/>
    <g id="xtick_3"/>
    <g id="xtick_4"/>
    <g id="xtick_5"/>
    <g id="xtick_6"/>
    <g id="xtick_7"/>
    <g id="xtick_8"/>
    <g id="xtick_9"/>
   </g>
   <g id="matplotlib.axis_2">
    <g id="ytick_1"/>
    <g id="ytick_2"/>
    <g id="ytick_3"/>
    <g id="ytick_4"/>
    <g id="ytick_5"/>
    <g id="ytick_6"/>
    <g id="ytick_7"/>
   </g>
   <g id="text_1">
    <!-- 18 -->
    <g style="fill: #ffffff" transform="translate(197.47 317.9325) scale(0.16 -0.16)">
     <defs>
      <path id="Montserrat-Bold-31" d="M 941 0 
L 1978 0 
L 1978 4480 
L 45 4480 
L 45 3648 
L 941 3648 
L 941 0 
z
" transform="scale(0.015625)"/>
      <path id="Montserrat-Bold-38" d="M 2106 -77 
C 3245 -77 4000 454 4000 1299 
C 4000 1779 3750 2138 3315 2355 
C 3648 2560 3840 2874 3840 3277 
C 3840 4064 3136 4557 2106 4557 
C 1088 4557 384 4064 384 3277 
C 384 2874 576 2566 902 2355 
C 474 2138 224 1779 224 1299 
C 224 454 973 -77 2106 -77 
z
M 2106 685 
C 1594 685 1274 934 1274 1331 
C 1274 1728 1594 1971 2106 1971 
C 2624 1971 2950 1728 2950 1331 
C 2950 934 2624 685 2106 685 
z
M 2106 2682 
C 1683 2682 1414 2893 1414 3232 
C 1414 3584 1690 3795 2106 3795 
C 2528 3795 2810 3584 2810 3232 
C 2810 2893 2534 2682 2106 2682 
z
" transform="scale(0.015625)"/>
     </defs>
     <use xlink:href="#Montserrat-Bold-31"/>
     <use xlink:href="#Montserrat-Bold-38" x="39.199997"/>
    </g>
   </g>
   <g id="text_2">
    <!-- 15 -->
    <g style="fill: #ffffff" transform="translate(144.648125 317.9325) scale(0.16 -0.16)">
     <defs>
      <path id="Montserrat-Bold-35" d="M 1773 -77 
C 3053 -77 3635 614 3635 1408 
C 3635 2202 3110 2797 1786 2797 
L 1421 2797 
L 1491 3648 
L 3360 3648 
L 3360 4480 
L 627 4480 
L 397 1958 
L 1542 1958 
C 2355 1958 2586 1728 2586 1376 
C 2586 1011 2266 794 1747 794 
C 1280 794 813 941 474 1197 
L 64 403 
C 499 96 1152 -77 1773 -77 
z
" transform="scale(0.015625)"/>
     </defs>
     <use xlink:href="#Montserrat-Bold-31"/>
     <use xlink:href="#Montserrat-Bold-35" x="39.199997"/>
    </g>
   </g>
   <g id="text_3">
    <!-- 11 -->
    <g style="fill: #ffffff" transform="translate(144.314375 272.420625) scale(0.16 -0.16)">
     <use xlink:href="#Montserrat-Bold-31"/>
     <use xlink:href="#Montserrat-Bold-31" x="39.199997"/>
    </g>
   </g>
   <g id="text_4">
    <!-- 21 -->
    <g style="fill: #ffffff" transform="translate(71.77125 410.424375) scale(0.16 -0.16)">
     <defs>
      <path id="Montserrat-Bold-32" d="M 211 0 
L 3597 0 
L 3597 845 
L 1670 845 
L 2701 1818 
C 3328 2400 3450 2797 3450 3232 
C 3450 4045 2784 4557 1786 4557 
C 979 4557 352 4230 6 3725 
L 762 3238 
C 979 3539 1306 3686 1690 3686 
C 2163 3686 2406 3482 2406 3130 
C 2406 2912 2336 2682 1939 2304 
L 211 672 
L 211 0 
z
" transform="scale(0.015625)"/>
     </defs>
     <use xlink:href="#Montserrat-Bold-32"/>
     <use xlink:href="#Montserrat-Bold-31" x="58.999985"/>
    </g>
   </g>
   <g id="text_5">
    <!-- 14 -->
    <g style="fill: #ffffff" transform="translate(289.24 243.058125) scale(0.16 -0.16)">
     <defs>
      <path id="Montserrat-Bold-34" d="M 198 941 
L 2611 941 
L 2611 0 
L 3622 0 
L 3622 941 
L 4352 941 
L 4352 1786 
L 3622 1786 
L 3622 2624 
L 2643 2624 
L 2643 1786 
L 1446 1786 
L 3398 4480 
L 2310 4480 
L 198 1638 
L 198 941 
z
" transform="scale(0.015625)"/>
     </defs>
     <use xlink:href="#Montserrat-Bold-31"/>
     <use xlink:href="#Montserrat-Bold-34" x="39.199997"/>
    </g>
   </g>
   <g id="text_6">
    <!-- 24 -->
    <g style="fill: #ffffff" transform="translate(249.485 331.635) scale(0.16 -0.16)">
     <use xlink:href="#Montserrat-Bold-32"/>
     <use xlink:href="#Montserrat-Bold-34" x="58.999985"/>
    </g>
   </g>
   <g id="text_7">
    <!-- 13 -->
    <g style="fill: #ffffff" transform="translate(85.946875 267.526875) scale(0.16 -0.16)">
     <defs>
      <path id="Montserrat-Bold-33" d="M 1702 -77 
C 2976 -77 3558 614 3558 1370 
C 3558 2029 3149 2528 2342 2662 
L 3354 3808 
L 3354 4480 
L 218 4480 
L 218 3648 
L 2118 3648 
L 1203 2605 
L 1203 1920 
L 1677 1920 
C 2266 1920 2515 1709 2515 1370 
C 2515 1005 2195 794 1677 794 
C 1210 794 736 941 397 1197 
L -6 403 
C 429 96 1075 -77 1702 -77 
z
" transform="scale(0.015625)"/>
     </defs>
     <use xlink:href="#Montserrat-Bold-31"/>
     <use xlink:href="#Montserrat-Bold-33" x="39.199997"/>
    </g>
   </g>
   <g id="text_8">
    <!-- 10 -->
    <g style="fill: #ffffff" transform="translate(389.1525 245.015625) scale(0.16 -0.16)">
     <defs>
      <path id="Montserrat-Bold-30" d="M 2170 -77 
C 3277 -77 4090 762 4090 2240 
C 4090 3718 3277 4557 2170 4557 
C 1069 4557 250 3718 250 2240 
C 250 762 1069 -77 2170 -77 
z
M 2170 800 
C 1658 800 1299 1222 1299 2240 
C 1299 3258 1658 3680 2170 3680 
C 2688 3680 3046 3258 3046 2240 
C 3046 1222 2688 800 2170 800 
z
" transform="scale(0.015625)"/>
     </defs>
     <use xlink:href="#Montserrat-Bold-31"/>
     <use xlink:href="#Montserrat-Bold-30" x="39.199997"/>
    </g>
   </g>
   <g id="text_9">
    <!-- 3 -->
    <g style="fill: #ffffff" transform="translate(194.788125 461.80875) scale(0.16 -0.16)">
     <use xlink:href="#Montserrat-Bold-33"/>
    </g>
   </g>
   <g id="text_10">
    <!-- 22 -->
    <g style="fill: #ffffff" transform="translate(339.34375 388.4025) scale(0.16 -0.16)">
     <use xlink:href="#Montserrat-Bold-32"/>
     <use xlink:href="#Montserrat-Bold-32" x="58.999985"/>
    </g>
   </g>
   <g id="text_11">
    <!-- 1 -->
    <g style="fill: #ffffff" transform="translate(218.41 568.981875) scale(0.16 -0.16)">
     <use xlink:href="#Montserrat-Bold-31"/>
    </g>
   </g>
  </g>
 </g>
 <defs>
  <clipPath id="pae79ee7e0e">
   <rect x="7.2" y="7.2" width="430.65" height="626.4"/>
  </clipPath>
 </defs>
</svg>
