<?xml version="1.0" encoding="utf-8" standalone="no"?>
<!DOCTYPE svg PUBLIC "-//W3C//DTD SVG 1.1//EN"
  "http://www.w3.org/Graphics/SVG/1.1/DTD/svg11.dtd">
<svg xmlns:xlink="http://www.w3.org/1999/xlink" width="445.05pt" height="640.8pt" viewBox="0 0 445.05 640.8" xmlns="http://www.w3.org/2000/svg" version="1.1">
 <metadata>
  <rdf:RDF xmlns:dc="http://purl.org/dc/elements/1.1/" xmlns:cc="http://creativecommons.org/ns#" xmlns:rdf="http://www.w3.org/1999/02/22-rdf-syntax-ns#">
   <cc:Work>
    <dc:type rdf:resource="http://purl.org/dc/dcmitype/StillImage"/>
    <dc:date>2026-06-29T16:45:37.410436</dc:date>
    <dc:format>image/svg+xml</dc:format>
    <dc:creator>
     <cc:Agent>
      <dc:title>Matplotlib v3.9.0, https://matplotlib.org/</dc:title>
     </cc:Agent>
    </dc:creator>
   </cc:Work>
  </rdf:RDF>
 </metadata>
 <defs>
  <style type="text/css">*{stroke-linejoin: round; stroke-linecap: butt}</style>
 </defs>
 <g id="figure_1">
  <g id="patch_1">
   <path d="M 0 640.8 
L 445.05 640.8 
L 445.05 0 
L 0 0 
z
" style="fill: #1e2836"/>
  </g>
  <g id="axes_1">
   <g id="patch_2">
    <path d="M 7.2 633.6 
L 437.85 633.6 
L 437.85 7.2 
L 7.2 7.2 
z
" style="fill: #1e2836"/>
   </g>
   <g id="line2d_1">
    <path d="M 418.275 320.4 
L 26.775 320.4 
L 26.775 26.775 
L 418.275 26.775 
L 418.275 614.025 
L 26.775 614.025 
L 26.775 320.4 
" clip-path="url(#p37704dc655)" style="fill: none; stroke: #c7d5cc; stroke-width: 2; stroke-linecap: square"/>
   </g>
   <g id="line2d_2">
    <path d="M 330.1875 26.775 
L 330.1875 114.8625 
L 114.8625 114.8625 
L 114.8625 26.775 
" clip-path="url(#p37704dc655)" style="fill: none; stroke: #c7d5cc; stroke-width: 2; stroke-linecap: square"/>
   </g>
   <g id="line2d_3">
    <path d="M 330.1875 614.025 
L 330.1875 525.9375 
L 114.8625 525.9375 
L 114.8625 614.025 
" clip-path="url(#p37704dc655)" style="fill: none; stroke: #c7d5cc; stroke-width: 2; stroke-linecap: square"/>
   </g>
   <g id="line2d_4">
    <path d="M 271.4625 26.775 
L 271.4625 56.1375 
L 173.5875 56.1375 
L 173.5875 26.775 
" clip-path="url(#p37704dc655)" style="fill: none; stroke: #c7d5cc; stroke-width: 2; stroke-linecap: square"/>
   </g>
   <g id="line2d_5">
    <path d="M 271.4625 614.025 
L 271.4625 584.6625 
L 173.5875 584.6625 
L 173.5875 614.025 
" clip-path="url(#p37704dc655)" style="fill: none; stroke: #c7d5cc; stroke-width: 2; stroke-linecap: square"/>
   </g>
   <g id="patch_3">
    <path d="M 222.525 369.3375 
C 235.503377 369.3375 247.95194 364.181136 257.129038 355.004038 
C 266.306136 345.82694 271.4625 333.378377 271.4625 320.4 
C 271.4625 307.421623 266.306136 294.97306 257.129038 285.795962 
C 247.95194 276.618864 235.503377 271.4625 222.525 271.4625 
C 209.546623 271.4625 197.09806 276.618864 187.920962 285.795962 
C 178.743864 294.97306 173.5875 307.421623 173.5875 320.4 
C 173.5875 333.378377 178.743864 345.82694 187.920962 355.004038 
C 197.09806 364.181136 209.546623 369.3375 222.525 369.3375 
L 222.525 369.3375 
z
" clip-path="url(#p37704dc655)" style="fill: none; stroke: #c7d5cc; stroke-width: 2; stroke-linejoin: miter"/>
   </g>
   <g id="patch_4">
    <path d="M 261.633912 525.882795 
C 257.074189 519.820839 251.166876 514.901235 244.379913 511.513682 
C 237.59295 508.126128 230.110406 506.3625 222.525 506.3625 
C 214.939594 506.3625 207.45705 508.126128 200.670087 511.513682 
C 193.883124 514.901235 187.975811 519.820839 183.416088 525.882795 
" clip-path="url(#p37704dc655)" style="fill: none; stroke: #c7d5cc; stroke-width: 2; stroke-linejoin: miter"/>
   </g>
   <g id="patch_5">
    <path d="M 183.416088 114.917205 
C 187.975811 120.979161 193.883124 125.898765 200.670087 129.286318 
C 207.45705 132.673872 214.939594 134.4375 222.525 134.4375 
C 230.110406 134.4375 237.59295 132.673872 244.379913 129.286318 
C 251.166876 125.898765 257.074189 120.979161 261.633912 114.917205 
" clip-path="url(#p37704dc655)" style="fill: none; stroke: #c7d5cc; stroke-width: 2; stroke-linejoin: miter"/>
   </g>
   <g id="patch_6">
    <path d="M 222.525 321.5745 
C 222.836481 321.5745 223.135247 321.450747 223.355497 321.230497 
C 223.575747 321.010247 223.6995 320.711481 223.6995 320.4 
C 223.6995 320.088519 223.575747 319.789753 223.355497 319.569503 
C 223.135247 319.349253 222.836481 319.2255 222.525 319.2255 
C 222.213519 319.2255 221.914753 319.349253 221.694503 319.569503 
C 221.474253 319.789753 221.3505 320.088519 221.3505 320.4 
C 221.3505 320.711481 221.474253 321.010247 221.694503 321.230497 
C 221.914753 321.450747 222.213519 321.5745 222.525 321.5745 
z
" clip-path="url(#p37704dc655)" style="fill: #c7d5cc; stroke: #c7d5cc; stroke-linejoin: miter"/>
   </g>
   <g id="patch_7">
    <path d="M 222.525 556.4745 
C 222.836481 556.4745 223.135247 556.350747 223.355497 556.130497 
C 223.575747 555.910247 223.6995 555.611481 223.6995 555.3 
C 223.6995 554.988519 223.575747 554.689753 223.355497 554.469503 
C 223.135247 554.249253 222.836481 554.1255 222.525 554.1255 
C 222.213519 554.1255 221.914753 554.249253 221.694503 554.469503 
C 221.474253 554.689753 221.3505 554.988519 221.3505 555.3 
C 221.3505 555.611481 221.474253 555.910247 221.694503 556.130497 
C 221.914753 556.350747 222.213519 556.4745 222.525 556.4745 
z
" clip-path="url(#p37704dc655)" style="fill: #c7d5cc; stroke: #c7d5cc; stroke-linejoin: miter"/>
   </g>
   <g id="patch_8">
    <path d="M 222.525 86.6745 
C 222.836481 86.6745 223.135247 86.550747 223.355497 86.330497 
C 223.575747 86.110247 223.6995 85.811481 223.6995 85.5 
C 223.6995 85.188519 223.575747 84.889753 223.355497 84.669503 
C 223.135247 84.449253 222.836481 84.3255 222.525 84.3255 
C 222.213519 84.3255 221.914753 84.449253 221.694503 84.669503 
C 221.474253 84.889753 221.3505 85.188519 221.3505 85.5 
C 221.3505 85.811481 221.474253 86.110247 221.694503 86.330497 
C 221.914753 86.550747 222.213519 86.6745 222.525 86.6745 
z
" clip-path="url(#p37704dc655)" style="fill: #c7d5cc; stroke: #c7d5cc; stroke-linejoin: miter"/>
   </g>
   <g id="line2d_6">
    <path d="M 202.95 26.775 
L 242.1 26.775 
" clip-path="url(#p37704dc655)" style="fill: none; stroke: #c7d5cc; stroke-width: 4; stroke-linecap: square"/>
   </g>
   <g id="line2d_7">
    <path d="M 202.95 614.025 
L 242.1 614.025 
" clip-path="url(#p37704dc655)" style="fill: none; stroke: #c7d5cc; stroke-width: 4; stroke-linecap: square"/>
   </g>
   <g id="Quiver_1">
    <path d="M 274.294474 335.12103 
L 170.415618 329.697636 
L 180.08919 336.210853 
L 152.544375 326.761875 
L 180.923395 320.232615 
L 170.624169 325.703076 
L 274.503026 331.12647 
L 274.294474 335.12103 
" clip-path="url(#p37704dc655)" style="fill: #ffffff"/>
   </g>
   <g id="Quiver_2">
    <path d="M 360.206914 275.548284 
L 290.295218 324.44606 
L 301.928628 323.631342 
L 274.39875 333.12375 
L 292.758318 310.520072 
L 288.00264 321.168242 
L 357.914336 272.270466 
L 360.206914 275.548284 
" clip-path="url(#p37704dc655)" style="fill: #ffffff; fill-opacity: 0.659574"/>
   </g>
   <g id="Quiver_3">
    <path d="M 273.252461 331.484841 
L 343.164157 282.587065 
L 331.530747 283.401783 
L 359.060625 273.909375 
L 340.701057 296.513053 
L 345.456735 285.864883 
L 275.545039 334.762659 
L 273.252461 331.484841 
" clip-path="url(#p37704dc655)" style="fill: #ffffff; fill-opacity: 0.617021"/>
   </g>
   <g id="Quiver_4">
    <path d="M 78.551649 254.346378 
L 140.810298 312.966534 
L 137.642759 301.743045 
L 152.544375 326.761875 
L 126.674565 313.392024 
L 138.068249 315.878779 
L 75.809601 257.258622 
L 78.551649 254.346378 
" clip-path="url(#p37704dc655)" style="fill: #ffffff; fill-opacity: 0.617021"/>
   </g>
   <g id="Quiver_5">
    <path d="M 152.648651 324.764595 
L 256.527507 330.187989 
L 246.853935 323.674772 
L 274.39875 333.12375 
L 246.01973 339.65301 
L 256.318956 334.182549 
L 152.440099 328.759155 
L 152.648651 324.764595 
" clip-path="url(#p37704dc655)" style="fill: #ffffff; fill-opacity: 0.574468"/>
   </g>
   <g id="Quiver_6">
    <path d="M 151.173351 328.217997 
L 88.914702 269.597841 
L 92.082241 280.82133 
L 77.180625 255.8025 
L 103.050435 269.172351 
L 91.656751 266.685596 
L 153.915399 325.305753 
L 151.173351 328.217997 
" clip-path="url(#p37704dc655)" style="fill: #ffffff; fill-opacity: 0.531915"/>
   </g>
   <g id="Quiver_7">
    <path d="M 151.714365 324.942237 
L 191.126372 306.96483 
L 179.53815 305.655968 
L 208.333125 301.314375 
L 186.178233 320.213072 
L 192.786392 310.604106 
L 153.374385 328.581513 
L 151.714365 324.942237 
" clip-path="url(#p37704dc655)" style="fill: #ffffff; fill-opacity: 0.510638"/>
   </g>
   <g id="Quiver_8">
    <path d="M 209.200756 299.512372 
L 259.048351 323.513066 
L 252.641228 313.768899 
L 274.39875 333.12375 
L 245.700178 328.184926 
L 257.313089 327.117072 
L 207.465494 303.116378 
L 209.200756 299.512372 
" clip-path="url(#p37704dc655)" style="fill: #ffffff; fill-opacity: 0.489362"/>
   </g>
   <g id="Quiver_9">
    <path d="M 150.587417 327.174567 
L 139.131019 272.849066 
L 135.323603 283.871932 
L 137.37375 254.82375 
L 150.979269 280.570397 
L 143.044935 272.023682 
L 154.501333 326.349183 
L 150.587417 327.174567 
" clip-path="url(#p37704dc655)" style="fill: #ffffff; fill-opacity: 0.319149"/>
   </g>
   <g id="Quiver_10">
    <path d="M 209.163135 303.134013 
L 169.751128 321.11142 
L 181.33935 322.420282 
L 152.544375 326.761875 
L 174.699267 307.863178 
L 168.091108 317.472144 
L 207.503115 299.494737 
L 209.163135 303.134013 
" clip-path="url(#p37704dc655)" style="fill: #ffffff; fill-opacity: 0.297872"/>
   </g>
   <g id="Quiver_11">
    <path d="M 358.240898 275.733669 
L 263.571418 233.19496 
L 270.233707 242.766475 
L 247.9725 223.993125 
L 276.791521 228.172124 
L 265.210871 229.546372 
L 359.880352 272.085081 
L 358.240898 275.733669 
" clip-path="url(#p37704dc655)" style="fill: #ffffff; fill-opacity: 0.276596"/>
   </g>
   <g id="Quiver_12">
    <path d="M 75.222582 255.394988 
L 91.619352 176.610505 
L 83.707664 185.178187 
L 97.245 159.395625 
L 99.372012 188.43828 
L 95.535439 177.425528 
L 79.138668 256.210012 
L 75.222582 255.394988 
" clip-path="url(#p37704dc655)" style="fill: #ffffff; fill-opacity: 0.276596"/>
   </g>
   <g id="Quiver_13">
    <path d="M 272.674328 332.110652 
L 355.558945 191.030453 
L 345.320187 196.61327 
L 366.40125 176.52375 
L 359.115566 204.718054 
L 359.007789 193.056649 
L 276.123172 334.136848 
L 272.674328 332.110652 
" clip-path="url(#p37704dc655)" style="fill: #ffffff; fill-opacity: 0.276596"/>
   </g>
   <g id="Quiver_14">
    <path d="M 368.395592 176.674077 
L 362.407913 256.110621 
L 369.142577 246.58989 
L 359.060625 273.909375 
L 353.187838 245.387272 
L 358.419228 255.809966 
L 364.406908 176.373423 
L 368.395592 176.674077 
" clip-path="url(#p37704dc655)" style="fill: #ffffff; fill-opacity: 0.255319"/>
   </g>
   <g id="Quiver_15">
    <path d="M 77.836299 253.913031 
L 191.983581 293.523842 
L 184.503259 284.577067 
L 208.333125 301.314375 
L 179.257868 299.692816 
L 190.672233 297.302779 
L 76.524951 257.691969 
L 77.836299 253.913031 
" clip-path="url(#p37704dc655)" style="fill: #ffffff; fill-opacity: 0.255319"/>
   </g>
   <g id="Quiver_16">
    <path d="M 151.078788 325.400973 
L 234.258793 235.822506 
L 223.057521 239.067734 
L 247.9725 223.993125 
L 234.782217 249.954952 
L 237.189967 238.54431 
L 154.009962 328.122777 
L 151.078788 325.400973 
" clip-path="url(#p37704dc655)" style="fill: #ffffff; fill-opacity: 0.255319"/>
   </g>
   <g id="Quiver_17">
    <path d="M 150.645349 327.389331 
L 100.993077 177.114313 
L 98.433279 188.49181 
L 97.245 159.395625 
L 113.625486 183.472163 
L 104.791129 175.859402 
L 154.443401 326.134419 
L 150.645349 327.389331 
" clip-path="url(#p37704dc655)" style="fill: #ffffff; fill-opacity: 0.234043"/>
   </g>
   <g id="Quiver_18">
    <path d="M 207.975354 299.346635 
L 340.993196 275.161573 
L 330.081184 271.047208 
L 359.060625 273.909375 
L 332.943351 286.789127 
L 341.708737 279.097053 
L 208.690896 303.282115 
L 207.975354 299.346635 
" clip-path="url(#p37704dc655)" style="fill: #ffffff; fill-opacity: 0.234043"/>
   </g>
   <g id="Quiver_19">
    <path d="M 154.391415 325.994775 
L 235.085638 520.292039 
L 236.791258 508.755537 
L 240.1425 537.6825 
L 222.014937 514.892339 
L 231.391558 521.826239 
L 150.697335 327.528975 
L 154.391415 325.994775 
" clip-path="url(#p37704dc655)" style="fill: #ffffff; fill-opacity: 0.212766"/>
   </g>
   <g id="Quiver_20">
    <path d="M 357.066283 273.759048 
L 363.053962 194.322504 
L 356.319298 203.843235 
L 366.40125 176.52375 
L 372.274037 205.045853 
L 367.042647 194.623159 
L 361.054967 274.059702 
L 357.066283 273.759048 
" clip-path="url(#p37704dc655)" style="fill: #ffffff; fill-opacity: 0.212766"/>
   </g>
   <g id="Quiver_21">
    <path d="M 249.438087 225.354027 
L 166.258082 314.932494 
L 177.459354 311.687266 
L 152.544375 326.761875 
L 165.734658 300.800048 
L 163.326908 312.21069 
L 246.506913 222.632223 
L 249.438087 225.354027 
" clip-path="url(#p37704dc655)" style="fill: #ffffff; fill-opacity: 0.170213"/>
   </g>
   <g id="Quiver_22">
    <path d="M 99.144026 158.768169 
L 148.796298 309.043187 
L 151.356096 297.66569 
L 152.544375 326.761875 
L 136.163889 302.685337 
L 144.998246 310.298098 
L 95.345974 160.023081 
L 99.144026 158.768169 
" clip-path="url(#p37704dc655)" style="fill: #ffffff; fill-opacity: 0.170213"/>
   </g>
   <g id="Quiver_23">
    <path d="M 248.792227 222.168831 
L 343.461707 264.70754 
L 336.799418 255.136025 
L 359.060625 273.909375 
L 330.241604 269.730376 
L 341.822254 268.356128 
L 247.152773 225.817419 
L 248.792227 222.168831 
" clip-path="url(#p37704dc655)" style="fill: #ffffff; fill-opacity: 0.170213"/>
   </g>
   <g id="Quiver_24">
    <path d="M 207.677451 303.203844 
L 93.530169 263.593033 
L 101.010491 272.539808 
L 77.180625 255.8025 
L 106.255882 257.424059 
L 94.841517 259.814096 
L 208.988799 299.424906 
L 207.677451 303.203844 
" clip-path="url(#p37704dc655)" style="fill: #ffffff; fill-opacity: 0.148936"/>
   </g>
   <g id="Quiver_25">
    <path d="M 138.366028 253.087264 
L 259.762651 322.456763 
L 254.057054 312.285915 
L 274.39875 333.12375 
L 246.118831 326.177805 
L 257.778096 325.929735 
L 136.381472 256.560236 
L 138.366028 253.087264 
" clip-path="url(#p37704dc655)" style="fill: #ffffff; fill-opacity: 0.148936"/>
   </g>
   <g id="Quiver_26">
    <path d="M 273.531119 334.925753 
L 223.683524 310.925059 
L 230.090647 320.669226 
L 208.333125 301.314375 
L 237.031697 306.253199 
L 225.418786 307.321053 
L 275.266381 331.321747 
L 273.531119 334.925753 
" clip-path="url(#p37704dc655)" style="fill: #ffffff; fill-opacity: 0.12766"/>
   </g>
   <g id="Quiver_27">
    <path d="M 359.418396 275.877115 
L 226.400554 300.062177 
L 237.312566 304.176542 
L 208.333125 301.314375 
L 234.450399 288.434623 
L 225.685013 296.126697 
L 358.702854 271.941635 
L 359.418396 275.877115 
" clip-path="url(#p37704dc655)" style="fill: #ffffff; fill-opacity: 0.12766"/>
   </g>
   <g id="Quiver_28">
    <path d="M 77.148109 253.802764 
L 119.343613 253.116659 
L 109.247387 247.280032 
L 137.37375 254.82375 
L 109.507515 263.277917 
L 119.408645 257.11613 
L 77.213141 257.802236 
L 77.148109 253.802764 
" clip-path="url(#p37704dc655)" style="fill: #ffffff; fill-opacity: 0.12766"/>
   </g>
   <g id="Quiver_29">
    <path d="M 367.145354 178.380174 
L 265.424419 219.152615 
L 276.938849 221.001368 
L 247.9725 223.993125 
L 270.986019 206.149977 
L 263.936211 215.439767 
L 365.657146 174.667326 
L 367.145354 178.380174 
" clip-path="url(#p37704dc655)" style="fill: #ffffff; fill-opacity: 0.12766"/>
   </g>
   <g id="Quiver_30">
    <path d="M 238.169968 537.352172 
L 269.453263 350.546211 
L 261.884024 359.417887 
L 274.39875 333.12375 
L 277.664282 362.060514 
L 273.398327 351.206868 
L 242.115032 538.012828 
L 238.169968 537.352172 
" clip-path="url(#p37704dc655)" style="fill: #ffffff; fill-opacity: 0.12766"/>
   </g>
   <g id="Quiver_31">
    <path d="M 137.406266 256.823486 
L 95.210762 257.509591 
L 105.306988 263.346218 
L 77.180625 255.8025 
L 105.04686 247.348333 
L 95.14573 253.51012 
L 137.341234 252.824014 
L 137.406266 256.823486 
" clip-path="url(#p37704dc655)" style="fill: #ffffff; fill-opacity: 0.12766"/>
   </g>
   <g id="Quiver_32">
    <path d="M 247.184661 225.831415 
L 113.001772 168.324462 
L 119.829706 177.778526 
L 97.245 159.395625 
L 126.132415 163.072205 
L 114.577449 164.647882 
L 248.760339 222.154835 
L 247.184661 225.831415 
" clip-path="url(#p37704dc655)" style="fill: #ffffff; fill-opacity: 0.12766"/>
   </g>
   <g id="Quiver_33">
    <path d="M 98.032839 157.557335 
L 232.215728 215.064288 
L 225.387794 205.610224 
L 247.9725 223.993125 
L 219.085085 220.316545 
L 230.640051 218.740868 
L 96.457161 161.233915 
L 98.032839 157.557335 
" clip-path="url(#p37704dc655)" style="fill: #ffffff; fill-opacity: 0.12766"/>
   </g>
   <g id="Quiver_34">
    <path d="M 135.530124 255.599019 
L 102.378791 176.763532 
L 100.724254 188.30747 
L 97.245 159.395625 
L 115.473266 182.105322 
L 106.066044 175.212995 
L 139.217376 254.048481 
L 135.530124 255.599019 
" clip-path="url(#p37704dc655)" style="fill: #ffffff; fill-opacity: 0.12766"/>
   </g>
   <g id="Quiver_35">
    <path d="M 249.916321 223.522424 
L 272.106261 315.158659 
L 275.584219 304.02745 
L 274.39875 333.12375 
L 260.033651 307.793059 
L 268.218619 316.100061 
L 246.028679 224.463826 
L 249.916321 223.522424 
" clip-path="url(#p37704dc655)" style="fill: #ffffff; fill-opacity: 0.12766"/>
   </g>
   <g id="Quiver_36">
    <path d="M 99.088626 158.620356 
L 132.239959 237.455843 
L 133.894496 225.911905 
L 137.37375 254.82375 
L 119.145484 232.114053 
L 128.552706 239.00638 
L 95.401374 160.170894 
L 99.088626 158.620356 
" clip-path="url(#p37704dc655)" style="fill: #ffffff; fill-opacity: 0.106383"/>
   </g>
   <g id="Quiver_37">
    <path d="M 192.90478 197.051674 
L 348.2936 176.859907 
L 337.603811 172.198532 
L 366.40125 176.52375 
L 339.665573 188.065136 
L 348.80904 180.826558 
L 193.42022 201.018326 
L 192.90478 197.051674 
" clip-path="url(#p37704dc655)" style="fill: #ffffff; fill-opacity: 0.106383"/>
   </g>
   <g id="Quiver_38">
    <path d="M 249.752252 224.90553 
L 218.324519 286.20901 
L 228.225798 280.047463 
L 208.333125 301.314375 
L 213.987781 272.748226 
L 214.765014 284.384201 
L 246.192748 223.08072 
L 249.752252 224.90553 
" clip-path="url(#p37704dc655)" style="fill: #ffffff; fill-opacity: 0.106383"/>
   </g>
   <g id="Quiver_39">
    <path d="M 238.29546 538.4496 
L 157.601237 344.152336 
L 155.895617 355.688838 
L 152.544375 326.761875 
L 170.671938 349.552036 
L 161.295317 342.618136 
L 241.98954 536.9154 
L 238.29546 538.4496 
" clip-path="url(#p37704dc655)" style="fill: #ffffff; fill-opacity: 0.106383"/>
   </g>
   <g id="Quiver_40">
    <path d="M 99.203043 159.803137 
L 82.806273 238.58762 
L 90.717961 230.019938 
L 77.180625 255.8025 
L 75.053613 226.759845 
L 78.890186 237.772597 
L 95.286957 158.988113 
L 99.203043 159.803137 
" clip-path="url(#p37704dc655)" style="fill: #ffffff; fill-opacity: 0.106383"/>
   </g>
   <g id="Quiver_41">
    <path d="M 359.556492 275.846929 
L 170.478229 324.236627 
L 181.6536 327.569954 
L 152.544375 326.761875 
L 177.686665 312.069521 
L 169.486495 320.361518 
L 358.564758 271.971821 
L 359.556492 275.846929 
" clip-path="url(#p37704dc655)" style="fill: #ffffff; fill-opacity: 0.085106"/>
   </g>
   <g id="Quiver_42">
    <path d="M 248.338696 225.959314 
L 95.242525 254.472928 
L 106.172059 258.540517 
L 77.180625 255.8025 
L 103.242493 242.811002 
L 94.510134 250.540549 
L 247.606304 222.026936 
L 248.338696 225.959314 
" clip-path="url(#p37704dc655)" style="fill: #ffffff; fill-opacity: 0.06383"/>
   </g>
   <g id="Quiver_43">
    <path d="M 139.330708 254.411058 
L 150.787106 308.736559 
L 154.594522 297.713693 
L 152.544375 326.761875 
L 138.938856 301.015228 
L 146.87319 309.561943 
L 135.416792 255.236442 
L 139.330708 254.411058 
" clip-path="url(#p37704dc655)" style="fill: #ffffff; fill-opacity: 0.06383"/>
   </g>
   <g id="Quiver_44">
    <path d="M 138.469803 253.150828 
L 194.372877 289.77698 
L 189.296423 279.277951 
L 208.333125 301.314375 
L 180.528003 292.661329 
L 192.180772 293.122825 
L 136.277697 256.496672 
L 138.469803 253.150828 
" clip-path="url(#p37704dc655)" style="fill: #ffffff; fill-opacity: 0.06383"/>
   </g>
   <g id="Quiver_45">
    <path d="M 273.406472 334.860236 
L 152.009849 265.490737 
L 157.715446 275.661585 
L 137.37375 254.82375 
L 165.653669 261.769695 
L 153.994404 262.017765 
L 275.391028 331.387264 
L 273.406472 334.860236 
" clip-path="url(#p37704dc655)" style="fill: #ffffff; fill-opacity: 0.06383"/>
   </g>
   <g id="Quiver_46">
    <path d="M 358.889074 275.902004 
L 155.13586 258.360337 
L 164.584353 265.195978 
L 137.37375 254.82375 
L 165.956759 249.254946 
L 155.478962 254.375079 
L 359.232176 271.916746 
L 358.889074 275.902004 
" clip-path="url(#p37704dc655)" style="fill: #ffffff; fill-opacity: 0.06383"/>
   </g>
   <g id="Quiver_47">
    <path d="M 206.354769 301.607815 
L 193.825107 217.133645 
L 189.357241 227.905747 
L 193.1625 199.035 
L 205.18409 225.558224 
L 197.781819 216.546764 
L 210.311481 301.020935 
L 206.354769 301.607815 
" clip-path="url(#p37704dc655)" style="fill: #ffffff; fill-opacity: 0.06383"/>
   </g>
   <g id="Quiver_48">
    <path d="M 366.65897 178.507076 
L 211.27015 198.698843 
L 221.959939 203.360218 
L 193.1625 199.035 
L 219.898177 187.493614 
L 210.75471 194.732192 
L 366.14353 174.540424 
L 366.65897 178.507076 
" clip-path="url(#p37704dc655)" style="fill: #ffffff; fill-opacity: 0.06383"/>
   </g>
   <g id="Quiver_49">
    <path d="M 98.046458 157.563232 
L 343.370544 264.86386 
L 336.612951 255.35939 
L 359.060625 273.909375 
L 330.201287 270.018536 
L 341.767628 268.528646 
L 96.443542 161.228018 
L 98.046458 157.563232 
" clip-path="url(#p37704dc655)" style="fill: #ffffff; fill-opacity: 0.06383"/>
   </g>
   <g id="Quiver_50">
    <path d="M 192.398629 200.883378 
L 113.116533 168.118838 
L 120.066812 177.483325 
L 97.245 159.395625 
L 126.177776 162.6963 
L 114.644274 164.422082 
L 193.926371 197.186622 
L 192.398629 200.883378 
" clip-path="url(#p37704dc655)" style="fill: #ffffff; fill-opacity: 0.06383"/>
   </g>
   <g id="Quiver_51">
    <path d="M 137.545301 252.831121 
L 341.298515 270.372788 
L 331.850022 263.537147 
L 359.060625 273.909375 
L 330.477616 279.478179 
L 340.955413 274.358046 
L 137.202199 256.816379 
L 137.545301 252.831121 
" clip-path="url(#p37704dc655)" style="fill: #ffffff; fill-opacity: 0.042553"/>
   </g>
   <g id="Quiver_52">
    <path d="M 194.041736 200.83137 
L 94.227189 249.685747 
L 105.846745 250.678677 
L 77.180625 255.8025 
L 98.812858 236.307719 
L 92.468717 246.093008 
L 192.283264 197.23863 
L 194.041736 200.83137 
" clip-path="url(#p37704dc655)" style="fill: #ffffff; fill-opacity: 0.042553"/>
   </g>
   <g id="Quiver_53">
    <path d="M 276.371282 333.454078 
L 245.087987 520.260039 
L 252.657226 511.388363 
L 240.1425 537.6825 
L 236.876968 508.745736 
L 241.142923 519.599382 
L 272.426218 332.793422 
L 276.371282 333.454078 
" clip-path="url(#p37704dc655)" style="fill: #ffffff; fill-opacity: 0.042553"/>
   </g>
   <g id="Quiver_54">
    <path d="M 272.454929 333.594451 
L 250.264989 241.958216 
L 246.787031 253.089425 
L 247.9725 223.993125 
L 262.337599 249.323816 
L 254.152631 241.016814 
L 276.342571 332.653049 
L 272.454929 333.594451 
" clip-path="url(#p37704dc655)" style="fill: #ffffff; fill-opacity: 0.042553"/>
   </g>
   <g id="Quiver_55">
    <path d="M 273.668732 334.985758 
L 93.208679 264.23467 
L 100.328665 273.470784 
L 77.180625 255.8025 
L 106.168809 258.57472 
L 94.668715 260.510654 
L 275.128768 331.261742 
L 273.668732 334.985758 
" clip-path="url(#p37704dc655)" style="fill: #ffffff; fill-opacity: 0.042553"/>
   </g>
   <g id="Quiver_56">
    <path d="M 139.253527 254.140786 
L 235.875602 520.081546 
L 238.100113 508.633771 
L 240.1425 537.6825 
L 223.061899 514.097482 
L 232.116049 521.447474 
L 135.493973 255.506714 
L 139.253527 254.140786 
" clip-path="url(#p37704dc655)" style="fill: #ffffff; fill-opacity: 0.042553"/>
   </g>
   <g id="Quiver_57">
    <path d="M 194.576714 200.449214 
L 151.515886 243.510042 
L 162.829594 240.681614 
L 137.37375 254.82375 
L 151.515886 229.367906 
L 148.687458 240.681614 
L 191.748286 197.620786 
L 194.576714 200.449214 
" clip-path="url(#p37704dc655)" style="fill: #ffffff; fill-opacity: 0.042553"/>
   </g>
   <g id="Quiver_58">
    <path d="M 367.640539 178.093516 
L 223.700303 291.730543 
L 235.266997 290.243397 
L 208.333125 301.314375 
L 225.352688 277.685273 
L 221.221726 288.591012 
L 365.161961 174.953984 
L 367.640539 178.093516 
" clip-path="url(#p37704dc655)" style="fill: #ffffff; fill-opacity: 0.042553"/>
   </g>
   <g id="Quiver_59">
    <path d="M 366.92997 178.452598 
L 95.068979 252.97287 
L 106.299379 256.115815 
L 77.180625 255.8025 
L 102.069621 240.68503 
L 94.011539 249.115174 
L 365.87253 174.594902 
L 366.92997 178.452598 
" clip-path="url(#p37704dc655)" style="fill: #ffffff; fill-opacity: 0.042553"/>
   </g>
   <g id="Quiver_60">
    <path d="M 368.125672 177.536848 
L 285.241055 318.617047 
L 295.479813 313.03423 
L 274.39875 333.12375 
L 281.684434 304.929446 
L 281.792211 316.590851 
L 364.676828 175.510652 
L 368.125672 177.536848 
" clip-path="url(#p37704dc655)" style="fill: #ffffff; fill-opacity: 0.042553"/>
   </g>
   <g id="Quiver_61">
    <path d="M 98.64534 157.967673 
L 262.947519 319.092738 
L 260.008777 307.807181 
L 274.39875 333.12375 
L 248.806057 319.230799 
L 260.146839 321.948642 
L 95.84466 160.823577 
L 98.64534 157.967673 
" clip-path="url(#p37704dc655)" style="fill: #ffffff; fill-opacity: 0.042553"/>
   </g>
   <g id="Quiver_62">
    <path d="M 136.836704 252.897203 
L 230.096535 226.899994 
L 218.852664 223.805585 
L 247.9725 223.993125 
L 223.149034 239.217957 
L 231.170628 230.753087 
L 137.910796 256.750297 
L 136.836704 252.897203 
" clip-path="url(#p37704dc655)" style="fill: #ffffff; fill-opacity: 0.042553"/>
   </g>
   <g id="Quiver_63">
    <path d="M 98.008871 157.547247 
L 177.290967 190.311787 
L 170.340688 180.9473 
L 193.1625 199.035 
L 164.229724 195.734325 
L 175.763226 194.008543 
L 96.481129 161.244003 
L 98.008871 157.547247 
" clip-path="url(#p37704dc655)" style="fill: #ffffff; fill-opacity: 0.042553"/>
   </g>
   <g id="Quiver_64">
    <path d="M 247.14367 225.813301 
L 208.715254 208.314647 
L 215.329643 217.919326 
L 193.1625 199.035 
L 221.960284 203.357918 
L 210.372914 204.674295 
L 248.80133 222.172949 
L 247.14367 225.813301 
" clip-path="url(#p37704dc655)" style="fill: #ffffff; fill-opacity: 0.042553"/>
   </g>
   <g id="Quiver_65">
    <path d="M 207.237072 302.987297 
L 151.333998 266.361145 
L 156.410452 276.860174 
L 137.37375 254.82375 
L 165.178872 263.476796 
L 153.526103 263.0153 
L 209.429178 299.641453 
L 207.237072 302.987297 
" clip-path="url(#p37704dc655)" style="fill: #ffffff; fill-opacity: 0.042553"/>
   </g>
   <g id="Quiver_66">
    <path d="M 210.315257 301.047628 
L 239.723913 519.576568 
L 244.336576 508.865669 
L 240.1425 537.6825 
L 228.479522 510.999641 
L 235.75965 520.110061 
L 206.350993 301.581122 
L 210.315257 301.047628 
" clip-path="url(#p37704dc655)" style="fill: #ffffff; fill-opacity: 0.042553"/>
   </g>
   <g id="Quiver_67">
    <path d="M 76.814429 253.836311 
L 229.9106 225.322697 
L 218.981066 221.255108 
L 247.9725 223.993125 
L 221.910632 236.984623 
L 230.642991 229.255076 
L 77.546821 257.768689 
L 76.814429 253.836311 
" clip-path="url(#p37704dc655)" style="fill: #ffffff; fill-opacity: 0.042553"/>
   </g>
   <g id="Quiver_68">
    <path d="M 76.301389 254.00613 
L 176.115936 205.151753 
L 164.49638 204.158823 
L 193.1625 199.035 
L 171.530267 218.529781 
L 177.874408 208.744492 
L 78.059861 257.59887 
L 76.301389 254.00613 
" clip-path="url(#p37704dc655)" style="fill: #ffffff; fill-opacity: 0.042553"/>
   </g>
   <g id="Quiver_69">
    <path d="M 247.228396 222.136701 
L 348.949331 181.36426 
L 337.434901 179.515507 
L 366.40125 176.52375 
L 343.387731 194.366898 
L 350.437539 185.077108 
L 248.716604 225.849549 
L 247.228396 222.136701 
" clip-path="url(#p37704dc655)" style="fill: #ffffff; fill-opacity: 0.042553"/>
   </g>
   <g id="Quiver_70">
    <path d="M 207.093836 299.744609 
L 351.034072 186.107582 
L 339.467378 187.594728 
L 366.40125 176.52375 
L 349.381687 200.152852 
L 353.512649 189.247113 
L 209.572414 302.884141 
L 207.093836 299.744609 
" clip-path="url(#p37704dc655)" style="fill: #ffffff; fill-opacity: 0.042553"/>
   </g>
   <g id="Quiver_71">
    <path d="M 238.160368 537.949247 
L 208.751712 319.420307 
L 204.139049 330.131206 
L 208.333125 301.314375 
L 219.996103 327.997234 
L 212.715975 318.886814 
L 242.124632 537.415753 
L 238.160368 537.949247 
" clip-path="url(#p37704dc655)" style="fill: #ffffff; fill-opacity: 0.042553"/>
   </g>
   <g id="Quiver_72">
    <path d="M 150.638428 326.155769 
L 185.8016 215.582421 
L 177.053228 223.293841 
L 193.1625 199.035 
L 192.300807 228.142688 
L 189.613494 216.794633 
L 154.450322 327.367981 
L 150.638428 326.155769 
" clip-path="url(#p37704dc655)" style="fill: #ffffff; fill-opacity: 0.042553"/>
   </g>
   <g id="PathCollection_1">
    <path d="M 240.1425 548.636951 
C 243.047654 548.636951 245.834212 547.482721 247.888467 545.428467 
C 249.942721 543.374212 251.096951 540.587654 251.096951 537.6825 
C 251.096951 534.777346 249.942721 531.990788 247.888467 529.936533 
C 245.834212 527.882279 243.047654 526.728049 240.1425 526.728049 
C 237.237346 526.728049 234.450788 527.882279 232.396533 529.936533 
C 230.342279 531.990788 229.188049 534.777346 229.188049 537.6825 
C 229.188049 540.587654 230.342279 543.374212 232.396533 545.428467 
C 234.450788 547.482721 237.237346 548.636951 240.1425 548.636951 
z
" clip-path="url(#p37704dc655)" style="fill: #ff0000; stroke: #000000"/>
    <path d="M 247.9725 240.875068 
C 252.449644 240.875068 256.744018 239.09628 259.909836 235.930461 
C 263.075655 232.764643 264.854443 228.470269 264.854443 223.993125 
C 264.854443 219.515981 263.075655 215.221607 259.909836 212.055789 
C 256.744018 208.88997 252.449644 207.111182 247.9725 207.111182 
C 243.495356 207.111182 239.200982 208.88997 236.035164 212.055789 
C 232.869345 215.221607 231.090557 219.515981 231.090557 223.993125 
C 231.090557 228.470269 232.869345 232.764643 236.035164 235.930461 
C 239.200982 239.09628 243.495356 240.875068 247.9725 240.875068 
z
" clip-path="url(#p37704dc655)" style="fill: #ff0000; stroke: #000000"/>
    <path d="M 208.333125 320.807964 
C 213.502885 320.807964 218.461601 318.753996 222.117174 315.098424 
C 225.772746 311.442851 227.826714 306.484135 227.826714 301.314375 
C 227.826714 296.144615 225.772746 291.185899 222.117174 287.530326 
C 218.461601 283.874754 213.502885 281.820786 208.333125 281.820786 
C 203.163365 281.820786 198.204649 283.874754 194.549076 287.530326 
C 190.893504 291.185899 188.839536 296.144615 188.839536 301.314375 
C 188.839536 306.484135 190.893504 311.442851 194.549076 315.098424 
C 198.204649 318.753996 203.163365 320.807964 208.333125 320.807964 
z
" clip-path="url(#p37704dc655)" style="fill: #ff0000; stroke: #000000"/>
    <path d="M 359.060625 294.645816 
C 364.559994 294.645816 369.834863 292.460894 373.723503 288.572253 
C 377.612144 284.683613 379.797066 279.408744 379.797066 273.909375 
C 379.797066 268.410006 377.612144 263.135137 373.723503 259.246497 
C 369.834863 255.357856 364.559994 253.172934 359.060625 253.172934 
C 353.561256 253.172934 348.286387 255.357856 344.397747 259.246497 
C 340.509106 263.135137 338.324184 268.410006 338.324184 273.909375 
C 338.324184 279.408744 340.509106 284.683613 344.397747 288.572253 
C 348.286387 292.460894 353.561256 294.645816 359.060625 294.645816 
z
" clip-path="url(#p37704dc655)" style="fill: #ff0000; stroke: #000000"/>
    <path d="M 77.180625 275.927112 
C 82.517734 275.927112 87.636968 273.806656 91.410874 270.032749 
C 95.184781 266.258843 97.305237 261.139609 97.305237 255.8025 
C 97.305237 250.465391 95.184781 245.346157 91.410874 241.572251 
C 87.636968 237.798344 82.517734 235.677888 77.180625 235.677888 
C 71.843516 235.677888 66.724282 237.798344 62.950376 241.572251 
C 59.176469 245.346157 57.056013 250.465391 57.056013 255.8025 
C 57.056013 261.139609 59.176469 266.258843 62.950376 270.032749 
C 66.724282 273.806656 71.843516 275.927112 77.180625 275.927112 
z
" clip-path="url(#p37704dc655)" style="fill: #ff0000; stroke: #000000"/>
    <path d="M 152.544375 353.029726 
C 159.510691 353.029726 166.192622 350.26198 171.118551 345.336051 
C 176.04448 340.410122 178.812226 333.728191 178.812226 326.761875 
C 178.812226 319.795559 176.04448 313.113628 171.118551 308.187699 
C 166.192622 303.26177 159.510691 300.494024 152.544375 300.494024 
C 145.578059 300.494024 138.896128 303.26177 133.970199 308.187699 
C 129.04427 313.113628 126.276524 319.795559 126.276524 326.761875 
C 126.276524 333.728191 129.04427 340.410122 133.970199 345.336051 
C 138.896128 350.26198 145.578059 353.029726 152.544375 353.029726 
z
" clip-path="url(#p37704dc655)" style="fill: #ff0000; stroke: #000000"/>
    <path d="M 137.37375 269.82375 
C 141.351797 269.82375 145.167448 268.243255 147.980352 265.430352 
C 150.793255 262.617448 152.37375 258.801796 152.37375 254.82375 
C 152.37375 250.845703 150.793255 247.030052 147.980352 244.217148 
C 145.167448 241.404245 141.351797 239.82375 137.37375 239.82375 
C 133.395704 239.82375 129.580052 241.404245 126.767148 244.217148 
C 123.954245 247.030052 122.37375 250.845703 122.37375 254.82375 
C 122.37375 258.801796 123.954245 262.617448 126.767148 265.430352 
C 129.580052 268.243255 133.395704 269.82375 137.37375 269.82375 
z
" clip-path="url(#p37704dc655)" style="fill: #ff0000; stroke: #000000"/>
    <path d="M 274.39875 356.788069 
C 280.674601 356.788069 286.694254 354.294647 291.131951 349.856951 
C 295.569647 345.419254 298.063069 339.399601 298.063069 333.12375 
C 298.063069 326.847899 295.569647 320.828246 291.131951 316.390549 
C 286.694254 311.952853 280.674601 309.459431 274.39875 309.459431 
C 268.122899 309.459431 262.103246 311.952853 257.665549 316.390549 
C 253.227853 320.828246 250.734431 326.847899 250.734431 333.12375 
C 250.734431 339.399601 253.227853 345.419254 257.665549 349.856951 
C 262.103246 354.294647 268.122899 356.788069 274.39875 356.788069 
z
" clip-path="url(#p37704dc655)" style="fill: #ff0000; stroke: #000000"/>
    <path d="M 193.1625 208.254544 
C 195.607552 208.254544 197.95279 207.283115 199.681702 205.554202 
C 201.410615 203.82529 202.382044 201.480052 202.382044 199.035 
C 202.382044 196.589948 201.410615 194.24471 199.681702 192.515798 
C 197.95279 190.786885 195.607552 189.815456 193.1625 189.815456 
C 190.717448 189.815456 188.37221 190.786885 186.643298 192.515798 
C 184.914385 194.24471 183.942956 196.589948 183.942956 199.035 
C 183.942956 201.480052 184.914385 203.82529 186.643298 205.554202 
C 188.37221 207.283115 190.717448 208.254544 193.1625 208.254544 
z
" clip-path="url(#p37704dc655)" style="fill: #ff0000; stroke: #000000"/>
    <path d="M 366.40125 190.841571 
C 370.198381 190.841571 373.840502 189.332955 376.525478 186.647978 
C 379.210455 183.963002 380.719071 180.320881 380.719071 176.52375 
C 380.719071 172.726619 379.210455 169.084498 376.525478 166.399522 
C 373.840502 163.714545 370.198381 162.205929 366.40125 162.205929 
C 362.604119 162.205929 358.961998 163.714545 356.277022 166.399522 
C 353.592045 169.084498 352.083429 172.726619 352.083429 176.52375 
C 352.083429 180.320881 353.592045 183.963002 356.277022 186.647978 
C 358.961998 189.332955 362.604119 190.841571 366.40125 190.841571 
z
" clip-path="url(#p37704dc655)" style="fill: #ff0000; stroke: #000000"/>
    <path d="M 97.245 174.561376 
C 101.267004 174.561376 105.124819 172.963417 107.968805 170.11943 
C 110.812792 167.275444 112.410751 163.417629 112.410751 159.395625 
C 112.410751 155.373621 110.812792 151.515806 107.968805 148.67182 
C 105.124819 145.827833 101.267004 144.229874 97.245 144.229874 
C 93.222996 144.229874 89.365181 145.827833 86.521195 148.67182 
C 83.677208 151.515806 82.079249 155.373621 82.079249 159.395625 
C 82.079249 163.417629 83.677208 167.275444 86.521195 170.11943 
C 89.365181 172.963417 93.222996 174.561376 97.245 174.561376 
z
" clip-path="url(#p37704dc655)" style="fill: #ff0000; stroke: #000000"/>
   </g>
   <g id="matplotlib.axis_1">
    <g id="xtick_1"/>
    <g id="xtick_2"/>
    <g id="xtick_3"/>
    <g id="xtick_4"/>
    <g id="xtick_5"/>
    <g id="xtick_6"/>
    <g id="xtick_7"/>
    <g id="xtick_8"/>
    <g id="xtick_9"/>
   </g>
   <g id="matplotlib.axis_2">
    <g id="ytick_1"/>
    <g id="ytick_2"/>
    <g id="ytick_3"/>
    <g id="ytick_4"/>
    <g id="ytick_5"/>
    <g id="ytick_6"/>
    <g id="ytick_7"/>
   </g>
   <g id="text_1">
    <!-- 1 -->
    <g style="fill: #ffffff" transform="translate(237.00625 542.06625) scale(0.16 -0.16)">
     <defs>
      <path id="Montserrat-Bold-31" d="M 941 0 
L 1978 0 
L 1978 4480 
L 45 4480 
L 45 3648 
L 941 3648 
L 941 0 
z
" transform="scale(0.015625)"/>
     </defs>
     <use xlink:href="#Montserrat-Bold-31"/>
    </g>
   </g>
   <g id="text_2">
    <!-- 8 -->
    <g style="fill: #ffffff" transform="translate(242.6925 228.376875) scale(0.16 -0.16)">
     <defs>
      <path id="Montserrat-Bold-38" d="M 2106 -77 
C 3245 -77 4000 454 4000 1299 
C 4000 1779 3750 2138 3315 2355 
C 3648 2560 3840 2874 3840 3277 
C 3840 4064 3136 4557 2106 4557 
C 1088 4557 384 4064 384 3277 
C 384 2874 576 2566 902 2355 
C 474 2138 224 1779 224 1299 
C 224 454 973 -77 2106 -77 
z
M 2106 685 
C 1594 685 1274 934 1274 1331 
C 1274 1728 1594 1971 2106 1971 
C 2624 1971 2950 1728 2950 1331 
C 2950 934 2624 685 2106 685 
z
M 2106 2682 
C 1683 2682 1414 2893 1414 3232 
C 1414 3584 1690 3795 2106 3795 
C 2528 3795 2810 3584 2810 3232 
C 2810 2893 2534 2682 2106 2682 
z
" transform="scale(0.015625)"/>
     </defs>
     <use xlink:href="#Montserrat-Bold-38"/>
    </g>
   </g>
   <g id="text_3">
    <!-- 5 -->
    <g style="fill: #ffffff" transform="translate(203.573125 305.698125) scale(0.16 -0.16)">
     <defs>
      <path id="Montserrat-Bold-35" d="M 1773 -77 
C 3053 -77 3635 614 3635 1408 
C 3635 2202 3110 2797 1786 2797 
L 1421 2797 
L 1491 3648 
L 3360 3648 
L 3360 4480 
L 627 4480 
L 397 1958 
L 1542 1958 
C 2355 1958 2586 1728 2586 1376 
C 2586 1011 2266 794 1747 794 
C 1280 794 813 941 474 1197 
L 64 403 
C 499 96 1152 -77 1773 -77 
z
" transform="scale(0.015625)"/>
     </defs>
     <use xlink:href="#Montserrat-Bold-35"/>
    </g>
   </g>
   <g id="text_4">
    <!-- 13 -->
    <g style="fill: #ffffff" transform="translate(351.188125 278.293125) scale(0.16 -0.16)">
     <defs>
      <path id="Montserrat-Bold-33" d="M 1702 -77 
C 2976 -77 3558 614 3558 1370 
C 3558 2029 3149 2528 2342 2662 
L 3354 3808 
L 3354 4480 
L 218 4480 
L 218 3648 
L 2118 3648 
L 1203 2605 
L 1203 1920 
L 1677 1920 
C 2266 1920 2515 1709 2515 1370 
C 2515 1005 2195 794 1677 794 
C 1210 794 736 941 397 1197 
L -6 403 
C 429 96 1075 -77 1702 -77 
z
" transform="scale(0.015625)"/>
     </defs>
     <use xlink:href="#Montserrat-Bold-31"/>
     <use xlink:href="#Montserrat-Bold-33" x="39.199997"/>
    </g>
   </g>
   <g id="text_5">
    <!-- 16 -->
    <g style="fill: #ffffff" transform="translate(68.948125 260.18625) scale(0.16 -0.16)">
     <defs>
      <path id="Montserrat-Bold-36" d="M 2253 -77 
C 3200 -77 3949 499 3949 1414 
C 3949 2259 3270 2810 2406 2810 
C 1939 2810 1562 2669 1299 2406 
C 1331 3270 1811 3712 2560 3712 
C 2861 3712 3149 3654 3398 3488 
L 3782 4250 
C 3469 4448 3008 4557 2534 4557 
C 1184 4557 250 3693 250 2144 
C 250 698 1018 -77 2253 -77 
z
M 2195 698 
C 1696 698 1408 979 1408 1363 
C 1408 1754 1728 2035 2182 2035 
C 2643 2035 2944 1773 2944 1363 
C 2944 954 2637 698 2195 698 
z
" transform="scale(0.015625)"/>
     </defs>
     <use xlink:href="#Montserrat-Bold-31"/>
     <use xlink:href="#Montserrat-Bold-36" x="39.199997"/>
    </g>
   </g>
   <g id="text_6">
    <!-- 3 -->
    <g style="fill: #ffffff" transform="translate(147.808125 331.145625) scale(0.16 -0.16)">
     <use xlink:href="#Montserrat-Bold-33"/>
    </g>
   </g>
   <g id="text_7">
    <!-- 20 -->
    <g style="fill: #ffffff" transform="translate(127.22125 259.2075) scale(0.16 -0.16)">
     <defs>
      <path id="Montserrat-Bold-32" d="M 211 0 
L 3597 0 
L 3597 845 
L 1670 845 
L 2701 1818 
C 3328 2400 3450 2797 3450 3232 
C 3450 4045 2784 4557 1786 4557 
C 979 4557 352 4230 6 3725 
L 762 3238 
C 979 3539 1306 3686 1690 3686 
C 2163 3686 2406 3482 2406 3130 
C 2406 2912 2336 2682 1939 2304 
L 211 672 
L 211 0 
z
" transform="scale(0.015625)"/>
      <path id="Montserrat-Bold-30" d="M 2170 -77 
C 3277 -77 4090 762 4090 2240 
C 4090 3718 3277 4557 2170 4557 
C 1069 4557 250 3718 250 2240 
C 250 762 1069 -77 2170 -77 
z
M 2170 800 
C 1658 800 1299 1222 1299 2240 
C 1299 3258 1658 3680 2170 3680 
C 2688 3680 3046 3258 3046 2240 
C 3046 1222 2688 800 2170 800 
z
" transform="scale(0.015625)"/>
     </defs>
     <use xlink:href="#Montserrat-Bold-32"/>
     <use xlink:href="#Montserrat-Bold-30" x="58.999985"/>
    </g>
   </g>
   <g id="text_8">
    <!-- 4 -->
    <g style="fill: #ffffff" transform="translate(268.88625 337.5075) scale(0.16 -0.16)">
     <defs>
      <path id="Montserrat-Bold-34" d="M 198 941 
L 2611 941 
L 2611 0 
L 3622 0 
L 3622 941 
L 4352 941 
L 4352 1786 
L 3622 1786 
L 3622 2624 
L 2643 2624 
L 2643 1786 
L 1446 1786 
L 3398 4480 
L 2310 4480 
L 198 1638 
L 198 941 
z
" transform="scale(0.015625)"/>
     </defs>
     <use xlink:href="#Montserrat-Bold-34"/>
    </g>
   </g>
   <g id="text_9">
    <!-- 9 -->
    <g style="fill: #ffffff" transform="translate(188.06625 203.41875) scale(0.16 -0.16)">
     <defs>
      <path id="Montserrat-Bold-39" d="M 1542 -77 
C 2899 -77 3827 787 3827 2336 
C 3827 3782 3066 4557 1824 4557 
C 877 4557 128 3981 128 3066 
C 128 2221 806 1670 1670 1670 
C 2138 1670 2522 1811 2784 2074 
C 2752 1210 2266 768 1523 768 
C 1216 768 928 826 685 992 
L 301 230 
C 614 32 1069 -77 1542 -77 
z
M 1901 2445 
C 1440 2445 1139 2707 1139 3117 
C 1139 3526 1446 3782 1888 3782 
C 2381 3782 2669 3501 2669 3117 
C 2669 2726 2355 2445 1901 2445 
z
" transform="scale(0.015625)"/>
     </defs>
     <use xlink:href="#Montserrat-Bold-39"/>
    </g>
   </g>
   <g id="text_10">
    <!-- 26 -->
    <g style="fill: #ffffff" transform="translate(356.585 180.9075) scale(0.16 -0.16)">
     <use xlink:href="#Montserrat-Bold-32"/>
     <use xlink:href="#Montserrat-Bold-36" x="58.999985"/>
    </g>
   </g>
   <g id="text_11">
    <!-- 7 -->
    <g style="fill: #ffffff" transform="translate(92.285 163.779375) scale(0.16 -0.16)">
     <defs>
      <path id="Montserrat-Bold-37" d="M 966 0 
L 2093 0 
L 3757 3808 
L 3757 4480 
L 166 4480 
L 166 2906 
L 1088 2906 
L 1088 3635 
L 2573 3635 
L 966 0 
z
" transform="scale(0.015625)"/>
     </defs>
     <use xlink:href="#Montserrat-Bold-37"/>
    </g>
   </g>
  </g>
 </g>
 <defs>
  <clipPath id="p37704dc655">
   <rect x="7.2" y="7.2" width="430.65" height="626.4"/>
  </clipPath>
 </defs>
</svg>
