<?xml version="1.0" encoding="utf-8" standalone="no"?>
<!DOCTYPE svg PUBLIC "-//W3C//DTD SVG 1.1//EN"
  "http://www.w3.org/Graphics/SVG/1.1/DTD/svg11.dtd">
<svg xmlns:xlink="http://www.w3.org/1999/xlink" width="445.05pt" height="640.8pt" viewBox="0 0 445.05 640.8" xmlns="http://www.w3.org/2000/svg" version="1.1">
 <metadata>
  <rdf:RDF xmlns:dc="http://purl.org/dc/elements/1.1/" xmlns:cc="http://creativecommons.org/ns#" xmlns:rdf="http://www.w3.org/1999/02/22-rdf-syntax-ns#">
   <cc:Work>
    <dc:type rdf:resource="http://purl.org/dc/dcmitype/StillImage"/>
    <dc:date>2026-06-19T23:44:21.762419</dc:date>
    <dc:format>image/svg+xml</dc:format>
    <dc:creator>
     <cc:Agent>
      <dc:title>Matplotlib v3.9.0, https://matplotlib.org/</dc:title>
     </cc:Agent>
    </dc:creator>
   </cc:Work>
  </rdf:RDF>
 </metadata>
 <defs>
  <style type="text/css">*{stroke-linejoin: round; stroke-linecap: butt}</style>
 </defs>
 <g id="figure_1">
  <g id="patch_1">
   <path d="M 0 640.8 
L 445.05 640.8 
L 445.05 0 
L 0 0 
z
" style="fill: #1e2836"/>
  </g>
  <g id="axes_1">
   <g id="patch_2">
    <path d="M 7.2 633.6 
L 437.85 633.6 
L 437.85 7.2 
L 7.2 7.2 
z
" style="fill: #1e2836"/>
   </g>
   <g id="line2d_1">
    <path d="M 418.275 320.4 
L 26.775 320.4 
L 26.775 26.775 
L 418.275 26.775 
L 418.275 614.025 
L 26.775 614.025 
L 26.775 320.4 
" clip-path="url(#pf1e56aac73)" style="fill: none; stroke: #c7d5cc; stroke-width: 2; stroke-linecap: square"/>
   </g>
   <g id="line2d_2">
    <path d="M 330.1875 26.775 
L 330.1875 114.8625 
L 114.8625 114.8625 
L 114.8625 26.775 
" clip-path="url(#pf1e56aac73)" style="fill: none; stroke: #c7d5cc; stroke-width: 2; stroke-linecap: square"/>
   </g>
   <g id="line2d_3">
    <path d="M 330.1875 614.025 
L 330.1875 525.9375 
L 114.8625 525.9375 
L 114.8625 614.025 
" clip-path="url(#pf1e56aac73)" style="fill: none; stroke: #c7d5cc; stroke-width: 2; stroke-linecap: square"/>
   </g>
   <g id="line2d_4">
    <path d="M 271.4625 26.775 
L 271.4625 56.1375 
L 173.5875 56.1375 
L 173.5875 26.775 
" clip-path="url(#pf1e56aac73)" style="fill: none; stroke: #c7d5cc; stroke-width: 2; stroke-linecap: square"/>
   </g>
   <g id="line2d_5">
    <path d="M 271.4625 614.025 
L 271.4625 584.6625 
L 173.5875 584.6625 
L 173.5875 614.025 
" clip-path="url(#pf1e56aac73)" style="fill: none; stroke: #c7d5cc; stroke-width: 2; stroke-linecap: square"/>
   </g>
   <g id="patch_3">
    <path d="M 222.525 369.3375 
C 235.503377 369.3375 247.95194 364.181136 257.129038 355.004038 
C 266.306136 345.82694 271.4625 333.378377 271.4625 320.4 
C 271.4625 307.421623 266.306136 294.97306 257.129038 285.795962 
C 247.95194 276.618864 235.503377 271.4625 222.525 271.4625 
C 209.546623 271.4625 197.09806 276.618864 187.920962 285.795962 
C 178.743864 294.97306 173.5875 307.421623 173.5875 320.4 
C 173.5875 333.378377 178.743864 345.82694 187.920962 355.004038 
C 197.09806 364.181136 209.546623 369.3375 222.525 369.3375 
L 222.525 369.3375 
z
" clip-path="url(#pf1e56aac73)" style="fill: none; stroke: #c7d5cc; stroke-width: 2; stroke-linejoin: miter"/>
   </g>
   <g id="patch_4">
    <path d="M 261.633912 525.882795 
C 257.074189 519.820839 251.166876 514.901235 244.379913 511.513682 
C 237.59295 508.126128 230.110406 506.3625 222.525 506.3625 
C 214.939594 506.3625 207.45705 508.126128 200.670087 511.513682 
C 193.883124 514.901235 187.975811 519.820839 183.416088 525.882795 
" clip-path="url(#pf1e56aac73)" style="fill: none; stroke: #c7d5cc; stroke-width: 2; stroke-linejoin: miter"/>
   </g>
   <g id="patch_5">
    <path d="M 183.416088 114.917205 
C 187.975811 120.979161 193.883124 125.898765 200.670087 129.286318 
C 207.45705 132.673872 214.939594 134.4375 222.525 134.4375 
C 230.110406 134.4375 237.59295 132.673872 244.379913 129.286318 
C 251.166876 125.898765 257.074189 120.979161 261.633912 114.917205 
" clip-path="url(#pf1e56aac73)" style="fill: none; stroke: #c7d5cc; stroke-width: 2; stroke-linejoin: miter"/>
   </g>
   <g id="patch_6">
    <path d="M 222.525 321.5745 
C 222.836481 321.5745 223.135247 321.450747 223.355497 321.230497 
C 223.575747 321.010247 223.6995 320.711481 223.6995 320.4 
C 223.6995 320.088519 223.575747 319.789753 223.355497 319.569503 
C 223.135247 319.349253 222.836481 319.2255 222.525 319.2255 
C 222.213519 319.2255 221.914753 319.349253 221.694503 319.569503 
C 221.474253 319.789753 221.3505 320.088519 221.3505 320.4 
C 221.3505 320.711481 221.474253 321.010247 221.694503 321.230497 
C 221.914753 321.450747 222.213519 321.5745 222.525 321.5745 
z
" clip-path="url(#pf1e56aac73)" style="fill: #c7d5cc; stroke: #c7d5cc; stroke-linejoin: miter"/>
   </g>
   <g id="patch_7">
    <path d="M 222.525 556.4745 
C 222.836481 556.4745 223.135247 556.350747 223.355497 556.130497 
C 223.575747 555.910247 223.6995 555.611481 223.6995 555.3 
C 223.6995 554.988519 223.575747 554.689753 223.355497 554.469503 
C 223.135247 554.249253 222.836481 554.1255 222.525 554.1255 
C 222.213519 554.1255 221.914753 554.249253 221.694503 554.469503 
C 221.474253 554.689753 221.3505 554.988519 221.3505 555.3 
C 221.3505 555.611481 221.474253 555.910247 221.694503 556.130497 
C 221.914753 556.350747 222.213519 556.4745 222.525 556.4745 
z
" clip-path="url(#pf1e56aac73)" style="fill: #c7d5cc; stroke: #c7d5cc; stroke-linejoin: miter"/>
   </g>
   <g id="patch_8">
    <path d="M 222.525 86.6745 
C 222.836481 86.6745 223.135247 86.550747 223.355497 86.330497 
C 223.575747 86.110247 223.6995 85.811481 223.6995 85.5 
C 223.6995 85.188519 223.575747 84.889753 223.355497 84.669503 
C 223.135247 84.449253 222.836481 84.3255 222.525 84.3255 
C 222.213519 84.3255 221.914753 84.449253 221.694503 84.669503 
C 221.474253 84.889753 221.3505 85.188519 221.3505 85.5 
C 221.3505 85.811481 221.474253 86.110247 221.694503 86.330497 
C 221.914753 86.550747 222.213519 86.6745 222.525 86.6745 
z
" clip-path="url(#pf1e56aac73)" style="fill: #c7d5cc; stroke: #c7d5cc; stroke-linejoin: miter"/>
   </g>
   <g id="line2d_6">
    <path d="M 202.95 26.775 
L 242.1 26.775 
" clip-path="url(#pf1e56aac73)" style="fill: none; stroke: #c7d5cc; stroke-width: 4; stroke-linecap: square"/>
   </g>
   <g id="line2d_7">
    <path d="M 202.95 614.025 
L 242.1 614.025 
" clip-path="url(#pf1e56aac73)" style="fill: none; stroke: #c7d5cc; stroke-width: 4; stroke-linecap: square"/>
   </g>
   <g id="Quiver_1">
    <path d="M 283.315841 426.595876 
L 344.011847 370.321433 
L 332.599372 372.720481 
L 358.57125 359.55 
L 343.477646 384.453476 
L 346.731415 373.254682 
L 286.035409 429.529124 
L 283.315841 426.595876 
" clip-path="url(#pf1e56aac73)" style="fill: #ffffff"/>
   </g>
   <g id="Quiver_2">
    <path d="M 284.421296 430.046263 
L 168.675791 415.207096 
L 177.831622 422.430029 
L 151.07625 410.934375 
L 179.866251 406.559923 
L 169.184449 411.239569 
L 284.929954 426.078737 
L 284.421296 430.046263 
" clip-path="url(#pf1e56aac73)" style="fill: #ffffff; fill-opacity: 0.888889"/>
   </g>
   <g id="Quiver_3">
    <path d="M 151.330579 408.950612 
L 267.076084 423.789779 
L 257.920253 416.566846 
L 284.675625 428.0625 
L 255.885624 432.436952 
L 266.567426 427.757306 
L 150.821921 412.918138 
L 151.330579 408.950612 
" clip-path="url(#pf1e56aac73)" style="fill: #ffffff; fill-opacity: 0.777778"/>
   </g>
   <g id="Quiver_4">
    <path d="M 359.931034 361.016624 
L 299.235028 417.291067 
L 310.647503 414.892019 
L 284.675625 428.0625 
L 299.769229 403.159024 
L 296.51546 414.357818 
L 357.211466 358.083376 
L 359.931034 361.016624 
" clip-path="url(#pf1e56aac73)" style="fill: #ffffff; fill-opacity: 0.62963"/>
   </g>
   <g id="Quiver_5">
    <path d="M 226.568429 554.490988 
L 275.565446 443.715124 
L 266.033174 450.433441 
L 284.675625 428.0625 
L 280.665739 456.905538 
L 279.223587 445.333148 
L 230.226571 556.109012 
L 226.568429 554.490988 
" clip-path="url(#pf1e56aac73)" style="fill: #ffffff; fill-opacity: 0.592593"/>
   </g>
   <g id="Quiver_6">
    <path d="M 63.400316 323.366661 
L 139.527144 396.983814 
L 136.509526 385.719091 
L 151.07625 410.934375 
L 125.386995 397.2208 
L 136.746512 399.859241 
L 60.619684 326.242089 
L 63.400316 323.366661 
" clip-path="url(#pf1e56aac73)" style="fill: #ffffff; fill-opacity: 0.555556"/>
   </g>
   <g id="Quiver_7">
    <path d="M 152.839299 409.990098 
L 221.662056 538.488284 
L 222.229817 526.840209 
L 228.3975 555.3 
L 208.125427 534.394425 
L 218.135958 540.376838 
L 149.313201 411.878652 
L 152.839299 409.990098 
" clip-path="url(#pf1e56aac73)" style="fill: #ffffff; fill-opacity: 0.518519"/>
   </g>
   <g id="Quiver_8">
    <path d="M 149.110506 411.302952 
L 136.278324 342.864651 
L 132.223976 353.799105 
L 134.926875 324.804375 
L 147.949931 350.850488 
L 140.209813 342.127497 
L 153.041994 410.565798 
L 149.110506 411.302952 
" clip-path="url(#pf1e56aac73)" style="fill: #ffffff; fill-opacity: 0.481481"/>
   </g>
   <g id="Quiver_9">
    <path d="M 203.225132 359.949367 
L 271.906309 415.219426 
L 267.87729 404.275614 
L 284.675625 428.0625 
L 257.846231 416.74068 
L 269.398544 418.335692 
L 200.717368 363.065633 
L 203.225132 359.949367 
" clip-path="url(#pf1e56aac73)" style="fill: #ffffff; fill-opacity: 0.444444"/>
   </g>
   <g id="Quiver_10">
    <path d="M 134.926875 326.804375 
L 80.01 326.804375 
L 90.01 332.804375 
L 62.01 324.804375 
L 90.01 316.804375 
L 80.01 322.804375 
L 134.926875 322.804375 
L 134.926875 326.804375 
" clip-path="url(#pf1e56aac73)" style="fill: #ffffff; fill-opacity: 0.444444"/>
   </g>
   <g id="Quiver_11">
    <path d="M 149.682881 409.499619 
L 187.66508 372.613061 
L 176.311195 375.275637 
L 201.97125 361.5075 
L 187.458144 386.753683 
L 190.451817 375.482573 
L 152.469619 412.369131 
L 149.682881 409.499619 
" clip-path="url(#pf1e56aac73)" style="fill: #ffffff; fill-opacity: 0.407407"/>
   </g>
   <g id="Quiver_12">
    <path d="M 149.685934 412.372089 
L 73.559106 338.754936 
L 76.576724 350.019659 
L 62.01 324.804375 
L 87.699255 338.51795 
L 76.339738 335.879509 
L 152.466566 409.496661 
L 149.685934 412.372089 
" clip-path="url(#pf1e56aac73)" style="fill: #ffffff; fill-opacity: 0.296296"/>
   </g>
   <g id="Quiver_13">
    <path d="M 62.01 322.804375 
L 116.926875 322.804375 
L 106.926875 316.804375 
L 134.926875 324.804375 
L 106.926875 332.804375 
L 116.926875 326.804375 
L 62.01 326.804375 
L 62.01 322.804375 
" clip-path="url(#pf1e56aac73)" style="fill: #ffffff; fill-opacity: 0.259259"/>
   </g>
   <g id="Quiver_14">
    <path d="M 136.892619 324.435798 
L 149.724801 392.874099 
L 153.779149 381.939645 
L 151.07625 410.934375 
L 138.053194 384.888262 
L 145.793312 393.611253 
L 132.961131 325.172952 
L 136.892619 324.435798 
" clip-path="url(#pf1e56aac73)" style="fill: #ffffff; fill-opacity: 0.259259"/>
   </g>
   <g id="Quiver_15">
    <path d="M 132.951187 325.11527 
L 120.578618 246.48959 
L 116.206028 257.300717 
L 119.75625 228.3975 
L 132.011535 254.813556 
L 124.529994 245.8678 
L 136.902563 324.49348 
L 132.951187 325.11527 
" clip-path="url(#pf1e56aac73)" style="fill: #ffffff; fill-opacity: 0.259259"/>
   </g>
   <g id="Quiver_16">
    <path d="M 60.294246 323.776665 
L 108.791102 242.811574 
L 98.505289 248.307212 
L 119.75625 228.3975 
L 112.231319 256.528896 
L 112.22261 244.866995 
L 63.725754 325.832085 
L 60.294246 323.776665 
" clip-path="url(#pf1e56aac73)" style="fill: #ffffff; fill-opacity: 0.259259"/>
   </g>
   <g id="Quiver_17">
    <path d="M 203.364619 362.942256 
L 165.38242 399.828814 
L 176.736305 397.166238 
L 151.07625 410.934375 
L 165.589356 385.688192 
L 162.595683 396.959302 
L 200.577881 360.072744 
L 203.364619 362.942256 
" clip-path="url(#pf1e56aac73)" style="fill: #ffffff; fill-opacity: 0.222222"/>
   </g>
   <g id="Quiver_18">
    <path d="M 201.010855 363.261821 
L 149.755369 335.202248 
L 155.64579 345.267184 
L 134.926875 324.804375 
L 163.328947 331.232617 
L 151.676158 331.693606 
L 202.931645 359.753179 
L 201.010855 363.261821 
" clip-path="url(#pf1e56aac73)" style="fill: #ffffff; fill-opacity: 0.222222"/>
   </g>
   <g id="Quiver_19">
    <path d="M 357.8079 361.398593 
L 276.080866 327.650614 
L 283.033784 337.013142 
L 260.206875 318.931875 
L 289.140581 322.224395 
L 277.607565 323.953427 
L 359.3346 357.701407 
L 357.8079 361.398593 
" clip-path="url(#pf1e56aac73)" style="fill: #ffffff; fill-opacity: 0.222222"/>
   </g>
   <g id="Quiver_20">
    <path d="M 356.571471 359.579759 
L 354.392424 213.147766 
L 348.541881 223.235935 
L 356.124375 195.12 
L 364.54011 222.997866 
L 358.391981 213.088249 
L 360.571029 359.520241 
L 356.571471 359.579759 
" clip-path="url(#pf1e56aac73)" style="fill: #ffffff; fill-opacity: 0.222222"/>
   </g>
   <g id="Quiver_21">
    <path d="M 201.946252 359.507656 
L 340.547658 357.775139 
L 330.473445 351.900598 
L 358.57125 359.55 
L 330.673429 367.899348 
L 340.597654 361.774826 
L 201.996248 363.507344 
L 201.946252 359.507656 
" clip-path="url(#pf1e56aac73)" style="fill: #ffffff; fill-opacity: 0.222222"/>
   </g>
   <g id="Quiver_22">
    <path d="M 241.104772 268.811417 
L 151.668775 317.89722 
L 163.32205 318.345737 
L 134.926875 324.804375 
L 155.623875 304.319401 
L 149.744231 314.390636 
L 239.180228 265.304833 
L 241.104772 268.811417 
" clip-path="url(#pf1e56aac73)" style="fill: #ffffff; fill-opacity: 0.222222"/>
   </g>
   <g id="Quiver_23">
    <path d="M 241.996791 267.807528 
L 210.570165 345.568282 
L 219.880052 338.545034 
L 201.97125 361.5075 
L 205.045722 332.549813 
L 206.861583 344.069477 
L 238.288209 266.308722 
L 241.996791 267.807528 
" clip-path="url(#pf1e56aac73)" style="fill: #ffffff; fill-opacity: 0.222222"/>
   </g>
   <g id="Quiver_24">
    <path d="M 283.421743 429.620633 
L 214.740566 374.350574 
L 218.769585 385.294386 
L 201.97125 361.5075 
L 228.800644 372.82932 
L 217.248331 371.234308 
L 285.929507 426.504367 
L 283.421743 429.620633 
" clip-path="url(#pf1e56aac73)" style="fill: #ffffff; fill-opacity: 0.222222"/>
   </g>
   <g id="Quiver_25">
    <path d="M 135.88727 323.050054 
L 187.142756 351.109627 
L 181.252335 341.044691 
L 201.97125 361.5075 
L 173.569178 355.079258 
L 185.221967 354.618269 
L 133.96648 326.558696 
L 135.88727 323.050054 
" clip-path="url(#pf1e56aac73)" style="fill: #ffffff; fill-opacity: 0.185185"/>
   </g>
   <g id="Quiver_26">
    <path d="M 149.37572 409.881666 
L 228.967587 281.310188 
L 218.60245 286.654712 
L 240.1425 267.058125 
L 232.206692 295.076386 
L 232.368647 283.415607 
L 152.77678 411.987084 
L 149.37572 409.881666 
" clip-path="url(#pf1e56aac73)" style="fill: #ffffff; fill-opacity: 0.185185"/>
   </g>
   <g id="Quiver_27">
    <path d="M 357.178565 196.819613 
L 256.493204 259.270027 
L 268.153838 259.097914 
L 240.1425 267.058125 
L 259.720317 245.501013 
L 254.384824 255.870801 
L 355.070185 193.420387 
L 357.178565 196.819613 
" clip-path="url(#pf1e56aac73)" style="fill: #ffffff; fill-opacity: 0.148148"/>
   </g>
   <g id="Quiver_28">
    <path d="M 242.007827 266.336631 
L 255.578752 301.422435 
L 257.567261 289.931316 
L 260.206875 318.931875 
L 242.644643 295.703272 
L 251.848097 302.865424 
L 238.277173 267.779619 
L 242.007827 266.336631 
" clip-path="url(#pf1e56aac73)" style="fill: #ffffff; fill-opacity: 0.148148"/>
   </g>
   <g id="Quiver_29">
    <path d="M 282.763547 427.476022 
L 348.933996 211.742228 
L 340.265372 219.543186 
L 356.124375 195.12 
L 355.561999 224.235009 
L 352.758153 212.915183 
L 286.587703 428.648978 
L 282.763547 427.476022 
" clip-path="url(#pf1e56aac73)" style="fill: #ffffff; fill-opacity: 0.148148"/>
   </g>
   <g id="Quiver_30">
    <path d="M 133.964603 323.051083 
L 223.4006 273.96528 
L 211.747325 273.516763 
L 240.1425 267.058125 
L 219.4455 287.543099 
L 225.325144 277.471864 
L 135.889147 326.557667 
L 133.964603 323.051083 
" clip-path="url(#pf1e56aac73)" style="fill: #ffffff; fill-opacity: 0.148148"/>
   </g>
   <g id="Quiver_31">
    <path d="M 359.052011 361.491358 
L 169.029229 408.548886 
L 180.178299 411.969155 
L 151.07625 410.934375 
L 176.332213 396.438295 
L 168.067707 404.666171 
L 358.090489 357.608642 
L 359.052011 361.491358 
" clip-path="url(#pf1e56aac73)" style="fill: #ffffff; fill-opacity: 0.148148"/>
   </g>
   <g id="Quiver_32">
    <path d="M 261.495991 320.460986 
L 166.127364 400.861443 
L 177.640266 399.003196 
L 151.07625 410.934375 
L 167.327339 386.770309 
L 163.549132 397.803221 
L 258.917759 317.402764 
L 261.495991 320.460986 
" clip-path="url(#pf1e56aac73)" style="fill: #ffffff; fill-opacity: 0.148148"/>
   </g>
   <g id="Quiver_33">
    <path d="M 200.116959 360.758097 
L 231.543585 282.997343 
L 222.233698 290.020591 
L 240.1425 267.058125 
L 237.068028 296.015812 
L 235.252167 284.496148 
L 203.825541 362.256903 
L 200.116959 360.758097 
" clip-path="url(#pf1e56aac73)" style="fill: #ffffff; fill-opacity: 0.148148"/>
   </g>
   <g id="Quiver_34">
    <path d="M 283.540285 429.709012 
L 148.610145 336.668949 
L 153.436686 347.285187 
L 134.926875 324.804375 
L 162.519408 334.113088 
L 150.880826 333.375924 
L 285.810965 426.415988 
L 283.540285 429.709012 
" clip-path="url(#pf1e56aac73)" style="fill: #ffffff; fill-opacity: 0.111111"/>
   </g>
   <g id="Quiver_35">
    <path d="M 121.727444 228.059279 
L 150.003455 392.855406 
L 154.225933 381.984772 
L 151.07625 410.934375 
L 138.456379 384.69054 
L 146.061067 393.531848 
L 117.785056 228.735721 
L 121.727444 228.059279 
" clip-path="url(#pf1e56aac73)" style="fill: #ffffff; fill-opacity: 0.111111"/>
   </g>
   <g id="Quiver_36">
    <path d="M 258.341548 319.653369 
L 244.770623 284.567565 
L 242.782114 296.058684 
L 240.1425 267.058125 
L 257.704732 290.286728 
L 248.501278 283.124576 
L 262.072202 318.210381 
L 258.341548 319.653369 
" clip-path="url(#pf1e56aac73)" style="fill: #ffffff; fill-opacity: 0.111111"/>
   </g>
   <g id="Quiver_37">
    <path d="M 134.833228 322.806569 
L 242.132971 317.776893 
L 231.862997 312.25171 
L 260.206875 318.931875 
L 232.612175 328.234161 
L 242.320265 321.772506 
L 135.020522 326.802181 
L 134.833228 322.806569 
" clip-path="url(#pf1e56aac73)" style="fill: #ffffff; fill-opacity: 0.111111"/>
   </g>
   <g id="Quiver_38">
    <path d="M 262.158422 318.494308 
L 282.689073 410.061011 
L 286.355881 398.990576 
L 284.675625 428.0625 
L 270.743505 402.491109 
L 278.785979 410.936144 
L 258.255328 319.369442 
L 262.158422 318.494308 
" clip-path="url(#pf1e56aac73)" style="fill: #ffffff; fill-opacity: 0.111111"/>
   </g>
   <g id="Quiver_39">
    <path d="M 200.790877 359.892966 
L 244.495699 327.940701 
L 232.881911 328.998967 
L 260.206875 318.931875 
L 242.324898 341.915236 
L 246.856446 331.169769 
L 203.151623 363.122034 
L 200.790877 359.892966 
" clip-path="url(#pf1e56aac73)" style="fill: #ffffff; fill-opacity: 0.111111"/>
   </g>
   <g id="Quiver_40">
    <path d="M 260.300522 320.929681 
L 153.000779 325.959357 
L 163.270753 331.48454 
L 134.926875 324.804375 
L 162.521575 315.502089 
L 152.813485 321.963744 
L 260.113228 316.934069 
L 260.300522 320.929681 
" clip-path="url(#pf1e56aac73)" style="fill: #ffffff; fill-opacity: 0.111111"/>
   </g>
   <g id="Quiver_41">
    <path d="M 260.970225 317.083282 
L 342.697259 350.831261 
L 335.744341 341.468733 
L 358.57125 359.55 
L 329.637544 356.25748 
L 341.17056 354.528448 
L 259.443525 320.780468 
L 260.970225 317.083282 
" clip-path="url(#pf1e56aac73)" style="fill: #ffffff; fill-opacity: 0.111111"/>
   </g>
   <g id="Quiver_42">
    <path d="M 121.731938 228.086605 
L 134.104507 306.712285 
L 138.477097 295.901158 
L 134.926875 324.804375 
L 122.67159 298.388319 
L 130.153131 307.334075 
L 117.780562 228.708395 
L 121.731938 228.086605 
" clip-path="url(#pf1e56aac73)" style="fill: #ffffff; fill-opacity: 0.111111"/>
   </g>
   <g id="Quiver_43">
    <path d="M 286.504696 428.871512 
L 237.507679 539.647376 
L 247.039951 532.929059 
L 228.3975 555.3 
L 232.407386 526.456962 
L 233.849538 538.029352 
L 282.846554 427.253488 
L 286.504696 428.871512 
" clip-path="url(#pf1e56aac73)" style="fill: #ffffff; fill-opacity: 0.111111"/>
   </g>
   <g id="Quiver_44">
    <path d="M 121.472004 229.42521 
L 72.975148 310.390301 
L 83.260961 304.894663 
L 62.01 324.804375 
L 69.534931 296.672979 
L 69.54364 308.33488 
L 118.040496 227.36979 
L 121.472004 229.42521 
" clip-path="url(#pf1e56aac73)" style="fill: #ffffff; fill-opacity: 0.111111"/>
   </g>
   <g id="Quiver_45">
    <path d="M 282.724078 428.500067 
L 262.193427 336.933364 
L 258.526619 348.003799 
L 260.206875 318.931875 
L 274.138995 344.503266 
L 266.096521 336.058231 
L 286.627172 427.624933 
L 282.724078 428.500067 
" clip-path="url(#pf1e56aac73)" style="fill: #ffffff; fill-opacity: 0.111111"/>
   </g>
   <g id="Quiver_46">
    <path d="M 226.634451 556.244277 
L 157.811694 427.746091 
L 157.243933 439.394166 
L 151.07625 410.934375 
L 171.348323 431.83995 
L 161.337792 425.857537 
L 230.160549 554.355723 
L 226.634451 556.244277 
" clip-path="url(#pf1e56aac73)" style="fill: #ffffff; fill-opacity: 0.111111"/>
   </g>
   <g id="Quiver_47">
    <path d="M 62.517322 322.869789 
L 185.067293 355.007019 
L 176.916326 346.666651 
L 201.97125 361.5075 
L 172.857753 362.143343 
L 184.05265 358.876192 
L 61.502678 326.738961 
L 62.517322 322.869789 
" clip-path="url(#pf1e56aac73)" style="fill: #ffffff; fill-opacity: 0.111111"/>
   </g>
   <g id="Quiver_48">
    <path d="M 226.775869 556.470604 
L 70.923805 340.569656 
L 71.911932 352.189622 
L 62.01 324.804375 
L 84.884979 342.82479 
L 74.167066 338.228448 
L 230.019131 554.129396 
L 226.775869 556.470604 
" clip-path="url(#pf1e56aac73)" style="fill: #ffffff; fill-opacity: 0.111111"/>
   </g>
   <g id="Quiver_49">
    <path d="M 283.834223 429.876899 
L 77.498184 334.191395 
L 84.04597 343.841603 
L 62.01 324.804375 
L 90.777189 329.326414 
L 79.180989 330.562598 
L 285.517027 426.248101 
L 283.834223 429.876899 
" clip-path="url(#pf1e56aac73)" style="fill: #ffffff; fill-opacity: 0.111111"/>
   </g>
   <g id="Quiver_50">
    <path d="M 358.596248 361.549844 
L 219.994842 363.282361 
L 230.069055 369.156902 
L 201.97125 361.5075 
L 229.869071 353.158152 
L 219.944846 359.282674 
L 358.546252 357.550156 
L 358.596248 361.549844 
" clip-path="url(#pf1e56aac73)" style="fill: #ffffff; fill-opacity: 0.111111"/>
   </g>
   <g id="Quiver_51">
    <path d="M 239.530983 268.962343 
L 136.282696 235.805373 
L 143.969235 244.575613 
L 119.75625 228.3975 
L 148.861373 229.341868 
L 137.50573 231.996937 
L 240.754017 265.153907 
L 239.530983 268.962343 
" clip-path="url(#pf1e56aac73)" style="fill: #ffffff; fill-opacity: 0.074074"/>
   </g>
   <g id="Quiver_52">
    <path d="M 261.387248 320.546409 
L 217.682426 352.498674 
L 229.296214 351.440408 
L 201.97125 361.5075 
L 219.853227 338.524139 
L 215.321679 349.269606 
L 259.026502 317.317341 
L 261.387248 320.546409 
" clip-path="url(#pf1e56aac73)" style="fill: #ffffff; fill-opacity: 0.074074"/>
   </g>
   <g id="Quiver_53">
    <path d="M 120.367767 226.493282 
L 223.616054 259.650252 
L 215.929515 250.880012 
L 240.1425 267.058125 
L 211.037377 266.113757 
L 222.39302 263.458688 
L 119.144733 230.301718 
L 120.367767 226.493282 
" clip-path="url(#pf1e56aac73)" style="fill: #ffffff; fill-opacity: 0.074074"/>
   </g>
   <g id="Quiver_54">
    <path d="M 241.373535 265.481879 
L 345.616069 346.894436 
L 341.427944 336.010521 
L 358.57125 359.55 
L 331.579662 348.620491 
L 343.153999 350.046929 
L 238.911465 268.634371 
L 241.373535 265.481879 
" clip-path="url(#pf1e56aac73)" style="fill: #ffffff; fill-opacity: 0.074074"/>
   </g>
   <g id="Quiver_55">
    <path d="M 121.457846 227.346514 
L 194.213974 345.14215 
L 194.063833 333.481213 
L 201.97125 361.5075 
L 180.451065 341.889099 
L 190.810782 347.244122 
L 118.054654 229.448486 
L 121.457846 227.346514 
" clip-path="url(#pf1e56aac73)" style="fill: #ffffff; fill-opacity: 0.074074"/>
   </g>
   <g id="Quiver_56">
    <path d="M 149.105056 411.272596 
L 120.829045 246.476469 
L 116.606567 257.347103 
L 119.75625 228.3975 
L 132.376121 254.641335 
L 124.771433 245.800027 
L 153.047444 410.596154 
L 149.105056 411.272596 
" clip-path="url(#pf1e56aac73)" style="fill: #ffffff; fill-opacity: 0.074074"/>
   </g>
   <g id="Quiver_57">
    <path d="M 360.236631 360.657478 
L 240.030183 541.419053 
L 250.563715 536.414585 
L 228.3975 555.3 
L 237.240671 527.55476 
L 236.699422 539.204097 
L 356.905869 358.442522 
L 360.236631 360.657478 
" clip-path="url(#pf1e56aac73)" style="fill: #ffffff; fill-opacity: 0.074074"/>
   </g>
   <g id="Quiver_58">
    <path d="M 259.123288 320.612899 
L 133.801875 239.830803 
L 138.956233 250.291806 
L 119.75625 228.3975 
L 147.624926 236.843618 
L 135.969048 236.468756 
L 261.290462 317.250851 
L 259.123288 320.612899 
" clip-path="url(#pf1e56aac73)" style="fill: #ffffff; fill-opacity: 0.074074"/>
   </g>
   <g id="Quiver_59">
    <path d="M 358.124154 195.090241 
L 360.303201 341.522234 
L 366.153744 331.434065 
L 358.57125 359.55 
L 350.155515 331.672134 
L 356.303644 341.581751 
L 354.124596 195.149759 
L 358.124154 195.090241 
" clip-path="url(#pf1e56aac73)" style="fill: #ffffff; fill-opacity: 0.074074"/>
   </g>
   <g id="Quiver_60">
    <path d="M 201.463928 363.442086 
L 78.913957 331.304856 
L 87.064924 339.645224 
L 62.01 324.804375 
L 91.123497 324.168532 
L 79.9286 327.435683 
L 202.478572 359.572914 
L 201.463928 363.442086 
" clip-path="url(#pf1e56aac73)" style="fill: #ffffff; fill-opacity: 0.074074"/>
   </g>
   <g id="Quiver_61">
    <path d="M 226.41584 555.570226 
L 202.421627 379.612669 
L 197.827778 390.33165 
L 201.97125 361.5075 
L 213.681061 388.169839 
L 206.384948 379.072217 
L 230.37916 555.029774 
L 226.41584 555.570226 
" clip-path="url(#pf1e56aac73)" style="fill: #ffffff; fill-opacity: 0.074074"/>
   </g>
   <g id="Quiver_62">
    <path d="M 62.851402 322.989976 
L 269.187441 418.67548 
L 262.639655 409.025272 
L 284.675625 428.0625 
L 255.908436 423.540461 
L 267.504636 422.304277 
L 61.168598 326.618774 
L 62.851402 322.989976 
" clip-path="url(#pf1e56aac73)" style="fill: #ffffff; fill-opacity: 0.074074"/>
   </g>
   <g id="PathCollection_1">
    <path d="M 228.3975 568.338405 
C 231.855325 568.338405 235.171993 566.964596 237.617044 564.519544 
C 240.062096 562.074493 241.435905 558.757825 241.435905 555.3 
C 241.435905 551.842175 240.062096 548.525507 237.617044 546.080456 
C 235.171993 543.635404 231.855325 542.261595 228.3975 542.261595 
C 224.939675 542.261595 221.623007 543.635404 219.177956 546.080456 
C 216.732904 548.525507 215.359095 551.842175 215.359095 555.3 
C 215.359095 558.757825 216.732904 562.074493 219.177956 564.519544 
C 221.623007 566.964596 224.939675 568.338405 228.3975 568.338405 
z
" clip-path="url(#pf1e56aac73)" style="fill: #ff0000; stroke: #000000"/>
    <path d="M 260.206875 331.381775 
C 263.508627 331.381775 266.675592 330.069975 269.010283 327.735283 
C 271.344975 325.400592 272.656775 322.233627 272.656775 318.931875 
C 272.656775 315.630123 271.344975 312.463158 269.010283 310.128467 
C 266.675592 307.793775 263.508627 306.481975 260.206875 306.481975 
C 256.905123 306.481975 253.738158 307.793775 251.403467 310.128467 
C 249.068775 312.463158 247.756975 315.630123 247.756975 318.931875 
C 247.756975 322.233627 249.068775 325.400592 251.403467 327.735283 
C 253.738158 330.069975 256.905123 331.381775 260.206875 331.381775 
z
" clip-path="url(#pf1e56aac73)" style="fill: #ff0000; stroke: #000000"/>
    <path d="M 201.97125 378.389443 
C 206.448394 378.389443 210.742768 376.610655 213.908586 373.444836 
C 217.074405 370.279018 218.853193 365.984644 218.853193 361.5075 
C 218.853193 357.030356 217.074405 352.735982 213.908586 349.570164 
C 210.742768 346.404345 206.448394 344.625557 201.97125 344.625557 
C 197.494106 344.625557 193.199732 346.404345 190.033914 349.570164 
C 186.868095 352.735982 185.089307 357.030356 185.089307 361.5075 
C 185.089307 365.984644 186.868095 370.279018 190.033914 373.444836 
C 193.199732 376.610655 197.494106 378.389443 201.97125 378.389443 
z
" clip-path="url(#pf1e56aac73)" style="fill: #ff0000; stroke: #000000"/>
    <path d="M 358.57125 377.298239 
C 363.278138 377.298239 367.792878 375.428173 371.12115 372.0999 
C 374.449423 368.771628 376.319489 364.256888 376.319489 359.55 
C 376.319489 354.843112 374.449423 350.328372 371.12115 347.0001 
C 367.792878 343.671827 363.278138 341.801761 358.57125 341.801761 
C 353.864362 341.801761 349.349622 343.671827 346.02135 347.0001 
C 342.693077 350.328372 340.823011 354.843112 340.823011 359.55 
C 340.823011 364.256888 342.693077 368.771628 346.02135 372.0999 
C 349.349622 375.428173 353.864362 377.298239 358.57125 377.298239 
z
" clip-path="url(#pf1e56aac73)" style="fill: #ff0000; stroke: #000000"/>
    <path d="M 62.01 340.134085 
C 66.075487 340.134085 69.975009 338.51885 72.849742 335.644117 
C 75.724475 332.769384 77.33971 328.869862 77.33971 324.804375 
C 77.33971 320.738888 75.724475 316.839366 72.849742 313.964633 
C 69.975009 311.0899 66.075487 309.474665 62.01 309.474665 
C 57.944513 309.474665 54.044991 311.0899 51.170258 313.964633 
C 48.295525 316.839366 46.68029 320.738888 46.68029 324.804375 
C 46.68029 328.869862 48.295525 332.769384 51.170258 335.644117 
C 54.044991 338.51885 57.944513 340.134085 62.01 340.134085 
z
" clip-path="url(#pf1e56aac73)" style="fill: #ff0000; stroke: #000000"/>
    <path d="M 151.07625 431.058987 
C 156.413359 431.058987 161.532593 428.938531 165.306499 425.164624 
C 169.080406 421.390718 171.200862 416.271484 171.200862 410.934375 
C 171.200862 405.597266 169.080406 400.478032 165.306499 396.704126 
C 161.532593 392.930219 156.413359 390.809763 151.07625 390.809763 
C 145.739141 390.809763 140.619907 392.930219 136.846001 396.704126 
C 133.072094 400.478032 130.951638 405.597266 130.951638 410.934375 
C 130.951638 416.271484 133.072094 421.390718 136.846001 425.164624 
C 140.619907 428.938531 145.739141 431.058987 151.07625 431.058987 
z
" clip-path="url(#pf1e56aac73)" style="fill: #ff0000; stroke: #000000"/>
    <path d="M 134.926875 340.456851 
C 139.07796 340.456851 143.059586 338.807607 145.994847 335.872347 
C 148.930107 332.937086 150.579351 328.95546 150.579351 324.804375 
C 150.579351 320.65329 148.930107 316.671664 145.994847 313.736403 
C 143.059586 310.801143 139.07796 309.151899 134.926875 309.151899 
C 130.77579 309.151899 126.794164 310.801143 123.858903 313.736403 
C 120.923643 316.671664 119.274399 320.65329 119.274399 324.804375 
C 119.274399 328.95546 120.923643 332.937086 123.858903 335.872347 
C 126.794164 338.807607 130.77579 340.456851 134.926875 340.456851 
z
" clip-path="url(#pf1e56aac73)" style="fill: #ff0000; stroke: #000000"/>
    <path d="M 284.675625 448.678028 
C 290.142927 448.678028 295.387038 446.505846 299.253005 442.63988 
C 303.118971 438.773913 305.291153 433.529802 305.291153 428.0625 
C 305.291153 422.595198 303.118971 417.351087 299.253005 413.48512 
C 295.387038 409.619154 290.142927 407.446972 284.675625 407.446972 
C 279.208323 407.446972 273.964212 409.619154 270.098245 413.48512 
C 266.232279 417.351087 264.060097 422.595198 264.060097 428.0625 
C 264.060097 433.529802 266.232279 438.773913 270.098245 442.63988 
C 273.964212 446.505846 279.208323 448.678028 284.675625 448.678028 
z
" clip-path="url(#pf1e56aac73)" style="fill: #ff0000; stroke: #000000"/>
    <path d="M 240.1425 279.508025 
C 243.444252 279.508025 246.611217 278.196225 248.945908 275.861533 
C 251.2806 273.526842 252.5924 270.359877 252.5924 267.058125 
C 252.5924 263.756373 251.2806 260.589408 248.945908 258.254717 
C 246.611217 255.920025 243.444252 254.608225 240.1425 254.608225 
C 236.840748 254.608225 233.673783 255.920025 231.339092 258.254717 
C 229.0044 260.589408 227.6926 263.756373 227.6926 267.058125 
C 227.6926 270.359877 229.0044 273.526842 231.339092 275.861533 
C 233.673783 278.196225 236.840748 279.508025 240.1425 279.508025 
z
" clip-path="url(#pf1e56aac73)" style="fill: #ff0000; stroke: #000000"/>
    <path d="M 356.124375 204.606833 
C 358.640313 204.606833 361.053542 203.60724 362.832579 201.828204 
C 364.611615 200.049167 365.611208 197.635938 365.611208 195.12 
C 365.611208 192.604062 364.611615 190.190833 362.832579 188.411796 
C 361.053542 186.63276 358.640313 185.633167 356.124375 185.633167 
C 353.608437 185.633167 351.195208 186.63276 349.416171 188.411796 
C 347.637135 190.190833 346.637542 192.604062 346.637542 195.12 
C 346.637542 197.635938 347.637135 200.049167 349.416171 201.828204 
C 351.195208 203.60724 353.608437 204.606833 356.124375 204.606833 
z
" clip-path="url(#pf1e56aac73)" style="fill: #ff0000; stroke: #000000"/>
    <path d="M 119.75625 238.885588 
C 122.537724 238.885588 125.20565 237.780497 127.172448 235.813698 
C 129.139247 233.8469 130.244338 231.178974 130.244338 228.3975 
C 130.244338 225.616026 129.139247 222.9481 127.172448 220.981302 
C 125.20565 219.014503 122.537724 217.909412 119.75625 217.909412 
C 116.974776 217.909412 114.30685 219.014503 112.340052 220.981302 
C 110.373253 222.9481 109.268162 225.616026 109.268162 228.3975 
C 109.268162 231.178974 110.373253 233.8469 112.340052 235.813698 
C 114.30685 237.780497 116.974776 238.885588 119.75625 238.885588 
z
" clip-path="url(#pf1e56aac73)" style="fill: #ff0000; stroke: #000000"/>
   </g>
   <g id="matplotlib.axis_1">
    <g id="xtick_1"/>
    <g id="xtick_2"/>
    <g id="xtick_3"/>
    <g id="xtick_4"/>
    <g id="xtick_5"/>
    <g id="xtick_6"/>
    <g id="xtick_7"/>
    <g id="xtick_8"/>
    <g id="xtick_9"/>
   </g>
   <g id="matplotlib.axis_2">
    <g id="ytick_1"/>
    <g id="ytick_2"/>
    <g id="ytick_3"/>
    <g id="ytick_4"/>
    <g id="ytick_5"/>
    <g id="ytick_6"/>
    <g id="ytick_7"/>
   </g>
   <g id="text_1">
    <!-- 1 -->
    <g style="fill: #ffffff" transform="translate(225.26125 559.68375) scale(0.16 -0.16)">
     <defs>
      <path id="Montserrat-Bold-31" d="M 941 0 
L 1978 0 
L 1978 4480 
L 45 4480 
L 45 3648 
L 941 3648 
L 941 0 
z
" transform="scale(0.015625)"/>
     </defs>
     <use xlink:href="#Montserrat-Bold-31"/>
    </g>
   </g>
   <g id="text_2">
    <!-- 8 -->
    <g style="fill: #ffffff" transform="translate(254.926875 323.315625) scale(0.16 -0.16)">
     <defs>
      <path id="Montserrat-Bold-38" d="M 2106 -77 
C 3245 -77 4000 454 4000 1299 
C 4000 1779 3750 2138 3315 2355 
C 3648 2560 3840 2874 3840 3277 
C 3840 4064 3136 4557 2106 4557 
C 1088 4557 384 4064 384 3277 
C 384 2874 576 2566 902 2355 
C 474 2138 224 1779 224 1299 
C 224 454 973 -77 2106 -77 
z
M 2106 685 
C 1594 685 1274 934 1274 1331 
C 1274 1728 1594 1971 2106 1971 
C 2624 1971 2950 1728 2950 1331 
C 2950 934 2624 685 2106 685 
z
M 2106 2682 
C 1683 2682 1414 2893 1414 3232 
C 1414 3584 1690 3795 2106 3795 
C 2528 3795 2810 3584 2810 3232 
C 2810 2893 2534 2682 2106 2682 
z
" transform="scale(0.015625)"/>
     </defs>
     <use xlink:href="#Montserrat-Bold-38"/>
    </g>
   </g>
   <g id="text_3">
    <!-- 5 -->
    <g style="fill: #ffffff" transform="translate(197.21125 365.89125) scale(0.16 -0.16)">
     <defs>
      <path id="Montserrat-Bold-35" d="M 1773 -77 
C 3053 -77 3635 614 3635 1408 
C 3635 2202 3110 2797 1786 2797 
L 1421 2797 
L 1491 3648 
L 3360 3648 
L 3360 4480 
L 627 4480 
L 397 1958 
L 1542 1958 
C 2355 1958 2586 1728 2586 1376 
C 2586 1011 2266 794 1747 794 
C 1280 794 813 941 474 1197 
L 64 403 
C 499 96 1152 -77 1773 -77 
z
" transform="scale(0.015625)"/>
     </defs>
     <use xlink:href="#Montserrat-Bold-35"/>
    </g>
   </g>
   <g id="text_4">
    <!-- 13 -->
    <g style="fill: #ffffff" transform="translate(350.69875 363.93375) scale(0.16 -0.16)">
     <defs>
      <path id="Montserrat-Bold-33" d="M 1702 -77 
C 2976 -77 3558 614 3558 1370 
C 3558 2029 3149 2528 2342 2662 
L 3354 3808 
L 3354 4480 
L 218 4480 
L 218 3648 
L 2118 3648 
L 1203 2605 
L 1203 1920 
L 1677 1920 
C 2266 1920 2515 1709 2515 1370 
C 2515 1005 2195 794 1677 794 
C 1210 794 736 941 397 1197 
L -6 403 
C 429 96 1075 -77 1702 -77 
z
" transform="scale(0.015625)"/>
     </defs>
     <use xlink:href="#Montserrat-Bold-31"/>
     <use xlink:href="#Montserrat-Bold-33" x="39.199997"/>
    </g>
   </g>
   <g id="text_5">
    <!-- 16 -->
    <g style="fill: #ffffff" transform="translate(53.7775 329.188125) scale(0.16 -0.16)">
     <defs>
      <path id="Montserrat-Bold-36" d="M 2253 -77 
C 3200 -77 3949 499 3949 1414 
C 3949 2259 3270 2810 2406 2810 
C 1939 2810 1562 2669 1299 2406 
C 1331 3270 1811 3712 2560 3712 
C 2861 3712 3149 3654 3398 3488 
L 3782 4250 
C 3469 4448 3008 4557 2534 4557 
C 1184 4557 250 3693 250 2144 
C 250 698 1018 -77 2253 -77 
z
M 2195 698 
C 1696 698 1408 979 1408 1363 
C 1408 1754 1728 2035 2182 2035 
C 2643 2035 2944 1773 2944 1363 
C 2944 954 2637 698 2195 698 
z
" transform="scale(0.015625)"/>
     </defs>
     <use xlink:href="#Montserrat-Bold-31"/>
     <use xlink:href="#Montserrat-Bold-36" x="39.199997"/>
    </g>
   </g>
   <g id="text_6">
    <!-- 3 -->
    <g style="fill: #ffffff" transform="translate(146.34 415.318125) scale(0.16 -0.16)">
     <use xlink:href="#Montserrat-Bold-33"/>
    </g>
   </g>
   <g id="text_7">
    <!-- 20 -->
    <g style="fill: #ffffff" transform="translate(124.774375 329.188125) scale(0.16 -0.16)">
     <defs>
      <path id="Montserrat-Bold-32" d="M 211 0 
L 3597 0 
L 3597 845 
L 1670 845 
L 2701 1818 
C 3328 2400 3450 2797 3450 3232 
C 3450 4045 2784 4557 1786 4557 
C 979 4557 352 4230 6 3725 
L 762 3238 
C 979 3539 1306 3686 1690 3686 
C 2163 3686 2406 3482 2406 3130 
C 2406 2912 2336 2682 1939 2304 
L 211 672 
L 211 0 
z
" transform="scale(0.015625)"/>
      <path id="Montserrat-Bold-30" d="M 2170 -77 
C 3277 -77 4090 762 4090 2240 
C 4090 3718 3277 4557 2170 4557 
C 1069 4557 250 3718 250 2240 
C 250 762 1069 -77 2170 -77 
z
M 2170 800 
C 1658 800 1299 1222 1299 2240 
C 1299 3258 1658 3680 2170 3680 
C 2688 3680 3046 3258 3046 2240 
C 3046 1222 2688 800 2170 800 
z
" transform="scale(0.015625)"/>
     </defs>
     <use xlink:href="#Montserrat-Bold-32"/>
     <use xlink:href="#Montserrat-Bold-30" x="58.999985"/>
    </g>
   </g>
   <g id="text_8">
    <!-- 4 -->
    <g style="fill: #ffffff" transform="translate(279.163125 432.44625) scale(0.16 -0.16)">
     <defs>
      <path id="Montserrat-Bold-34" d="M 198 941 
L 2611 941 
L 2611 0 
L 3622 0 
L 3622 941 
L 4352 941 
L 4352 1786 
L 3622 1786 
L 3622 2624 
L 2643 2624 
L 2643 1786 
L 1446 1786 
L 3398 4480 
L 2310 4480 
L 198 1638 
L 198 941 
z
" transform="scale(0.015625)"/>
     </defs>
     <use xlink:href="#Montserrat-Bold-34"/>
    </g>
   </g>
   <g id="text_9">
    <!-- 9 -->
    <g style="fill: #ffffff" transform="translate(235.04625 271.441875) scale(0.16 -0.16)">
     <defs>
      <path id="Montserrat-Bold-39" d="M 1542 -77 
C 2899 -77 3827 787 3827 2336 
C 3827 3782 3066 4557 1824 4557 
C 877 4557 128 3981 128 3066 
C 128 2221 806 1670 1670 1670 
C 2138 1670 2522 1811 2784 2074 
C 2752 1210 2266 768 1523 768 
C 1216 768 928 826 685 992 
L 301 230 
C 614 32 1069 -77 1542 -77 
z
M 1901 2445 
C 1440 2445 1139 2707 1139 3117 
C 1139 3526 1446 3782 1888 3782 
C 2381 3782 2669 3501 2669 3117 
C 2669 2726 2355 2445 1901 2445 
z
" transform="scale(0.015625)"/>
     </defs>
     <use xlink:href="#Montserrat-Bold-39"/>
    </g>
   </g>
   <g id="text_10">
    <!-- 11 -->
    <g style="fill: #ffffff" transform="translate(349.851875 199.50375) scale(0.16 -0.16)">
     <use xlink:href="#Montserrat-Bold-31"/>
     <use xlink:href="#Montserrat-Bold-31" x="39.199997"/>
    </g>
   </g>
   <g id="text_11">
    <!-- 7 -->
    <g style="fill: #ffffff" transform="translate(114.79625 232.78125) scale(0.16 -0.16)">
     <defs>
      <path id="Montserrat-Bold-37" d="M 966 0 
L 2093 0 
L 3757 3808 
L 3757 4480 
L 166 4480 
L 166 2906 
L 1088 2906 
L 1088 3635 
L 2573 3635 
L 966 0 
z
" transform="scale(0.015625)"/>
     </defs>
     <use xlink:href="#Montserrat-Bold-37"/>
    </g>
   </g>
  </g>
 </g>
 <defs>
  <clipPath id="pf1e56aac73">
   <rect x="7.2" y="7.2" width="430.65" height="626.4"/>
  </clipPath>
 </defs>
</svg>
