<?xml version="1.0" encoding="utf-8" standalone="no"?>
<!DOCTYPE svg PUBLIC "-//W3C//DTD SVG 1.1//EN"
  "http://www.w3.org/Graphics/SVG/1.1/DTD/svg11.dtd">
<svg xmlns:xlink="http://www.w3.org/1999/xlink" width="445.05pt" height="640.8pt" viewBox="0 0 445.05 640.8" xmlns="http://www.w3.org/2000/svg" version="1.1">
 <metadata>
  <rdf:RDF xmlns:dc="http://purl.org/dc/elements/1.1/" xmlns:cc="http://creativecommons.org/ns#" xmlns:rdf="http://www.w3.org/1999/02/22-rdf-syntax-ns#">
   <cc:Work>
    <dc:type rdf:resource="http://purl.org/dc/dcmitype/StillImage"/>
    <dc:date>2026-06-19T23:44:22.644192</dc:date>
    <dc:format>image/svg+xml</dc:format>
    <dc:creator>
     <cc:Agent>
      <dc:title>Matplotlib v3.9.0, https://matplotlib.org/</dc:title>
     </cc:Agent>
    </dc:creator>
   </cc:Work>
  </rdf:RDF>
 </metadata>
 <defs>
  <style type="text/css">*{stroke-linejoin: round; stroke-linecap: butt}</style>
 </defs>
 <g id="figure_1">
  <g id="patch_1">
   <path d="M 0 640.8 
L 445.05 640.8 
L 445.05 0 
L 0 0 
z
" style="fill: #1e2836"/>
  </g>
  <g id="axes_1">
   <g id="patch_2">
    <path d="M 7.2 633.6 
L 437.85 633.6 
L 437.85 7.2 
L 7.2 7.2 
z
" style="fill: #1e2836"/>
   </g>
   <g id="line2d_1">
    <path d="M 418.275 320.4 
L 26.775 320.4 
L 26.775 26.775 
L 418.275 26.775 
L 418.275 614.025 
L 26.775 614.025 
L 26.775 320.4 
" clip-path="url(#pabf6960278)" style="fill: none; stroke: #c7d5cc; stroke-width: 2; stroke-linecap: square"/>
   </g>
   <g id="line2d_2">
    <path d="M 330.1875 26.775 
L 330.1875 114.8625 
L 114.8625 114.8625 
L 114.8625 26.775 
" clip-path="url(#pabf6960278)" style="fill: none; stroke: #c7d5cc; stroke-width: 2; stroke-linecap: square"/>
   </g>
   <g id="line2d_3">
    <path d="M 330.1875 614.025 
L 330.1875 525.9375 
L 114.8625 525.9375 
L 114.8625 614.025 
" clip-path="url(#pabf6960278)" style="fill: none; stroke: #c7d5cc; stroke-width: 2; stroke-linecap: square"/>
   </g>
   <g id="line2d_4">
    <path d="M 271.4625 26.775 
L 271.4625 56.1375 
L 173.5875 56.1375 
L 173.5875 26.775 
" clip-path="url(#pabf6960278)" style="fill: none; stroke: #c7d5cc; stroke-width: 2; stroke-linecap: square"/>
   </g>
   <g id="line2d_5">
    <path d="M 271.4625 614.025 
L 271.4625 584.6625 
L 173.5875 584.6625 
L 173.5875 614.025 
" clip-path="url(#pabf6960278)" style="fill: none; stroke: #c7d5cc; stroke-width: 2; stroke-linecap: square"/>
   </g>
   <g id="patch_3">
    <path d="M 222.525 369.3375 
C 235.503377 369.3375 247.95194 364.181136 257.129038 355.004038 
C 266.306136 345.82694 271.4625 333.378377 271.4625 320.4 
C 271.4625 307.421623 266.306136 294.97306 257.129038 285.795962 
C 247.95194 276.618864 235.503377 271.4625 222.525 271.4625 
C 209.546623 271.4625 197.09806 276.618864 187.920962 285.795962 
C 178.743864 294.97306 173.5875 307.421623 173.5875 320.4 
C 173.5875 333.378377 178.743864 345.82694 187.920962 355.004038 
C 197.09806 364.181136 209.546623 369.3375 222.525 369.3375 
L 222.525 369.3375 
z
" clip-path="url(#pabf6960278)" style="fill: none; stroke: #c7d5cc; stroke-width: 2; stroke-linejoin: miter"/>
   </g>
   <g id="patch_4">
    <path d="M 261.633912 525.882795 
C 257.074189 519.820839 251.166876 514.901235 244.379913 511.513682 
C 237.59295 508.126128 230.110406 506.3625 222.525 506.3625 
C 214.939594 506.3625 207.45705 508.126128 200.670087 511.513682 
C 193.883124 514.901235 187.975811 519.820839 183.416088 525.882795 
" clip-path="url(#pabf6960278)" style="fill: none; stroke: #c7d5cc; stroke-width: 2; stroke-linejoin: miter"/>
   </g>
   <g id="patch_5">
    <path d="M 183.416088 114.917205 
C 187.975811 120.979161 193.883124 125.898765 200.670087 129.286318 
C 207.45705 132.673872 214.939594 134.4375 222.525 134.4375 
C 230.110406 134.4375 237.59295 132.673872 244.379913 129.286318 
C 251.166876 125.898765 257.074189 120.979161 261.633912 114.917205 
" clip-path="url(#pabf6960278)" style="fill: none; stroke: #c7d5cc; stroke-width: 2; stroke-linejoin: miter"/>
   </g>
   <g id="patch_6">
    <path d="M 222.525 321.5745 
C 222.836481 321.5745 223.135247 321.450747 223.355497 321.230497 
C 223.575747 321.010247 223.6995 320.711481 223.6995 320.4 
C 223.6995 320.088519 223.575747 319.789753 223.355497 319.569503 
C 223.135247 319.349253 222.836481 319.2255 222.525 319.2255 
C 222.213519 319.2255 221.914753 319.349253 221.694503 319.569503 
C 221.474253 319.789753 221.3505 320.088519 221.3505 320.4 
C 221.3505 320.711481 221.474253 321.010247 221.694503 321.230497 
C 221.914753 321.450747 222.213519 321.5745 222.525 321.5745 
z
" clip-path="url(#pabf6960278)" style="fill: #c7d5cc; stroke: #c7d5cc; stroke-linejoin: miter"/>
   </g>
   <g id="patch_7">
    <path d="M 222.525 556.4745 
C 222.836481 556.4745 223.135247 556.350747 223.355497 556.130497 
C 223.575747 555.910247 223.6995 555.611481 223.6995 555.3 
C 223.6995 554.988519 223.575747 554.689753 223.355497 554.469503 
C 223.135247 554.249253 222.836481 554.1255 222.525 554.1255 
C 222.213519 554.1255 221.914753 554.249253 221.694503 554.469503 
C 221.474253 554.689753 221.3505 554.988519 221.3505 555.3 
C 221.3505 555.611481 221.474253 555.910247 221.694503 556.130497 
C 221.914753 556.350747 222.213519 556.4745 222.525 556.4745 
z
" clip-path="url(#pabf6960278)" style="fill: #c7d5cc; stroke: #c7d5cc; stroke-linejoin: miter"/>
   </g>
   <g id="patch_8">
    <path d="M 222.525 86.6745 
C 222.836481 86.6745 223.135247 86.550747 223.355497 86.330497 
C 223.575747 86.110247 223.6995 85.811481 223.6995 85.5 
C 223.6995 85.188519 223.575747 84.889753 223.355497 84.669503 
C 223.135247 84.449253 222.836481 84.3255 222.525 84.3255 
C 222.213519 84.3255 221.914753 84.449253 221.694503 84.669503 
C 221.474253 84.889753 221.3505 85.188519 221.3505 85.5 
C 221.3505 85.811481 221.474253 86.110247 221.694503 86.330497 
C 221.914753 86.550747 222.213519 86.6745 222.525 86.6745 
z
" clip-path="url(#pabf6960278)" style="fill: #c7d5cc; stroke: #c7d5cc; stroke-linejoin: miter"/>
   </g>
   <g id="line2d_6">
    <path d="M 202.95 26.775 
L 242.1 26.775 
" clip-path="url(#pabf6960278)" style="fill: none; stroke: #c7d5cc; stroke-width: 4; stroke-linecap: square"/>
   </g>
   <g id="line2d_7">
    <path d="M 202.95 614.025 
L 242.1 614.025 
" clip-path="url(#pabf6960278)" style="fill: none; stroke: #c7d5cc; stroke-width: 4; stroke-linecap: square"/>
   </g>
   <g id="Quiver_1">
    <path d="M 258.414812 339.04569 
L 216.77352 303.30051 
L 220.453279 314.366647 
L 204.418125 290.05875 
L 230.874786 302.226128 
L 219.378897 300.265381 
L 261.020188 336.01056 
L 258.414812 339.04569 
" clip-path="url(#pabf6960278)" style="fill: #ffffff"/>
   </g>
   <g id="Quiver_2">
    <path d="M 260.371413 335.638046 
L 346.618831 365.4772 
L 339.130178 356.537397 
L 362.975625 373.2525 
L 333.89887 371.658026 
L 345.311004 369.257358 
L 259.063587 339.418204 
L 260.371413 335.638046 
" clip-path="url(#pabf6960278)" style="fill: #ffffff; fill-opacity: 0.916667"/>
   </g>
   <g id="Quiver_3">
    <path d="M 362.321712 375.142579 
L 276.074294 345.303425 
L 283.562947 354.243228 
L 259.7175 337.528125 
L 288.794255 339.122599 
L 277.382121 341.523267 
L 363.629538 371.362421 
L 362.321712 375.142579 
" clip-path="url(#pabf6960278)" style="fill: #ffffff; fill-opacity: 0.916667"/>
   </g>
   <g id="Quiver_4">
    <path d="M 135.563855 399.478765 
L 225.277112 522.451571 
L 224.230625 510.836715 
L 234.27 538.171875 
L 211.304786 520.266598 
L 222.045652 524.809041 
L 132.332395 401.836235 
L 135.563855 399.478765 
" clip-path="url(#pabf6960278)" style="fill: #ffffff; fill-opacity: 0.833333"/>
   </g>
   <g id="Quiver_5">
    <path d="M 132.116604 401.46095 
L 93.83578 314.197136 
L 92.358469 325.76509 
L 88.43625 296.91 
L 107.010634 319.337489 
L 97.498822 312.590236 
L 135.779646 399.85405 
L 132.116604 401.46095 
" clip-path="url(#pabf6960278)" style="fill: #ffffff; fill-opacity: 0.833333"/>
   </g>
   <g id="Quiver_6">
    <path d="M 251.373127 404.125469 
L 151.921721 402.882326 
L 161.845946 409.006848 
L 133.948125 400.6575 
L 162.04593 393.008098 
L 151.971717 398.882639 
L 251.423123 400.125781 
L 251.373127 404.125469 
" clip-path="url(#pabf6960278)" style="fill: #ffffff; fill-opacity: 0.833333"/>
   </g>
   <g id="Quiver_7">
    <path d="M 88.318312 294.91348 
L 186.33151 289.123671 
L 175.995099 283.723802 
L 204.418125 290.05875 
L 176.938602 299.695959 
L 186.567386 293.11671 
L 88.554188 298.90652 
L 88.318312 294.91348 
" clip-path="url(#pabf6960278)" style="fill: #ffffff; fill-opacity: 0.666667"/>
   </g>
   <g id="Quiver_8">
    <path d="M 133.973123 398.657656 
L 233.424529 399.900799 
L 223.500304 393.776277 
L 251.398125 402.125625 
L 223.30032 409.775027 
L 233.374533 403.900486 
L 133.923127 402.657344 
L 133.973123 398.657656 
" clip-path="url(#pabf6960278)" style="fill: #ffffff; fill-opacity: 0.666667"/>
   </g>
   <g id="Quiver_9">
    <path d="M 363.476665 375.188723 
L 269.32517 399.552487 
L 280.509405 402.855955 
L 251.398125 402.125625 
L 276.501084 387.366172 
L 268.32309 395.680041 
L 362.474585 371.316277 
L 363.476665 375.188723 
" clip-path="url(#pabf6960278)" style="fill: #ffffff; fill-opacity: 0.583333"/>
   </g>
   <g id="Quiver_10">
    <path d="M 206.104833 291.133467 
L 145.307283 386.551844 
L 155.74099 381.342454 
L 133.948125 400.6575 
L 142.247326 372.74472 
L 141.933867 384.402411 
L 202.731417 288.984033 
L 206.104833 291.133467 
" clip-path="url(#pabf6960278)" style="fill: #ffffff; fill-opacity: 0.583333"/>
   </g>
   <g id="Quiver_11">
    <path d="M 205.347364 288.287729 
L 347.965678 363.118326 
L 341.898292 353.159067 
L 362.975625 373.2525 
L 334.464378 367.327233 
L 346.107199 366.660367 
L 203.488886 291.829771 
L 205.347364 288.287729 
" clip-path="url(#pabf6960278)" style="fill: #ffffff; fill-opacity: 0.583333"/>
   </g>
   <g id="Quiver_12">
    <path d="M 90.267771 296.10655 
L 128.548595 383.370364 
L 130.025906 371.80241 
L 133.948125 400.6575 
L 115.373741 378.230011 
L 124.885553 384.977264 
L 86.604729 297.71345 
L 90.267771 296.10655 
" clip-path="url(#pabf6960278)" style="fill: #ffffff; fill-opacity: 0.583333"/>
   </g>
   <g id="Quiver_13">
    <path d="M 132.261417 399.582783 
L 193.058967 304.164406 
L 182.62526 309.373796 
L 204.418125 290.05875 
L 196.118924 317.97153 
L 196.432383 306.313839 
L 135.634833 401.732217 
L 132.261417 399.582783 
" clip-path="url(#pabf6960278)" style="fill: #ffffff; fill-opacity: 0.5"/>
   </g>
   <g id="Quiver_14">
    <path d="M 338.514413 233.408302 
L 361.589756 355.194832 
L 365.623256 344.252672 
L 362.975625 373.2525 
L 349.902949 347.231256 
L 357.659679 355.939478 
L 334.584337 234.152948 
L 338.514413 233.408302 
" clip-path="url(#pabf6960278)" style="fill: #ffffff; fill-opacity: 0.5"/>
   </g>
   <g id="Quiver_15">
    <path d="M 232.693313 536.941404 
L 350.324701 386.212211 
L 339.442286 390.404234 
L 362.975625 373.2525 
L 352.055782 400.248 
L 353.478075 388.673153 
L 235.846687 539.402346 
L 232.693313 536.941404 
" clip-path="url(#pabf6960278)" style="fill: #ffffff; fill-opacity: 0.416667"/>
   </g>
   <g id="Quiver_16">
    <path d="M 232.285665 537.922049 
L 247.165352 419.734817 
L 239.963214 428.907014 
L 251.398125 402.125625 
L 255.837897 430.905625 
L 251.134023 420.23447 
L 236.254335 538.421701 
L 232.285665 537.922049 
" clip-path="url(#pabf6960278)" style="fill: #ffffff; fill-opacity: 0.416667"/>
   </g>
   <g id="Quiver_17">
    <path d="M 205.720813 288.541185 
L 247.362105 324.286365 
L 243.682346 313.220228 
L 259.7175 337.528125 
L 233.260839 325.360747 
L 244.756728 327.321494 
L 203.115437 291.576315 
L 205.720813 288.541185 
" clip-path="url(#pabf6960278)" style="fill: #ffffff; fill-opacity: 0.416667"/>
   </g>
   <g id="Quiver_18">
    <path d="M 204.536063 292.05527 
L 106.522865 297.845079 
L 116.859276 303.244948 
L 88.43625 296.91 
L 115.915773 287.272791 
L 106.286989 293.85204 
L 204.300187 288.06223 
L 204.536063 292.05527 
" clip-path="url(#pabf6960278)" style="fill: #ffffff; fill-opacity: 0.416667"/>
   </g>
   <g id="Quiver_19">
    <path d="M 258.110251 336.337851 
L 324.229662 247.055589 
L 313.456547 251.521011 
L 336.549375 233.780625 
L 326.314537 261.043202 
L 327.44416 249.436137 
L 261.324749 338.718399 
L 258.110251 336.337851 
" clip-path="url(#pabf6960278)" style="fill: #ffffff; fill-opacity: 0.333333"/>
   </g>
   <g id="Quiver_20">
    <path d="M 364.552312 374.482971 
L 246.920924 525.212164 
L 257.803339 521.020141 
L 234.27 538.171875 
L 245.189843 511.176375 
L 243.76755 522.751222 
L 361.398938 372.022029 
L 364.552312 374.482971 
" clip-path="url(#pabf6960278)" style="fill: #ffffff; fill-opacity: 0.333333"/>
   </g>
   <g id="Quiver_21">
    <path d="M 106.074785 198.253396 
L 133.296598 382.558453 
L 137.771058 371.789088 
L 133.948125 400.6575 
L 121.942775 374.126922 
L 129.339527 383.142911 
L 102.117715 198.837854 
L 106.074785 198.253396 
" clip-path="url(#pabf6960278)" style="fill: #ffffff; fill-opacity: 0.333333"/>
   </g>
   <g id="Quiver_22">
    <path d="M 133.050917 398.870039 
L 242.733141 343.815537 
L 231.104211 342.939194 
L 259.7175 337.528125 
L 238.281876 357.238884 
L 244.527557 347.39046 
L 134.845333 402.444961 
L 133.050917 398.870039 
" clip-path="url(#pabf6960278)" style="fill: #ffffff; fill-opacity: 0.333333"/>
   </g>
   <g id="Quiver_23">
    <path d="M 106.071376 198.860073 
L 93.241407 279.448314 
L 100.739025 270.516028 
L 88.43625 296.91 
L 84.938017 268.000445 
L 89.291155 278.819419 
L 102.121124 198.231177 
L 106.071376 198.860073 
" clip-path="url(#pabf6960278)" style="fill: #ffffff; fill-opacity: 0.333333"/>
   </g>
   <g id="Quiver_24">
    <path d="M 250.897085 400.189402 
L 345.04858 375.825638 
L 333.864345 372.52217 
L 362.975625 373.2525 
L 337.872666 388.011953 
L 346.05066 379.698084 
L 251.899165 404.061848 
L 250.897085 400.189402 
" clip-path="url(#pabf6960278)" style="fill: #ffffff; fill-opacity: 0.333333"/>
   </g>
   <g id="Quiver_25">
    <path d="M 232.65427 539.35061 
L 142.941013 416.377804 
L 143.9875 427.99266 
L 133.948125 400.6575 
L 156.913339 418.562777 
L 146.172473 414.020334 
L 235.88573 536.99314 
L 232.65427 539.35061 
" clip-path="url(#pabf6960278)" style="fill: #ffffff; fill-opacity: 0.333333"/>
   </g>
   <g id="Quiver_26">
    <path d="M 362.046386 375.023521 
L 219.428072 300.192924 
L 225.495458 310.152183 
L 204.418125 290.05875 
L 232.929372 295.984017 
L 221.286551 296.650883 
L 363.904864 371.481479 
L 362.046386 375.023521 
" clip-path="url(#pabf6960278)" style="fill: #ffffff; fill-opacity: 0.25"/>
   </g>
   <g id="Quiver_27">
    <path d="M 259.256013 339.474154 
L 105.489026 303.009412 
L 113.834712 311.154934 
L 88.43625 296.91 
L 117.526607 295.5867 
L 106.412 299.117353 
L 260.178987 335.582096 
L 259.256013 339.474154 
" clip-path="url(#pabf6960278)" style="fill: #ffffff; fill-opacity: 0.25"/>
   </g>
   <g id="Quiver_28">
    <path d="M 361.010587 373.624823 
L 337.935244 251.838293 
L 333.901744 262.780453 
L 336.549375 233.780625 
L 349.622051 259.801869 
L 341.865321 251.093647 
L 364.940663 372.880177 
L 361.010587 373.624823 
" clip-path="url(#pabf6960278)" style="fill: #ffffff; fill-opacity: 0.25"/>
   </g>
   <g id="Quiver_29">
    <path d="M 260.614708 339.315586 
L 150.932484 394.370088 
L 162.561414 395.246431 
L 133.948125 400.6575 
L 155.383749 380.946741 
L 149.138068 390.795165 
L 258.820292 335.740664 
L 260.614708 339.315586 
" clip-path="url(#pabf6960278)" style="fill: #ffffff; fill-opacity: 0.25"/>
   </g>
   <g id="Quiver_30">
    <path d="M 360.982747 373.421128 
L 357.117275 327.738284 
L 351.981781 338.208561 
L 357.5925 309.63375 
L 367.924808 336.859536 
L 361.103032 327.401028 
L 364.968503 373.083872 
L 360.982747 373.421128 
" clip-path="url(#pabf6960278)" style="fill: #ffffff; fill-opacity: 0.25"/>
   </g>
   <g id="Quiver_31">
    <path d="M 131.96959 400.949729 
L 104.747777 216.644672 
L 100.273317 227.414037 
L 104.09625 198.545625 
L 116.1016 225.076203 
L 108.704848 216.060214 
L 135.92666 400.365271 
L 131.96959 400.949729 
" clip-path="url(#pabf6960278)" style="fill: #ffffff; fill-opacity: 0.25"/>
   </g>
   <g id="Quiver_32">
    <path d="M 355.665286 310.168396 
L 339.433979 251.660196 
L 336.32557 262.900205 
L 336.549375 233.780625 
L 351.74328 258.623033 
L 343.288407 250.590903 
L 359.519714 309.099104 
L 355.665286 310.168396 
" clip-path="url(#pabf6960278)" style="fill: #ffffff; fill-opacity: 0.25"/>
   </g>
   <g id="Quiver_33">
    <path d="M 261.701117 337.783591 
L 255.680935 384.528536 
L 262.909116 375.376848 
L 251.398125 402.125625 
L 247.040178 373.333121 
L 251.7137 384.017604 
L 257.733883 337.272659 
L 261.701117 337.783591 
" clip-path="url(#pabf6960278)" style="fill: #ffffff; fill-opacity: 0.25"/>
   </g>
   <g id="Quiver_34">
    <path d="M 338.156624 234.970899 
L 272.037213 324.253161 
L 282.810328 319.787739 
L 259.7175 337.528125 
L 269.952338 310.265548 
L 268.822715 321.872613 
L 334.942126 232.590351 
L 338.156624 234.970899 
" clip-path="url(#pabf6960278)" style="fill: #ffffff; fill-opacity: 0.25"/>
   </g>
   <g id="Quiver_35">
    <path d="M 253.38246 402.375451 
L 238.502773 520.562683 
L 245.704911 511.390486 
L 234.27 538.171875 
L 229.830228 509.391875 
L 234.534102 520.06303 
L 249.41379 401.875799 
L 253.38246 402.375451 
" clip-path="url(#pabf6960278)" style="fill: #ffffff; fill-opacity: 0.25"/>
   </g>
   <g id="Quiver_36">
    <path d="M 249.553644 402.898857 
L 209.532735 307.432315 
L 207.865453 318.974419 
L 204.418125 290.05875 
L 222.621304 312.78856 
L 213.221698 305.88585 
L 253.242606 401.352393 
L 249.553644 402.898857 
" clip-path="url(#pabf6960278)" style="fill: #ffffff; fill-opacity: 0.25"/>
   </g>
   <g id="Quiver_37">
    <path d="M 88.897737 294.963971 
L 242.664724 331.428713 
L 234.319038 323.283191 
L 259.7175 337.528125 
L 230.627143 338.851425 
L 241.74175 335.320772 
L 87.974763 298.856029 
L 88.897737 294.963971 
" clip-path="url(#pabf6960278)" style="fill: #ffffff; fill-opacity: 0.25"/>
   </g>
   <g id="Quiver_38">
    <path d="M 86.461124 296.595552 
L 99.291093 216.007311 
L 91.793475 224.939597 
L 104.09625 198.545625 
L 107.594483 227.45518 
L 103.241345 216.636206 
L 90.411376 297.224448 
L 86.461124 296.595552 
" clip-path="url(#pabf6960278)" style="fill: #ffffff; fill-opacity: 0.25"/>
   </g>
   <g id="Quiver_39">
    <path d="M 249.414508 401.870159 
L 255.43469 355.125214 
L 248.206509 364.276902 
L 259.7175 337.528125 
L 264.075447 366.320629 
L 259.401925 355.636146 
L 253.381742 402.381091 
L 249.414508 401.870159 
" clip-path="url(#pabf6960278)" style="fill: #ffffff; fill-opacity: 0.25"/>
   </g>
   <g id="Quiver_40">
    <path d="M 232.276732 538.335837 
L 208.794268 252.862747 
L 203.634277 263.320973 
L 209.311875 234.759375 
L 219.580419 262.009274 
L 212.780804 252.534822 
L 236.263268 538.007913 
L 232.276732 538.335837 
" clip-path="url(#pabf6960278)" style="fill: #ffffff; fill-opacity: 0.25"/>
   </g>
   <g id="Quiver_41">
    <path d="M 203.07027 291.536345 
L 116.04675 212.153915 
L 119.39116 223.325974 
L 104.09625 198.545625 
L 130.174 211.505214 
L 118.74246 209.198725 
L 205.76598 288.581155 
L 203.07027 291.536345 
" clip-path="url(#pabf6960278)" style="fill: #ffffff; fill-opacity: 0.166667"/>
   </g>
   <g id="Quiver_42">
    <path d="M 232.285894 537.920232 
L 255.46861 355.133435 
L 248.258079 364.299036 
L 259.7175 337.528125 
L 264.130926 366.312177 
L 259.436822 355.63672 
L 236.254106 538.423518 
L 232.285894 537.920232 
" clip-path="url(#pabf6960278)" style="fill: #ffffff; fill-opacity: 0.166667"/>
   </g>
   <g id="Quiver_43">
    <path d="M 338.476589 233.245979 
L 354.707896 291.754179 
L 357.816305 280.51417 
L 357.5925 309.63375 
L 342.398595 284.791342 
L 350.853468 292.823472 
L 334.622161 234.315271 
L 338.476589 233.245979 
" clip-path="url(#pabf6960278)" style="fill: #ffffff; fill-opacity: 0.166667"/>
   </g>
   <g id="Quiver_44">
    <path d="M 203.634401 288.218702 
L 319.205219 238.994094 
L 307.653807 237.392571 
L 336.549375 233.780625 
L 313.9236 252.112955 
L 320.772668 242.67419 
L 205.201849 291.898798 
L 203.634401 288.218702 
" clip-path="url(#pabf6960278)" style="fill: #ffffff; fill-opacity: 0.166667"/>
   </g>
   <g id="Quiver_45">
    <path d="M 206.262606 289.285518 
L 246.283515 384.75206 
L 247.950797 373.209956 
L 251.398125 402.125625 
L 233.194946 379.395815 
L 242.594552 386.298525 
L 202.573644 290.831982 
L 206.262606 289.285518 
" clip-path="url(#pabf6960278)" style="fill: #ffffff; fill-opacity: 0.166667"/>
   </g>
   <g id="Quiver_46">
    <path d="M 358.140672 311.55716 
L 277.576365 334.517988 
L 288.837933 337.547359 
L 259.7175 337.528125 
L 284.452558 322.160076 
L 276.480021 330.671167 
L 357.044328 307.71034 
L 358.140672 311.55716 
" clip-path="url(#pabf6960278)" style="fill: #ffffff; fill-opacity: 0.166667"/>
   </g>
   <g id="Quiver_47">
    <path d="M 363.213246 375.238334 
L 152.058251 400.504744 
L 162.700284 405.274139 
L 133.948125 400.6575 
L 160.799315 389.387468 
L 151.583009 396.533076 
L 362.738004 371.266666 
L 363.213246 375.238334 
" clip-path="url(#pabf6960278)" style="fill: #ffffff; fill-opacity: 0.166667"/>
   </g>
   <g id="Quiver_48">
    <path d="M 361.63665 374.738147 
L 221.343722 248.295795 
L 224.755032 259.447609 
L 209.311875 234.759375 
L 235.46683 247.562434 
L 224.021672 245.324501 
L 364.3146 371.766853 
L 361.63665 374.738147 
" clip-path="url(#pabf6960278)" style="fill: #ffffff; fill-opacity: 0.166667"/>
   </g>
   <g id="Quiver_49">
    <path d="M 202.425911 289.882448 
L 205.732941 252.513001 
L 198.874788 261.945166 
L 209.311875 234.759375 
L 214.812502 263.355583 
L 209.71737 252.865605 
L 206.410339 290.235052 
L 202.425911 289.882448 
" clip-path="url(#pabf6960278)" style="fill: #ffffff; fill-opacity: 0.166667"/>
   </g>
   <g id="Quiver_50">
    <path d="M 258.385282 339.019834 
L 116.189412 212.027296 
L 119.651302 223.163512 
L 104.09625 198.545625 
L 130.309046 211.229841 
L 118.853848 209.043878 
L 261.049718 336.036416 
L 258.385282 339.019834 
" clip-path="url(#pabf6960278)" style="fill: #ffffff; fill-opacity: 0.166667"/>
   </g>
   <g id="Quiver_51">
    <path d="M 204.671654 288.074884 
L 339.991238 305.368122 
L 330.832497 298.148879 
L 357.5925 309.63375 
L 328.804264 314.019804 
L 339.48418 309.335853 
L 204.164596 292.042616 
L 204.671654 288.074884 
" clip-path="url(#pabf6960278)" style="fill: #ffffff; fill-opacity: 0.166667"/>
   </g>
   <g id="Quiver_52">
    <path d="M 211.304089 234.935677 
L 207.997059 272.305124 
L 214.855212 262.872959 
L 204.418125 290.05875 
L 198.917498 261.462542 
L 204.01263 271.95252 
L 207.319661 234.583073 
L 211.304089 234.935677 
" clip-path="url(#pabf6960278)" style="fill: #ffffff; fill-opacity: 0.166667"/>
   </g>
   <g id="PathCollection_1">
    <path d="M 357.5925 318.294004 
C 359.889226 318.294004 362.092194 317.381505 363.716224 315.757474 
C 365.340255 314.133444 366.252754 311.930476 366.252754 309.63375 
C 366.252754 307.337024 365.340255 305.134056 363.716224 303.510026 
C 362.092194 301.885995 359.889226 300.973496 357.5925 300.973496 
C 355.295774 300.973496 353.092806 301.885995 351.468776 303.510026 
C 349.844745 305.134056 348.932246 307.337024 348.932246 309.63375 
C 348.932246 311.930476 349.844745 314.133444 351.468776 315.757474 
C 353.092806 317.381505 355.295774 318.294004 357.5925 318.294004 
z
" clip-path="url(#pabf6960278)" style="fill: #ff0000; stroke: #000000"/>
    <path d="M 259.7175 353.180601 
C 263.868585 353.180601 267.850211 351.531357 270.785472 348.596097 
C 273.720732 345.660836 275.369976 341.67921 275.369976 337.528125 
C 275.369976 333.37704 273.720732 329.395414 270.785472 326.460153 
C 267.850211 323.524893 263.868585 321.875649 259.7175 321.875649 
C 255.566415 321.875649 251.584789 323.524893 248.649528 326.460153 
C 245.714268 329.395414 244.065024 333.37704 244.065024 337.528125 
C 244.065024 341.67921 245.714268 345.660836 248.649528 348.596097 
C 251.584789 351.531357 255.566415 353.180601 259.7175 353.180601 
z
" clip-path="url(#pabf6960278)" style="fill: #ff0000; stroke: #000000"/>
    <path d="M 209.311875 241.467579 
C 211.090911 241.467579 212.797323 240.76076 214.055291 239.502791 
C 215.31326 238.244823 216.020079 236.538411 216.020079 234.759375 
C 216.020079 232.980339 215.31326 231.273927 214.055291 230.015959 
C 212.797323 228.75799 211.090911 228.051171 209.311875 228.051171 
C 207.532839 228.051171 205.826427 228.75799 204.568459 230.015959 
C 203.31049 231.273927 202.603671 232.980339 202.603671 234.759375 
C 202.603671 236.538411 203.31049 238.244823 204.568459 239.502791 
C 205.826427 240.76076 207.532839 241.467579 209.311875 241.467579 
z
" clip-path="url(#pabf6960278)" style="fill: #ff0000; stroke: #000000"/>
    <path d="M 133.948125 416.626219 
C 138.183079 416.626219 142.24515 414.943654 145.239715 411.94909 
C 148.234279 408.954525 149.916844 404.892454 149.916844 400.6575 
C 149.916844 396.422546 148.234279 392.360475 145.239715 389.36591 
C 142.24515 386.371346 138.183079 384.688781 133.948125 384.688781 
C 129.713171 384.688781 125.6511 386.371346 122.656535 389.36591 
C 119.661971 392.360475 117.979406 396.422546 117.979406 400.6575 
C 117.979406 404.892454 119.661971 408.954525 122.656535 411.94909 
C 125.6511 414.943654 129.713171 416.626219 133.948125 416.626219 
z
" clip-path="url(#pabf6960278)" style="fill: #ff0000; stroke: #000000"/>
    <path d="M 362.975625 389.063888 
C 367.168854 389.063888 371.190904 387.397901 374.155965 384.43284 
C 377.121026 381.467779 378.787013 377.445729 378.787013 373.2525 
C 378.787013 369.059271 377.121026 365.037221 374.155965 362.07216 
C 371.190904 359.107099 367.168854 357.441112 362.975625 357.441112 
C 358.782396 357.441112 354.760346 359.107099 351.795285 362.07216 
C 348.830224 365.037221 347.164237 369.059271 347.164237 373.2525 
C 347.164237 377.445729 348.830224 381.467779 351.795285 384.43284 
C 354.760346 387.397901 358.782396 389.063888 362.975625 389.063888 
z
" clip-path="url(#pabf6960278)" style="fill: #ff0000; stroke: #000000"/>
    <path d="M 204.418125 305.38846 
C 208.483612 305.38846 212.383134 303.773225 215.257867 300.898492 
C 218.1326 298.023759 219.747835 294.124237 219.747835 290.05875 
C 219.747835 285.993263 218.1326 282.093741 215.257867 279.219008 
C 212.383134 276.344275 208.483612 274.72904 204.418125 274.72904 
C 200.352638 274.72904 196.453116 276.344275 193.578383 279.219008 
C 190.70365 282.093741 189.088415 285.993263 189.088415 290.05875 
C 189.088415 294.124237 190.70365 298.023759 193.578383 300.898492 
C 196.453116 303.773225 200.352638 305.38846 204.418125 305.38846 
z
" clip-path="url(#pabf6960278)" style="fill: #ff0000; stroke: #000000"/>
    <path d="M 234.27 551.21028 
C 237.727825 551.21028 241.044493 549.836471 243.489544 547.391419 
C 245.934596 544.946368 247.308405 541.6297 247.308405 538.171875 
C 247.308405 534.71405 245.934596 531.397382 243.489544 528.952331 
C 241.044493 526.507279 237.727825 525.13347 234.27 525.13347 
C 230.812175 525.13347 227.495507 526.507279 225.050456 528.952331 
C 222.605404 531.397382 221.231595 534.71405 221.231595 538.171875 
C 221.231595 541.6297 222.605404 544.946368 225.050456 547.391419 
C 227.495507 549.836471 230.812175 551.21028 234.27 551.21028 
z
" clip-path="url(#pabf6960278)" style="fill: #ff0000; stroke: #000000"/>
    <path d="M 336.549375 242.724897 
C 338.921424 242.724897 341.196639 241.782472 342.87393 240.10518 
C 344.551222 238.427889 345.493647 236.152674 345.493647 233.780625 
C 345.493647 231.408576 344.551222 229.133361 342.87393 227.45607 
C 341.196639 225.778778 338.921424 224.836353 336.549375 224.836353 
C 334.177326 224.836353 331.902111 225.778778 330.22482 227.45607 
C 328.547528 229.133361 327.605103 231.408576 327.605103 233.780625 
C 327.605103 236.152674 328.547528 238.427889 330.22482 240.10518 
C 331.902111 241.782472 334.177326 242.724897 336.549375 242.724897 
z
" clip-path="url(#pabf6960278)" style="fill: #ff0000; stroke: #000000"/>
    <path d="M 88.43625 312.075751 
C 92.458254 312.075751 96.316069 310.477792 99.160055 307.633805 
C 102.004042 304.789819 103.602001 300.932004 103.602001 296.91 
C 103.602001 292.887996 102.004042 289.030181 99.160055 286.186195 
C 96.316069 283.342208 92.458254 281.744249 88.43625 281.744249 
C 84.414246 281.744249 80.556431 283.342208 77.712445 286.186195 
C 74.868458 289.030181 73.270499 292.887996 73.270499 296.91 
C 73.270499 300.932004 74.868458 304.789819 77.712445 307.633805 
C 80.556431 310.477792 84.414246 312.075751 88.43625 312.075751 
z
" clip-path="url(#pabf6960278)" style="fill: #ff0000; stroke: #000000"/>
    <path d="M 251.398125 415.727096 
C 255.005277 415.727096 258.465175 414.293959 261.015817 411.743317 
C 263.566459 409.192675 264.999596 405.732777 264.999596 402.125625 
C 264.999596 398.518473 263.566459 395.058575 261.015817 392.507933 
C 258.465175 389.957291 255.005277 388.524154 251.398125 388.524154 
C 247.790973 388.524154 244.331075 389.957291 241.780433 392.507933 
C 239.229791 395.058575 237.796654 398.518473 237.796654 402.125625 
C 237.796654 405.732777 239.229791 409.192675 241.780433 411.743317 
C 244.331075 414.293959 247.790973 415.727096 251.398125 415.727096 
z
" clip-path="url(#pabf6960278)" style="fill: #ff0000; stroke: #000000"/>
    <path d="M 104.09625 207.205879 
C 106.392976 207.205879 108.595944 206.29338 110.219974 204.669349 
C 111.844005 203.045319 112.756504 200.842351 112.756504 198.545625 
C 112.756504 196.248899 111.844005 194.045931 110.219974 192.421901 
C 108.595944 190.79787 106.392976 189.885371 104.09625 189.885371 
C 101.799524 189.885371 99.596556 190.79787 97.972526 192.421901 
C 96.348495 194.045931 95.435996 196.248899 95.435996 198.545625 
C 95.435996 200.842351 96.348495 203.045319 97.972526 204.669349 
C 99.596556 206.29338 101.799524 207.205879 104.09625 207.205879 
z
" clip-path="url(#pabf6960278)" style="fill: #ff0000; stroke: #000000"/>
   </g>
   <g id="matplotlib.axis_1">
    <g id="xtick_1"/>
    <g id="xtick_2"/>
    <g id="xtick_3"/>
    <g id="xtick_4"/>
    <g id="xtick_5"/>
    <g id="xtick_6"/>
    <g id="xtick_7"/>
    <g id="xtick_8"/>
    <g id="xtick_9"/>
   </g>
   <g id="matplotlib.axis_2">
    <g id="ytick_1"/>
    <g id="ytick_2"/>
    <g id="ytick_3"/>
    <g id="ytick_4"/>
    <g id="ytick_5"/>
    <g id="ytick_6"/>
    <g id="ytick_7"/>
   </g>
   <g id="text_1">
    <!-- 2 -->
    <g style="fill: #ffffff" transform="translate(352.8725 314.0175) scale(0.16 -0.16)">
     <defs>
      <path id="Montserrat-Bold-32" d="M 211 0 
L 3597 0 
L 3597 845 
L 1670 845 
L 2701 1818 
C 3328 2400 3450 2797 3450 3232 
C 3450 4045 2784 4557 1786 4557 
C 979 4557 352 4230 6 3725 
L 762 3238 
C 979 3539 1306 3686 1690 3686 
C 2163 3686 2406 3482 2406 3130 
C 2406 2912 2336 2682 1939 2304 
L 211 672 
L 211 0 
z
" transform="scale(0.015625)"/>
     </defs>
     <use xlink:href="#Montserrat-Bold-32"/>
    </g>
   </g>
   <g id="text_2">
    <!-- 17 -->
    <g style="fill: #ffffff" transform="translate(251.62125 341.911875) scale(0.16 -0.16)">
     <defs>
      <path id="Montserrat-Bold-31" d="M 941 0 
L 1978 0 
L 1978 4480 
L 45 4480 
L 45 3648 
L 941 3648 
L 941 0 
z
" transform="scale(0.015625)"/>
      <path id="Montserrat-Bold-37" d="M 966 0 
L 2093 0 
L 3757 3808 
L 3757 4480 
L 166 4480 
L 166 2906 
L 1088 2906 
L 1088 3635 
L 2573 3635 
L 966 0 
z
" transform="scale(0.015625)"/>
     </defs>
     <use xlink:href="#Montserrat-Bold-31"/>
     <use xlink:href="#Montserrat-Bold-37" x="39.199997"/>
    </g>
   </g>
   <g id="text_3">
    <!-- 20 -->
    <g style="fill: #ffffff" transform="translate(199.159375 239.143125) scale(0.16 -0.16)">
     <defs>
      <path id="Montserrat-Bold-30" d="M 2170 -77 
C 3277 -77 4090 762 4090 2240 
C 4090 3718 3277 4557 2170 4557 
C 1069 4557 250 3718 250 2240 
C 250 762 1069 -77 2170 -77 
z
M 2170 800 
C 1658 800 1299 1222 1299 2240 
C 1299 3258 1658 3680 2170 3680 
C 2688 3680 3046 3258 3046 2240 
C 3046 1222 2688 800 2170 800 
z
" transform="scale(0.015625)"/>
     </defs>
     <use xlink:href="#Montserrat-Bold-32"/>
     <use xlink:href="#Montserrat-Bold-30" x="58.999985"/>
    </g>
   </g>
   <g id="text_4">
    <!-- 5 -->
    <g style="fill: #ffffff" transform="translate(129.188125 405.04125) scale(0.16 -0.16)">
     <defs>
      <path id="Montserrat-Bold-35" d="M 1773 -77 
C 3053 -77 3635 614 3635 1408 
C 3635 2202 3110 2797 1786 2797 
L 1421 2797 
L 1491 3648 
L 3360 3648 
L 3360 4480 
L 627 4480 
L 397 1958 
L 1542 1958 
C 2355 1958 2586 1728 2586 1376 
C 2586 1011 2266 794 1747 794 
C 1280 794 813 941 474 1197 
L 64 403 
C 499 96 1152 -77 1773 -77 
z
" transform="scale(0.015625)"/>
     </defs>
     <use xlink:href="#Montserrat-Bold-35"/>
    </g>
   </g>
   <g id="text_5">
    <!-- 22 -->
    <g style="fill: #ffffff" transform="translate(353.535625 377.63625) scale(0.16 -0.16)">
     <use xlink:href="#Montserrat-Bold-32"/>
     <use xlink:href="#Montserrat-Bold-32" x="58.999985"/>
    </g>
   </g>
   <g id="text_6">
    <!-- 10 -->
    <g style="fill: #ffffff" transform="translate(195.849375 294.4425) scale(0.16 -0.16)">
     <use xlink:href="#Montserrat-Bold-31"/>
     <use xlink:href="#Montserrat-Bold-30" x="39.199997"/>
    </g>
   </g>
   <g id="text_7">
    <!-- 1 -->
    <g style="fill: #ffffff" transform="translate(231.13375 542.555625) scale(0.16 -0.16)">
     <use xlink:href="#Montserrat-Bold-31"/>
    </g>
   </g>
   <g id="text_8">
    <!-- 21 -->
    <g style="fill: #ffffff" transform="translate(328.693125 238.164375) scale(0.16 -0.16)">
     <use xlink:href="#Montserrat-Bold-32"/>
     <use xlink:href="#Montserrat-Bold-31" x="58.999985"/>
    </g>
   </g>
   <g id="text_9">
    <!-- 8 -->
    <g style="fill: #ffffff" transform="translate(83.15625 301.29375) scale(0.16 -0.16)">
     <defs>
      <path id="Montserrat-Bold-38" d="M 2106 -77 
C 3245 -77 4000 454 4000 1299 
C 4000 1779 3750 2138 3315 2355 
C 3648 2560 3840 2874 3840 3277 
C 3840 4064 3136 4557 2106 4557 
C 1088 4557 384 4064 384 3277 
C 384 2874 576 2566 902 2355 
C 474 2138 224 1779 224 1299 
C 224 454 973 -77 2106 -77 
z
M 2106 685 
C 1594 685 1274 934 1274 1331 
C 1274 1728 1594 1971 2106 1971 
C 2624 1971 2950 1728 2950 1331 
C 2950 934 2624 685 2106 685 
z
M 2106 2682 
C 1683 2682 1414 2893 1414 3232 
C 1414 3584 1690 3795 2106 3795 
C 2528 3795 2810 3584 2810 3232 
C 2810 2893 2534 2682 2106 2682 
z
" transform="scale(0.015625)"/>
     </defs>
     <use xlink:href="#Montserrat-Bold-38"/>
    </g>
   </g>
   <g id="text_10">
    <!-- 4 -->
    <g style="fill: #ffffff" transform="translate(245.885625 406.509375) scale(0.16 -0.16)">
     <defs>
      <path id="Montserrat-Bold-34" d="M 198 941 
L 2611 941 
L 2611 0 
L 3622 0 
L 3622 941 
L 4352 941 
L 4352 1786 
L 3622 1786 
L 3622 2624 
L 2643 2624 
L 2643 1786 
L 1446 1786 
L 3398 4480 
L 2310 4480 
L 198 1638 
L 198 941 
z
" transform="scale(0.015625)"/>
     </defs>
     <use xlink:href="#Montserrat-Bold-34"/>
    </g>
   </g>
   <g id="text_11">
    <!-- 15 -->
    <g style="fill: #ffffff" transform="translate(96.2 202.929375) scale(0.16 -0.16)">
     <use xlink:href="#Montserrat-Bold-31"/>
     <use xlink:href="#Montserrat-Bold-35" x="39.199997"/>
    </g>
   </g>
  </g>
 </g>
 <defs>
  <clipPath id="pabf6960278">
   <rect x="7.2" y="7.2" width="430.65" height="626.4"/>
  </clipPath>
 </defs>
</svg>
